<svg id="Ebene_1" data-name="Ebene 1" xmlns="http://www.w3.org/2000/svg" viewBox="0 0 308.13 313.18"><defs><style>.cls-1{fill:none;stroke:#000;stroke-miterlimit:10;stroke-width:0.75px;}.cls-2{fill:#cbcccb;}.cls-3{fill:#9d2f3a;}.cls-4{font-size:12px;font-family:Calibri, Calibri;}.cls-5{letter-spacing:-0.02em;}.cls-6{letter-spacing:-0.01em;}</style></defs><title>Benchmark 2018-02-07</title><line class="cls-1" x1="19.38" y1="1" x2="19.63" y2="291"/><line class="cls-1" x1="308.13" y1="290.5" x2="19.38" y2="290.5"/><line class="cls-1" x1="308.13" y1="146.5" x2="19.38" y2="146.5"/><line class="cls-1" x1="164.38" x2="164.63" y2="290"/><circle class="cls-2" cx="213.01" cy="169.37" r="4.88"/><circle class="cls-2" cx="46.01" cy="260.87" r="4.88"/><circle class="cls-2" cx="72.63" cy="212.5" r="4.88"/><circle class="cls-2" cx="36.26" cy="207.37" r="4.88"/><circle class="cls-2" cx="96.26" cy="247.87" r="4.88"/><circle class="cls-2" cx="217.88" cy="230" r="4.88"/><circle class="cls-2" cx="204.61" cy="256" r="4.88"/><circle class="cls-2" cx="86.51" cy="177.5" r="4.88"/><circle class="cls-2" cx="183.76" cy="214.87" r="4.88"/><circle class="cls-2" cx="154.79" cy="244.62" r="4.88"/><circle class="cls-2" cx="167.54" cy="193.37" r="4.88"/><circle class="cls-2" cx="50.88" cy="80.5" r="4.88"/><circle class="cls-2" cx="291.76" cy="123.62" r="4.88"/><circle class="cls-2" cx="193.51" cy="110.08" r="4.88"/><circle class="cls-2" cx="132.63" cy="32.12" r="4.88"/><circle class="cls-2" cx="106.01" cy="143" r="4.88"/><circle class="cls-2" cx="244.76" cy="202.5" r="4.88"/><circle class="cls-2" cx="280.96" cy="265.75" r="4.88"/><circle class="cls-2" cx="260.26" cy="164.5" r="4.88"/><circle class="cls-3" cx="125.53" cy="187.25" r="4.88"/><text class="cls-4" transform="translate(136.63 309.5)"><tspan class="cls-5">K</tspan><tspan x="6.05" y="0">ri</tspan><tspan class="cls-6" x="12.98" y="0">t</tspan><tspan x="16.88" y="0">erium 2</tspan></text><text class="cls-4" transform="translate(9.85 173.79) rotate(-90.06)"><tspan class="cls-5">K</tspan><tspan x="6.05" y="0">ri</tspan><tspan class="cls-6" x="12.98" y="0">t</tspan><tspan x="16.88" y="0">erium 1</tspan></text></svg>