<svg id="Ebene_1" data-name="Ebene 1" xmlns="http://www.w3.org/2000/svg" viewBox="0 0 308.09 345.5"><defs><style>.cls-1{fill:none;stroke:#000;stroke-miterlimit:10;stroke-width:0.75px;}.cls-2{fill:#cbcccb;}.cls-3,.cls-7{fill:#9d2f3a;}.cls-4{font-size:12px;font-family:Calibri, Calibri;}.cls-5{letter-spacing:-0.02em;}.cls-6{letter-spacing:-0.01em;}.cls-7{font-size:20px;font-family:Calibri-Bold, Calibri;font-weight:700;letter-spacing:0.2em;}</style></defs><title>Benchmark 2018-02-05_2</title><line class="cls-1" x1="19.34" y1="33.32" x2="19.59" y2="323.32"/><line class="cls-1" x1="308.09" y1="322.82" x2="19.34" y2="322.82"/><line class="cls-1" x1="308.09" y1="178.82" x2="19.34" y2="178.82"/><line class="cls-1" x1="164.34" y1="32.32" x2="164.59" y2="322.32"/><circle class="cls-2" cx="212.97" cy="201.69" r="4.88"/><circle class="cls-2" cx="45.97" cy="293.19" r="4.88"/><circle class="cls-2" cx="72.59" cy="244.82" r="4.88"/><circle class="cls-2" cx="36.22" cy="239.69" r="4.88"/><circle class="cls-2" cx="96.22" cy="280.19" r="4.88"/><circle class="cls-2" cx="217.84" cy="262.32" r="4.88"/><circle class="cls-2" cx="204.57" cy="288.32" r="4.88"/><circle class="cls-2" cx="86.47" cy="209.82" r="4.88"/><circle class="cls-2" cx="183.72" cy="247.19" r="4.88"/><circle class="cls-2" cx="154.75" cy="276.94" r="4.88"/><circle class="cls-2" cx="167.5" cy="225.69" r="4.88"/><circle class="cls-2" cx="50.84" cy="112.82" r="4.88"/><circle class="cls-2" cx="291.72" cy="155.94" r="4.88"/><circle class="cls-2" cx="193.47" cy="142.4" r="4.88"/><circle class="cls-2" cx="132.59" cy="64.44" r="4.88"/><circle class="cls-2" cx="105.97" cy="175.32" r="4.88"/><circle class="cls-2" cx="244.72" cy="234.82" r="4.88"/><circle class="cls-2" cx="280.91" cy="298.07" r="4.88"/><circle class="cls-2" cx="260.22" cy="196.82" r="4.88"/><circle class="cls-3" cx="125.48" cy="219.57" r="4.88"/><text class="cls-4" transform="translate(136.59 341.82)"><tspan class="cls-5">K</tspan><tspan x="6.05" y="0">ri</tspan><tspan class="cls-6" x="12.98" y="0">t</tspan><tspan x="16.88" y="0">erium 2</tspan></text><text class="cls-4" transform="matrix(0, -1, 1, 0, 9.85, 206)"><tspan class="cls-5">K</tspan><tspan x="6.05" y="0">ri</tspan><tspan class="cls-6" x="12.98" y="0">t</tspan><tspan x="16.88" y="0">erium 1</tspan></text><text class="cls-7" transform="translate(99.47 16.32)">Benchmark</text></svg>