<svg id="Ebene_1" data-name="Ebene 1" xmlns="http://www.w3.org/2000/svg" viewBox="0 0 910.96 198.49"><defs><style>.cls-1{fill:#fff;}.cls-1,.cls-14{stroke:#777776;}.cls-1,.cls-13,.cls-14{stroke-miterlimit:10;}.cls-2{font-size:21px;fill:#9d2f3a;font-family:Calibri, Calibri;}.cls-3{letter-spacing:-0.01em;}.cls-4{letter-spacing:-0.01em;}.cls-5{fill:none;}.cls-14,.cls-6{fill:#777776;}.cls-7{fill:#929291;}.cls-13,.cls-8{fill:#cbcccb;}.cls-9{letter-spacing:-0.01em;}.cls-10{letter-spacing:-0.02em;}.cls-11{letter-spacing:-0.01em;}.cls-12{letter-spacing:-0.05em;}.cls-13{stroke:#cbcccb;}.cls-15{letter-spacing:-0.01em;}.cls-16{letter-spacing:-0.01em;}</style></defs><title>juristische Beratung und Begutachtung 2018-02-04_2</title><circle class="cls-1" cx="832.96" cy="109" r="77.5"/><text class="cls-2" transform="translate(777.53 114.33)">Kla<tspan class="cls-3" x="25.79" y="0">g</tspan><tspan class="cls-4" x="35.5" y="0">e</tspan><tspan x="45.76" y="0">führung</tspan></text><g id="Pfeil_24" data-name="Pfeil 24"><rect class="cls-5" x="668.71" y="47.75" width="50.63" height="130.25"/><polygon class="cls-6" points="674.06 174 696.02 108.88 674.06 43.75 697.37 43.75 719.33 108.88 697.37 174 674.06 174"/><polygon class="cls-7" points="445.33 174 467.29 108.88 445.33 43.75 468.64 43.75 490.6 108.88 468.64 174 445.33 174"/><polygon class="cls-8" points="238.87 174 260.82 108.88 238.87 43.75 262.18 43.75 284.14 108.88 262.18 174 238.87 174"/></g><text class="cls-2" transform="translate(288.46 114.75)">Juri<tspan class="cls-9" x="29.87" y="0">s</tspan><tspan x="37.85" y="0">tische Be</tspan><tspan class="cls-10" x="114.74" y="0">r</tspan><tspan class="cls-11" x="121.63" y="0">a</tspan><tspan x="131.5" y="0">tung</tspan></text><text class="cls-2" transform="translate(498.46 114.75)"><tspan class="cls-12">V</tspan><tspan x="10.87" y="0">erhandlung</tspan><tspan class="cls-11" x="108.57" y="0">s</tspan><tspan x="116.59" y="0">führung</tspan></text><circle class="cls-13" cx="59.97" cy="174" r="15.99"/><circle class="cls-13" cx="149.47" cy="170" r="15.99"/><circle class="cls-14" cx="110.59" cy="40.88" r="17.88"/><circle class="cls-13" cx="22.98" cy="151.99" r="10.49"/><circle class="cls-13" cx="104.72" cy="167.99" r="10.49"/><circle class="cls-13" cx="190.48" cy="157.5" r="10.49"/><circle class="cls-14" cx="54.98" cy="40.88" r="10.49"/><circle class="cls-14" cx="157.48" cy="36.49" r="10.49"/><circle class="cls-13" cx="6.49" cy="129.49" r="5.99"/><circle class="cls-13" cx="92.71" cy="191.99" r="5.99"/><circle class="cls-13" cx="122.47" cy="191.99" r="5.99"/><circle class="cls-14" cx="16.99" cy="54.99" r="5.99"/><circle class="cls-14" cx="27.48" cy="34.89" r="5.99"/><circle class="cls-14" cx="71.46" cy="14.99" r="5.99"/><circle class="cls-14" cx="98.71" cy="6.49" r="5.99"/><circle class="cls-14" cx="133.49" cy="20.99" r="5.99"/><circle class="cls-14" cx="183.67" cy="54.99" r="5.99"/><circle class="cls-14" cx="193.99" cy="76.49" r="5.99"/><text class="cls-2" transform="translate(21.98 101.75)">Medizin-Juri<tspan class="cls-9" x="104.7" y="0">s</tspan><tspan x="112.68" y="0">tische</tspan><tspan x="36.91" y="25.2">Gu</tspan><tspan class="cls-15" x="61.2" y="25.2">t</tspan><tspan x="67.97" y="25.2">ac</tspan><tspan class="cls-11" x="86.91" y="25.2">h</tspan><tspan class="cls-16" x="97.75" y="25.2">t</tspan><tspan x="104.56" y="25.2">en</tspan></text></svg>