<svg id="Ebene_1" data-name="Ebene 1" xmlns="http://www.w3.org/2000/svg" xmlns:xlink="http://www.w3.org/1999/xlink" viewBox="0 0 419.68 404.68"><defs><style>.cls-1,.cls-2,.cls-4,.cls-7{fill:none;}.cls-1{clip-rule:evenodd;}.cls-2,.cls-6,.cls-8{fill-rule:evenodd;}.cls-3{fill:#fff;}.cls-4{stroke:#777776;}.cls-4,.cls-7{stroke-miterlimit:10;}.cls-5{clip-path:url(#clip-path);}.cls-6{fill:#cbcccf;}.cls-7{stroke:#9d2f3a;}.cls-8{fill:#cfcfcf;}.cls-9{font-size:12px;}.cls-25,.cls-9{font-family:Calibri, Calibri;}.cls-10{letter-spacing:0em;}.cls-11{letter-spacing:-0.02em;}.cls-12{letter-spacing:0em;}.cls-13{letter-spacing:-0.01em;}.cls-14{letter-spacing:-0.05em;}.cls-15{letter-spacing:-0.01em;}.cls-16{letter-spacing:-0.02em;}.cls-17{letter-spacing:-0.01em;}.cls-18{letter-spacing:0em;}.cls-19{letter-spacing:-0.02em;}.cls-20{letter-spacing:-0.02em;}.cls-21{letter-spacing:-0.01em;}.cls-22{letter-spacing:-0.01em;}.cls-23{letter-spacing:0em;}.cls-24{letter-spacing:-0.01em;}.cls-25{font-size:21px;}.cls-26{letter-spacing:-0.01em;}.cls-27{letter-spacing:-0.03em;}.cls-28{letter-spacing:-0.09em;}</style><clipPath id="clip-path" transform="translate(-271.66 -73.78)"><polyline class="cls-1" points="0 0 960 0 960 540 0 540"/></clipPath></defs><title>Datenplausibilisierung 2018-02-06_2</title><circle class="cls-3" cx="209.84" cy="217.64" r="57.18"/><circle class="cls-4" cx="209.84" cy="217.64" r="57.18"/><g class="cls-5"><polygon class="cls-6" points="198.12 150.38 198.12 138.26 190.34 138.26 209.78 126.14 229.22 138.26 221.44 138.26 221.44 150.38 198.12 150.38"/></g><ellipse class="cls-3" cx="209.84" cy="57.62" rx="57.18" ry="57.12"/><ellipse class="cls-7" cx="209.84" cy="57.62" rx="57.18" ry="57.12"/><g class="cls-5"><polygon class="cls-8" points="270.14 185.76 281.65 182.01 279.25 174.62 296.77 189.36 291.26 211.58 288.86 204.19 277.34 207.93 270.14 185.76"/></g><circle class="cls-3" cx="633.66" cy="241.98" r="57.18" transform="translate(-302.24 30.85) rotate(-9.22)"/><circle class="cls-7" cx="633.66" cy="241.98" r="57.18" transform="translate(-302.24 30.85) rotate(-9.22)"/><g class="cls-5"><polygon class="cls-8" points="258.76 265.13 265.88 274.92 272.16 270.35 263.56 291.57 240.72 293.19 247.01 288.63 239.9 278.83 258.76 265.13"/></g><circle class="cls-3" cx="303.86" cy="347.06" r="57.12"/><circle class="cls-7" cx="303.86" cy="347.06" r="57.12"/><g class="cls-5"><polygon class="cls-8" points="179.76 278.83 172.64 288.63 178.93 293.19 156.09 291.57 147.49 270.35 153.78 274.92 160.9 265.13 179.76 278.83"/></g><ellipse class="cls-3" cx="115.76" cy="347.06" rx="57.18" ry="57.12"/><ellipse class="cls-7" cx="115.76" cy="347.06" rx="57.18" ry="57.12"/><g class="cls-5"><polygon class="cls-8" points="142.31 207.93 130.8 204.19 128.4 211.58 122.89 189.36 140.4 174.62 138 182.01 149.52 185.76 142.31 207.93"/></g><circle class="cls-3" cx="329.34" cy="241.98" r="57.18" transform="translate(-233.93 454.53) rotate(-80.78)"/><circle class="cls-7" cx="329.34" cy="241.98" r="57.18" transform="translate(-233.93 454.53) rotate(-80.78)"/><text class="cls-9" transform="translate(197.72 53.64)">OP<tspan class="cls-10" x="14.14" y="0">S</tspan><tspan x="19.61" y="0">-</tspan><tspan class="cls-11" x="-15.24" y="14.4">K</tspan><tspan x="-9.19" y="14.4">n</tspan><tspan class="cls-12" x="-2.89" y="14.4">o</tspan><tspan x="3.39" y="14.4">wled</tspan><tspan class="cls-13" x="27" y="14.4">g</tspan><tspan x="32.55" y="14.4">e</tspan></text><text class="cls-9" transform="translate(33.91 151.19)">Klinisches<tspan class="cls-14" x="-5.41" y="14.4">V</tspan><tspan x="0.8" y="14.4">er</tspan><tspan class="cls-15" x="10.95" y="14.4">t</tspan><tspan x="14.84" y="14.4">eilungs-</tspan><tspan x="-1.51" y="28.8">modell für</tspan><tspan x="-10.18" y="43.2">Medi</tspan><tspan class="cls-16" x="15.11" y="43.2">k</tspan><tspan x="20.36" y="43.2">ame</tspan><tspan class="cls-17" x="41.66" y="43.2">n</tspan><tspan class="cls-15" x="47.86" y="43.2">t</tspan><tspan x="51.75" y="43.2">e</tspan></text><text class="cls-9" transform="translate(77.73 350.73)">Stru<tspan class="cls-18" x="20.02" y="0">k</tspan><tspan x="25.42" y="0">tu</tspan><tspan class="cls-19" x="35.74" y="0">r</tspan><tspan x="39.68" y="0">anal</tspan><tspan class="cls-17" x="60.23" y="0">y</tspan><tspan x="65.55" y="0">se</tspan></text><text class="cls-9" transform="translate(267 342.73) scale(0.94 1)"><tspan class="cls-20">K</tspan><tspan x="6.02" y="0">o</tspan><tspan class="cls-21" x="12.35" y="0">s</tspan><tspan class="cls-22" x="16.9" y="0">t</tspan><tspan class="cls-23" x="20.8" y="0">enanal</tspan><tspan class="cls-24" x="53.63" y="0">y</tspan><tspan class="cls-23" x="58.95" y="0">se &amp;</tspan><tspan x="0.81" y="14.4">Plausibilisierung</tspan></text><text class="cls-9" transform="translate(318.23 164.73) scale(0.94 1)">Lei<tspan class="cls-21" x="13.77" y="0">s</tspan><tspan x="18.33" y="0">tungsanal</tspan><tspan class="cls-24" x="65.85" y="0">y</tspan><tspan x="71.17" y="0">se &amp;</tspan><tspan x="6.93" y="14.4">Plausibilisierung</tspan></text><text class="cls-25" transform="translate(189.31 209.73) scale(0.94 1)">D<tspan class="cls-26" x="12.92" y="0">R</tspan><tspan x="24.13" y="0">G-</tspan><tspan x="-30.36" y="25.2">Exper</tspan><tspan class="cls-27" x="17.8" y="25.2">t</tspan><tspan x="24.18" y="25.2">-</tspan><tspan class="cls-28" x="30.61" y="25.2">T</tspan><tspan x="38.98" y="25.2">ools</tspan></text></svg>