<svg id="Ebene_1" data-name="Ebene 1" xmlns="http://www.w3.org/2000/svg" viewBox="0 0 860.63 156.71"><defs><style>.cls-1{fill:#fff;}.cls-1,.cls-13,.cls-6{stroke:#777776;stroke-miterlimit:10;}.cls-2{font-size:18px;fill:#9d2f3a;font-family:Calibri-Bold, Calibri;font-weight:700;}.cls-3{letter-spacing:-0.05em;}.cls-4{letter-spacing:-0.01em;}.cls-5{letter-spacing:0em;}.cls-6{fill:none;}.cls-7{letter-spacing:-0.01em;}.cls-8{letter-spacing:-0.01em;}.cls-9{letter-spacing:-0.01em;}.cls-10{letter-spacing:-0.01em;}.cls-11{letter-spacing:-0.02em;}.cls-12,.cls-13{fill:#777776;}</style></defs><title>Forderungsmanagement 2018-02-04</title><path class="cls-1" d="M895.81,535.35" transform="translate(-190.33 -409)"/><text class="cls-2" transform="translate(683.93 82.67)"><tspan class="cls-3">V</tspan><tspan x="9.72" y="0">e</tspan><tspan class="cls-4" x="18.78" y="0">r</tspan><tspan x="24.97" y="0">gleichsa</tspan><tspan class="cls-5" x="84.67" y="0">b</tspan><tspan x="94.24" y="0">schluss</tspan></text><path class="cls-6" d="M836.33,564.5h111a77.56,77.56,0,1,0-56.18-24.15" transform="translate(-190.33 -409)"/><path class="cls-1" d="M680.81,535.35" transform="translate(-190.33 -409)"/><text class="cls-2" transform="translate(494.8 82.67)"><tspan class="cls-3">V</tspan><tspan x="9.72" y="0">erhandlung</tspan></text><path class="cls-6" d="M621.33,564.5h111a77.56,77.56,0,1,0-56.18-24.15" transform="translate(-190.33 -409)"/><text class="cls-2" transform="translate(644.98 82.67)">=</text><path class="cls-1" d="M464.81,535.35" transform="translate(-190.33 -409)"/><text class="cls-2" transform="translate(272.42 82.67)">Clu<tspan class="cls-7" x="23.61" y="0">s</tspan><tspan class="cls-8" x="30.59" y="0">t</tspan><tspan x="36.61" y="0">erbildung</tspan></text><path class="cls-6" d="M405.33,564.5h111a77.56,77.56,0,1,0-56.18-24.15" transform="translate(-190.33 -409)"/><path class="cls-1" d="M249.81,535.35" transform="translate(-190.33 -409)"/><text class="cls-2" transform="translate(42.71 82.67)">D<tspan class="cls-9" x="11.35" y="0">a</tspan><tspan class="cls-8" x="20.07" y="0">t</tspan><tspan x="26.09" y="0">ena</tspan><tspan class="cls-10" x="53.69" y="0">n</tspan><tspan class="cls-11" x="63.25" y="0">f</tspan><tspan x="68.68" y="0">o</tspan><tspan class="cls-8" x="78.35" y="0">r</tspan><tspan x="84.53" y="0">derung</tspan></text><path class="cls-6" d="M190.33,564.5h111a77.56,77.56,0,1,0-56.18-24.15" transform="translate(-190.33 -409)"/><text class="cls-2" transform="translate(213.98 82.67)">+</text><text class="cls-2" transform="translate(429.98 82.67)">+</text><g id="Pfeil_25" data-name="Pfeil 25"><g id="Pfeil_30" data-name="Pfeil 30"><polygon class="cls-12" points="855.62 156.03 855.62 156.71 860.63 155.56 855.62 154.41 855.62 155.08 852.62 155.08 852.62 156.03 855.62 156.03"/></g><line class="cls-13" x1="800.35" y1="155.45" x2="853.54" y2="155.56"/></g></svg>