<svg id="Ebene_1" data-name="Ebene 1" xmlns="http://www.w3.org/2000/svg" xmlns:xlink="http://www.w3.org/1999/xlink" viewBox="0 0 202.86 356.93"><defs><style>.cls-1,.cls-4{fill:none;}.cls-2{clip-path:url(#clip-path);}.cls-3,.cls-5,.cls-6{fill:#a5a5a5;fill-rule:evenodd;}.cls-3{opacity:0.9;}.cls-4{stroke:#fff;stroke-miterlimit:10;stroke-width:0.96px;}.cls-5{opacity:0.7;}.cls-6{opacity:0.5;}.cls-7{font-size:12px;fill:#9d2f3a;font-family:Calibri, Calibri;}.cls-8{letter-spacing:-0.01em;}.cls-9{letter-spacing:-0.02em;}.cls-10{letter-spacing:-0.01em;}.cls-11{letter-spacing:-0.03em;}.cls-12{letter-spacing:-0.01em;}.cls-13{letter-spacing:-0.01em;}.cls-14{letter-spacing:-0.03em;}.cls-15{letter-spacing:-0.01em;}</style><clipPath id="clip-path" transform="translate(-354.66 -89.11)"><rect class="cls-1" width="960" height="540"/></clipPath></defs><title>InEK-Kalkulation 2018-02-05</title><g class="cls-2"><path class="cls-3" d="M404.47,165.84a76.25,76.25,0,1,1,92.74,74.44l-.84,11.92-20.33-20L499.5,208l-.83,11.73A56.77,56.77,0,1,0,424,165.84Z" transform="translate(-354.66 -89.11)"/><path class="cls-4" d="M404.47,165.84a76.25,76.25,0,1,1,92.74,74.44l-.84,11.92-20.33-20L499.5,208l-.83,11.73A56.77,56.77,0,1,0,424,165.84Z" transform="translate(-354.66 -89.11)"/><path class="cls-5" d="M485.31,213.81l-13.77,13.77a56.77,56.77,0,1,0-58.09,94l-.83-11.73,23.46,24.21-20.33,20-.84-11.92a76.24,76.24,0,1,1,70.4-128.35Z" transform="translate(-354.66 -89.11)"/><path class="cls-4" d="M485.31,213.81l-13.77,13.77a56.77,56.77,0,1,0-58.09,94l-.83-11.73,23.46,24.21-20.33,20-.84-11.92a76.24,76.24,0,1,1,70.4-128.35Z" transform="translate(-354.66 -89.11)"/><path class="cls-6" d="M427,315.48a76.19,76.19,0,1,1-22.32,53.88h19.42a56.78,56.78,0,1,0,16.63-40.15Z" transform="translate(-354.66 -89.11)"/><path class="cls-4" d="M427,315.48a76.19,76.19,0,1,1-22.32,53.88h19.42a56.78,56.78,0,1,0,16.63-40.15Z" transform="translate(-354.66 -89.11)"/><text class="cls-7" transform="translate(86.67 72.95)">D<tspan class="cls-8" x="7.38" y="0">R</tspan><tspan x="13.79" y="0">G-</tspan><tspan class="cls-9" x="25.03" y="0">K</tspan><tspan x="31.07" y="0">al</tspan><tspan class="cls-10" x="39.57" y="0">k</tspan><tspan x="44.87" y="0">ul</tspan><tspan class="cls-8" x="53.93" y="0">a</tspan><tspan x="59.57" y="0">tion</tspan></text><text class="cls-7" transform="translate(31.67 181.95)">PEP<tspan class="cls-11" x="18.26" y="0">P</tspan><tspan x="24.1" y="0">-</tspan><tspan class="cls-9" x="27.77" y="0">K</tspan><tspan x="33.81" y="0">al</tspan><tspan class="cls-10" x="42.31" y="0">k</tspan><tspan x="47.61" y="0">ul</tspan><tspan class="cls-8" x="56.67" y="0">a</tspan><tspan x="62.31" y="0">tion</tspan></text><text class="cls-7" transform="translate(81.75 280.07)">I<tspan class="cls-9" x="3.02" y="0">n</tspan><tspan class="cls-12" x="9.13" y="0">v</tspan><tspan x="14.43" y="0">e</tspan><tspan class="cls-13" x="20.4" y="0">s</tspan><tspan x="24.96" y="0">titions</tspan><tspan class="cls-14" x="55.66" y="0">k</tspan><tspan x="60.71" y="0">o</tspan><tspan class="cls-13" x="67.04" y="0">s</tspan><tspan class="cls-15" x="71.6" y="0">t</tspan><tspan x="75.49" y="0">en-</tspan><tspan class="cls-9" x="18.79" y="14.4">K</tspan><tspan x="24.83" y="14.4">al</tspan><tspan class="cls-10" x="33.33" y="14.4">k</tspan><tspan x="38.63" y="14.4">ul</tspan><tspan class="cls-8" x="47.69" y="14.4">a</tspan><tspan x="53.33" y="14.4">tion</tspan></text></g></svg>