<svg id="Ebene_1" data-name="Ebene 1" xmlns="http://www.w3.org/2000/svg" viewBox="0 0 1017 156"><defs><style>.cls-1,.cls-2{fill:#fff;}.cls-1{stroke:#9d2f3a;}.cls-1,.cls-2,.cls-3{stroke-miterlimit:10;}.cls-2,.cls-3,.cls-4{stroke:#777776;}.cls-3,.cls-4{fill:#777776;}.cls-4{stroke-linejoin:bevel;}.cls-5{font-size:21px;fill:#9d2f3a;}.cls-5,.cls-9{font-family:Calibri, Calibri;}.cls-6{letter-spacing:-0.03em;}.cls-7{letter-spacing:-0.01em;}.cls-8{letter-spacing:-0.01em;}.cls-9{font-size:15px;}.cls-10{letter-spacing:-0.01em;}.cls-11{letter-spacing:-0.02em;}.cls-12{letter-spacing:0em;}.cls-13{letter-spacing:-0.02em;}.cls-14{letter-spacing:-0.02em;}.cls-15{letter-spacing:-0.01em;}.cls-16{letter-spacing:-0.01em;}.cls-17{letter-spacing:0em;}.cls-18{letter-spacing:-0.02em;}</style></defs><title>Kodierrevision 2018-02-04_2</title><circle class="cls-1" cx="78" cy="78" r="77.5"/><circle class="cls-1" cx="471" cy="78" r="77.5"/><circle class="cls-1" cx="627" cy="78" r="77.5"/><circle class="cls-1" cx="783" cy="78" r="77.5"/><circle class="cls-2" cx="939" cy="78" r="77.5"/><line class="cls-3" x1="158.5" y1="75.5" x2="192.5" y2="42.5"/><line class="cls-4" x1="192.25" y1="42.5" x2="210.25" y2="42.5"/><line class="cls-3" x1="390.25" y1="75.5" x2="356.25" y2="42.5"/><line class="cls-4" x1="356.5" y1="42.5" x2="338.5" y2="42.5"/><line class="cls-3" x1="158.5" y1="80.5" x2="192.5" y2="113.5"/><line class="cls-4" x1="192.25" y1="113.5" x2="210.25" y2="113.5"/><line class="cls-3" x1="390.25" y1="80.5" x2="356.25" y2="113.5"/><line class="cls-4" x1="356.5" y1="113.5" x2="338.5" y2="113.5"/><text class="cls-5" transform="translate(253.89 35.88)">Prü<tspan class="cls-6" x="29.2" y="0">f</tspan><tspan x="35.05" y="0">-</tspan><tspan x="-31.34" y="25.2">al</tspan><tspan class="cls-7" x="-16.46" y="25.2">g</tspan><tspan x="-6.72" y="25.2">orithmen</tspan></text><text class="cls-5" transform="translate(233.19 106.88)">Exper<tspan class="cls-8" x="48.15" y="0">t</tspan><tspan x="54.96" y="0">en-</tspan><tspan x="-7.91" y="25.2">beur</tspan><tspan class="cls-8" x="31.93" y="25.2">t</tspan><tspan x="38.74" y="25.2">eilung</tspan></text><text class="cls-9" transform="translate(63 73.33)">§ 21-<tspan x="-25.75" y="18">D</tspan><tspan class="cls-10" x="-16.52" y="18">a</tspan><tspan class="cls-8" x="-9.47" y="18">t</tspan><tspan x="-4.61" y="18">enanal</tspan><tspan class="cls-10" x="36.43" y="18">y</tspan><tspan x="43.08" y="18">se</tspan></text><text class="cls-9" transform="translate(435.95 73.33)">Individuelle<tspan x="-2.11" y="18">P</tspan><tspan class="cls-11" x="5.64" y="18">r</tspan><tspan x="10.57" y="18">äsele</tspan><tspan class="cls-12" x="41.99" y="18">k</tspan><tspan x="48.73" y="18">tion</tspan></text><text class="cls-9" transform="translate(592.28 73.33)"><tspan class="cls-13">P</tspan><tspan x="7.45" y="0">e</tspan><tspan class="cls-14" x="14.91" y="0">r</tspan><tspan x="19.89" y="0">sönliche</tspan><tspan x="-8.38" y="18">A</tspan><tspan class="cls-12" x="0.3" y="18">k</tspan><tspan class="cls-8" x="7.05" y="18">t</tspan><tspan x="11.91" y="18">ensic</tspan><tspan class="cls-10" x="42.91" y="18">h</tspan><tspan x="50.65" y="18">tung</tspan></text><text class="cls-9" transform="translate(735.9 73.33)">Do<tspan class="cls-15" x="17.14" y="0">k</tspan><tspan x="23.77" y="0">ume</tspan><tspan class="cls-10" x="51.09" y="0">n</tspan><tspan class="cls-16" x="58.84" y="0">t</tspan><tspan class="cls-10" x="63.68" y="0">a</tspan><tspan x="70.72" y="0">tion</tspan><tspan x="15.99" y="18">in REDDoc</tspan></text><text class="cls-9" transform="translate(909.34 64.33)">O<tspan class="cls-17" x="9.93" y="0">p</tspan><tspan x="17.75" y="0">tionale</tspan><tspan x="12.9" y="18">MD</tspan><tspan class="cls-18" x="34.95" y="18">K</tspan><tspan x="42.5" y="18">-</tspan><tspan x="-6.3" y="36">Übernahme</tspan></text></svg>