<svg id="Ebene_1" data-name="Ebene 1" xmlns="http://www.w3.org/2000/svg" viewBox="0 0 910.96 198.49"><defs><style>.cls-1{fill:#fff;}.cls-1,.cls-13{stroke:#777776;}.cls-1,.cls-12,.cls-13{stroke-miterlimit:10;}.cls-2{font-size:21px;fill:#9d2f3a;font-family:Calibri, Calibri;}.cls-3{letter-spacing:-0.03em;}.cls-4{letter-spacing:-0.01em;}.cls-5{letter-spacing:-0.01em;}.cls-6{fill:none;}.cls-13,.cls-7{fill:#777776;}.cls-8{fill:#929291;}.cls-12,.cls-9{fill:#cbcccb;}.cls-10{letter-spacing:-0.01em;}.cls-11{letter-spacing:-0.01em;}.cls-12{stroke:#cbcccb;}.cls-14{letter-spacing:-0.02em;}.cls-15{letter-spacing:-0.01em;}</style></defs><title>Kostenträgerrechnung 2018-02-05</title><circle class="cls-1" cx="832.96" cy="109" r="77.5"/><text class="cls-2" transform="translate(776.07 101.33)">Behandlungs-<tspan class="cls-3" x="30.13" y="25.2">k</tspan><tspan x="38.97" y="25.2">o</tspan><tspan class="cls-4" x="50.04" y="25.2">s</tspan><tspan class="cls-5" x="58.02" y="25.2">t</tspan><tspan x="64.83" y="25.2">en</tspan></text><g id="Pfeil_24" data-name="Pfeil 24"><rect class="cls-6" x="668.71" y="47.75" width="50.63" height="130.25"/><polygon class="cls-7" points="674.06 174 696.02 108.88 674.06 43.75 697.37 43.75 719.33 108.88 697.37 174 674.06 174"/><polygon class="cls-8" points="458.33 174 480.29 108.88 458.33 43.75 481.64 43.75 503.6 108.88 481.64 174 458.33 174"/><polygon class="cls-9" points="238.87 174 260.82 108.88 238.87 43.75 262.18 43.75 284.14 108.88 262.18 174 238.87 174"/></g><text class="cls-2" transform="translate(323.46 113.75)">S<tspan class="cls-10" x="9.65" y="0">t</tspan><tspan x="16.43" y="0">anda</tspan><tspan class="cls-11" x="58.61" y="0">r</tspan><tspan x="65.65" y="0">disiert</tspan></text><text class="cls-2" transform="translate(554.46 113.88)">Individuell</text><circle class="cls-12" cx="59.97" cy="174" r="15.99"/><circle class="cls-12" cx="149.47" cy="170" r="15.99"/><circle class="cls-13" cx="110.59" cy="40.88" r="17.88"/><circle class="cls-12" cx="22.98" cy="151.99" r="10.49"/><circle class="cls-12" cx="104.72" cy="167.99" r="10.49"/><circle class="cls-12" cx="190.48" cy="157.5" r="10.49"/><circle class="cls-13" cx="54.98" cy="40.88" r="10.49"/><circle class="cls-13" cx="157.48" cy="36.49" r="10.49"/><circle class="cls-12" cx="6.49" cy="129.49" r="5.99"/><circle class="cls-12" cx="92.71" cy="191.99" r="5.99"/><circle class="cls-12" cx="122.47" cy="191.99" r="5.99"/><circle class="cls-13" cx="16.99" cy="54.99" r="5.99"/><circle class="cls-13" cx="27.48" cy="34.89" r="5.99"/><circle class="cls-13" cx="71.46" cy="14.99" r="5.99"/><circle class="cls-13" cx="98.71" cy="6.49" r="5.99"/><circle class="cls-13" cx="133.49" cy="20.99" r="5.99"/><circle class="cls-13" cx="183.67" cy="54.99" r="5.99"/><circle class="cls-13" cx="193.99" cy="76.49" r="5.99"/><text class="cls-2" transform="translate(55.6 101.75)"><tspan class="cls-14">K</tspan><tspan x="10.53" y="0">o</tspan><tspan class="cls-4" x="21.6" y="0">s</tspan><tspan class="cls-5" x="29.58" y="0">t</tspan><tspan x="36.39" y="0">en und</tspan><tspan x="1.68" y="25.2">Lei</tspan><tspan class="cls-4" x="25.77" y="25.2">s</tspan><tspan x="33.75" y="25.2">tun</tspan><tspan class="cls-15" x="62.85" y="25.2">g</tspan><tspan x="72.56" y="25.2">en</tspan></text></svg>