<?xml version="1.0" encoding="utf-8"?>
<!-- Generator: Adobe Illustrator 20.1.0, SVG Export Plug-In . SVG Version: 6.00 Build 0)  -->
<svg version="1.1" id="Ebene_1" xmlns="http://www.w3.org/2000/svg" xmlns:xlink="http://www.w3.org/1999/xlink" x="0px" y="0px"
	 viewBox="0 0 283.5 184.3" enable-background="new 0 0 283.5 184.3" xml:space="preserve">
<line fill="none" stroke="#9C2F3A" stroke-linecap="round" stroke-linejoin="round" stroke-dasharray="0,2.994" x1="68" y1="19.8" x2="68" y2="135.1"/>
<path fill="none" stroke="#9C2F3A" stroke-linecap="round" stroke-linejoin="round" d="M68,136.6L68,136.6 M68,16.8L68,16.8"/>
<line fill="none" stroke="#9C2F3A" stroke-linecap="round" stroke-linejoin="round" stroke-dasharray="0,2.994" x1="256.9" y1="19.8" x2="256.9" y2="135.1"/>
<path fill="none" stroke="#9C2F3A" stroke-linecap="round" stroke-linejoin="round" d="M256.9,136.6L256.9,136.6 M256.9,16.8
	L256.9,16.8"/>
<line fill="none" stroke="#A7A7A7" stroke-dasharray="2.03,2.03" x1="224.7" y1="16.8" x2="224.7" y2="136.6"/>
<line fill="none" stroke="#A7A7A7" stroke-dasharray="2.03,2.03" x1="100" y1="16.8" x2="100" y2="136.6"/>
<line fill="none" stroke="#9C2F3A" stroke-dasharray="2.03,2.03" x1="162.3" y1="16.8" x2="162.3" y2="136.6"/>
<rect x="101.9" y="162.9" fill="#A7A7A7" width="8.5" height="5.7"/>
<rect x="67.5" y="162.9" fill="#9C2F3A" width="8.5" height="5.7"/>
<line fill="none" stroke="#9C2F3A" stroke-linecap="round" stroke-linejoin="round" stroke-dasharray="0,2.979" x1="73.1" y1="120.1" x2="253.3" y2="120.1"/>
<path fill="none" stroke="#9C2F3A" stroke-linecap="round" stroke-linejoin="round" d="M254.8,120.1L254.8,120.1 M70.1,120.1
	L70.1,120.1"/>
<line fill="none" stroke="#9C2F3A" stroke-linecap="round" stroke-linejoin="round" stroke-dasharray="0,2.979" x1="73.1" y1="56.1" x2="253.3" y2="56.1"/>
<path fill="none" stroke="#9C2F3A" stroke-linecap="round" stroke-linejoin="round" d="M254.8,56.1L254.8,56.1 M70.1,56.1L70.1,56.1
	"/>
<line fill="none" stroke="#9C2F3A" stroke-linecap="round" stroke-linejoin="round" stroke-dasharray="0,2.979" x1="73.1" y1="104.1" x2="253.3" y2="104.1"/>
<path fill="none" stroke="#9C2F3A" stroke-linecap="round" stroke-linejoin="round" d="M254.8,104.1L254.8,104.1 M70.1,104.1
	L70.1,104.1"/>
<line fill="none" stroke="#9C2F3A" stroke-linecap="round" stroke-linejoin="round" stroke-dasharray="0,2.979" x1="73.1" y1="40.1" x2="253.3" y2="40.1"/>
<path fill="none" stroke="#9C2F3A" stroke-linecap="round" stroke-linejoin="round" d="M254.8,40.1L254.8,40.1 M70.1,40.1L70.1,40.1
	"/>
<line fill="none" stroke="#9C2F3A" stroke-linecap="round" stroke-linejoin="round" stroke-dasharray="0,2.979" x1="73.1" y1="88.1" x2="253.3" y2="88.1"/>
<path fill="none" stroke="#9C2F3A" stroke-linecap="round" stroke-linejoin="round" d="M254.8,88.1L254.8,88.1 M70.1,88.1L70.1,88.1
	"/>
<line fill="none" stroke="#9C2F3A" stroke-linecap="round" stroke-linejoin="round" stroke-dasharray="0,2.979" x1="73.1" y1="24.1" x2="253.3" y2="24.1"/>
<path fill="none" stroke="#9C2F3A" stroke-linecap="round" stroke-linejoin="round" d="M254.8,24.1L254.8,24.1 M70.1,24.1L70.1,24.1
	"/>
<line fill="none" stroke="#9C2F3A" stroke-linecap="round" stroke-linejoin="round" stroke-dasharray="0,2.979" x1="73.1" y1="72.1" x2="253.3" y2="72.1"/>
<path fill="none" stroke="#9C2F3A" stroke-linecap="round" stroke-linejoin="round" d="M254.8,72.1L254.8,72.1 M70.1,72.1L70.1,72.1
	"/>
<line fill="none" stroke="#9C2F3A" stroke-linecap="round" stroke-linejoin="round" stroke-dasharray="0,2.979" x1="73.1" y1="136.1" x2="253.3" y2="136.1"/>
<path fill="none" stroke="#9C2F3A" stroke-linecap="round" stroke-linejoin="round" d="M254.8,136.1L254.8,136.1 M70.1,136.1
	L70.1,136.1"/>
<rect x="78.7" y="53.5" fill="#9C2F3A" width="11.3" height="19.1"/>
<rect x="141.1" y="37.9" fill="#9C2F3A" width="11.3" height="34.7"/>
<rect x="203.4" y="64.1" fill="#9C2F3A" width="11.3" height="8.5"/>
<rect x="109.9" y="27.6" fill="#9C2F3A" width="11.3" height="45"/>
<rect x="172.2" y="56.6" fill="#9C2F3A" width="11.3" height="16"/>
<rect x="234.6" y="62.3" fill="#9C2F3A" width="11.3" height="10.3"/>
<g>
	<path fill="#1A171B" d="M49.3,36.7c1.1,0,1.2-0.6,1.2-1.3v-2.6h-0.4v2.6c0,0.4-0.1,0.9-0.8,0.9h-5.8v0.4H49.3z M49.3,42.1
		c1.1,0,1.2-0.6,1.2-1.3v-2.6h-0.4v2.6c0,0.4-0.1,0.9-0.8,0.9h-5.8v0.4H49.3z M47.9,47.4L44,46l3.8-1.3V47.4z M50.5,48.7v-0.4
		l-2.2-0.8v-2.9l2.2-0.8v-0.4l-7,2.4v0.4L50.5,48.7z M50.5,53.3V53h-3.2l-0.1-3.2h-0.3L46.8,53h-2.1c-0.6,0-0.8-0.2-0.8-0.8v-2.8
		h-0.3l-0.1,2.8c0,0.6,0.3,1.2,1.2,1.2H50.5z M51.2,60.8v-0.4l-8-2.6v0.4L51.2,60.8z M47,69.4c2,0,3.6-0.2,3.6-2.1
		c0-0.8-0.4-1.8-0.5-2.1l0.5-0.1v-0.3h-3.7c0,0.2,0,0.4,0,0.6c0,0.7,0,1.2,0.2,1.6h0.2v-1.8h2.5c0,0,0.5,1.3,0.5,2
		c0,1.4-0.9,1.7-3.2,1.7c-2,0-3.1-0.3-3.1-1.7c0-0.9,0.2-2.3,0.2-2.3h-0.3c-0.1,0.6-0.3,1.8-0.3,2.3C43.5,69.2,45.1,69.4,47,69.4z
		 M47.9,74.4L44,73l3.8-1.3V74.4z M50.5,75.8v-0.4l-2.2-0.8v-2.9l2.2-0.8v-0.4l-7,2.4v0.4L50.5,75.8z M47.1,81h-3.2v-2.3
		c0-0.6,0.2-1.2,1.6-1.2c1.4,0,1.6,0.6,1.6,1.2V81z M50.5,81.4V81h-3.1c0,0,0.1-1.8,0.1-2.1l3-1.5v-0.4l-3,1.5c0-0.5-0.2-1.4-2-1.4
		c-1.7,0-2,0.8-2,1.6v2.7H50.5z M43.9,87.5v-2.2h6.6V85h-6.6v-2.2h-0.4v4.7H43.9z M50.5,88.9h-7v0.4h7V88.9z M49.3,94.8
		c1.1,0,1.2-0.6,1.2-1.3l-0.1-2.7h-0.3v2.7c0,0.4-0.1,0.9-0.8,0.9h-2.1l-0.1-3.2h-0.3l-0.1,3.2h-2.1c-0.6,0-0.8-0.2-0.8-0.8v-2.8
		h-0.3l-0.1,2.8c0,0.6,0.3,1.2,1.2,1.2H49.3z M46.6,100.2h-2.7v-2c0-0.8,0.3-1.4,1.4-1.4c0.9,0,1.4,0.6,1.4,1.4V100.2z M50.1,100.2
		h-3v-2c0-0.8,0.7-1.4,1.5-1.4c1.3,0,1.6,0.8,1.6,1.4V100.2z M50.5,100.6v-2.4c0-1.4-1-1.8-1.9-1.8c-1.1,0-1.6,0.7-1.7,1.1
		c-0.1-0.6-0.7-1.1-1.6-1.1c-0.9,0-1.8,0.4-1.8,1.8v2.4H50.5z M45.8,106.4c0.8,0,1.5-0.2,1.5-1.6v-1.1c0-0.8,0.4-1.1,1.1-1.1H49
		c1,0,1.2,0.8,1.2,1.4c0,0.9,0,1.8-0.1,2.2h0.3c0.1-0.4,0.2-1.8,0.2-2.2c0-0.9-0.2-1.8-1.6-1.8h-0.6c-0.8,0-1.5,0.2-1.5,1.5v1.1
		c0,0.7-0.1,1.2-1.1,1.2h-0.6c-1.1,0-1.3-0.6-1.3-1.4c0,0,0-1.5,0.1-2.1h-0.3c-0.1,0.4-0.2,1.6-0.2,2.1c0,1,0.3,1.8,1.7,1.8H45.8z
		 M47,112.3c2,0,3.6-0.2,3.6-2.1c0-0.8-0.4-1.8-0.5-2.1l0.5-0.1v-0.3h-3.7c0,0.2,0,0.4,0,0.6c0,0.7,0,1.2,0.2,1.6h0.2v-1.8h2.5
		c0,0,0.5,1.3,0.5,2c0,1.4-0.9,1.7-3.2,1.7c-2,0-3.1-0.3-3.1-1.7c0-0.9,0.2-2.3,0.2-2.3h-0.3c-0.1,0.6-0.3,1.8-0.3,2.3
		C43.5,112.1,45.1,112.3,47,112.3z M50.5,118.6v-0.4h-6.2l6.2-3.9v-0.4h-7v0.4h6.2l-6.2,3.9v0.4H50.5z M47.4,125.1
		c3.1,0,3.1-1.2,3.1-2.4c0-1.1,0-2.4-3.1-2.4h-3.9v0.4h3.9c2.6,0,2.7,0.9,2.7,2c0,1.2,0,2-2.7,2h-3.9v0.4H47.4z M50.5,130.8v-0.4
		h-3.3v-1.2l3.3-2.2v-0.5l-3.5,2.3l-3.5-2.3v0.5l3.3,2.2v1.2h-3.3v0.4H50.5z M47,136.6c2,0,3.6-0.5,3.6-2.2c0-0.5-0.1-1.4-0.2-2.1
		h-0.3c0,0,0.1,1.1,0.1,2.1c0,1.3-1.2,1.9-3.1,1.9c-2.5,0-3.2-0.6-3.2-1.9c0-0.8,0.1-2.1,0.1-2.1h-0.3c-0.1,0.6-0.2,1.6-0.2,2.1
		C43.5,136.2,44.8,136.6,47,136.6 M49.3,141.8c1.1,0,1.2-0.6,1.2-1.3l-0.1-2.7h-0.3v2.7c0,0.4-0.1,0.9-0.8,0.9h-2.1l-0.1-3.2h-0.3
		l-0.1,3.2h-2.1c-0.6,0-0.8-0.2-0.8-0.8v-2.8h-0.3l-0.1,2.8c0,0.6,0.3,1.2,1.2,1.2H49.3z M50.1,147.8h-6.2v-2c0-1.3,0.9-2,3.1-2
		c1.4,0,3.1,0.6,3.1,2V147.8z M50.5,148.2v-2.4c0-1.7-1.9-2.4-3.4-2.4c-1.4,0-3.5,0.3-3.5,2.4v2.4H50.5z"/>
	<path fill="#1A171B" d="M34.3,17.3c0.1,0,0.2-0.1,0.2-0.2v-0.2c0-0.1,0-0.1-0.2-0.1h-0.6c-0.1,0-0.2,0-0.2,0.1v0.2
		c0,0.1,0.1,0.2,0.2,0.2H34.3z M34.5,23.6v-0.4h-6.2l6.2-3.9V19h-7v0.4h6.2l-6.2,3.9v0.4H34.5z M34.5,29.9v-0.4h-3.2v-3.8h3.2v-0.4
		h-7v0.4h3.4v3.8h-3.4v0.4H34.5z M31,35.8c2,0,3.6-0.5,3.6-2.2c0-0.5-0.1-1.4-0.2-2.1h-0.3c0,0,0.1,1.1,0.1,2.1
		c0,1.3-1.2,1.9-3.1,1.9c-2.5,0-3.2-0.6-3.2-1.9c0-0.8,0.1-2.1,0.1-2.1h-0.3c-0.1,0.6-0.2,1.6-0.2,2.1C27.5,35.4,28.8,35.8,31,35.8
		 M29.8,41.4c0.8,0,1.5-0.2,1.5-1.6v-1.1c0-0.8,0.4-1.1,1.1-1.1H33c1,0,1.2,0.8,1.2,1.4c0,0.9,0,1.8-0.1,2.2h0.3
		c0.1-0.4,0.2-1.8,0.2-2.2c0-0.9-0.2-1.8-1.6-1.8h-0.6c-0.8,0-1.5,0.2-1.5,1.5v1.1c0,0.7-0.1,1.2-1.1,1.2h-0.6
		c-1.1,0-1.3-0.6-1.3-1.4c0,0,0-1.5,0.1-2.1h-0.3c-0.1,0.4-0.2,1.6-0.2,2.1c0,1,0.3,1.8,1.7,1.8H29.8z M34.5,47.5v-0.4h-3.2v-3.8
		h3.2v-0.4h-7v0.4h3.4v3.8h-3.4v0.4H34.5z M31,53.3c2,0,3.6-0.5,3.6-2.2c0-0.5-0.1-1.4-0.2-2.1h-0.3c0,0,0.1,1.1,0.1,2.1
		c0,1.3-1.2,1.9-3.1,1.9c-2.5,0-3.2-0.6-3.2-1.9c0-0.8,0.1-2.1,0.1-2.1h-0.3c-0.1,0.6-0.2,1.6-0.2,2.1C27.5,52.9,28.8,53.3,31,53.3
		 M31.1,58.5h-3.2v-2.3c0-0.6,0.2-1.2,1.6-1.2c1.4,0,1.6,0.6,1.6,1.2V58.5z M34.5,58.9v-0.4h-3.1c0,0,0.1-1.8,0.1-2.1l3-1.5v-0.4
		l-3,1.5c0-0.5-0.2-1.4-2-1.4c-1.7,0-2,0.8-2,1.6v2.7H34.5z M31.4,65.3c3.1,0,3.1-1.2,3.1-2.4c0-1.1,0-2.4-3.1-2.4h-3.9v0.4h3.9
		c2.6,0,2.7,0.9,2.7,2c0,1.2,0,2-2.7,2h-3.9v0.4H31.4z M34.1,71.3h-6.2v-2c0-1.3,0.9-2,3.1-2c1.4,0,3.1,0.6,3.1,2V71.3z M34.5,71.7
		v-2.4c0-1.7-1.9-2.4-3.4-2.4c-1.4,0-3.5,0.3-3.5,2.4v2.4H34.5z M34.1,80.8h-6.2v-2c0-1.3,0.9-2,3.1-2c1.4,0,3.1,0.6,3.1,2V80.8z
		 M34.5,81.2v-2.4c0-1.7-1.9-2.4-3.4-2.4c-1.4,0-3.5,0.3-3.5,2.4v2.4H34.5z M34.5,87.6v-0.4h-6.2l6.2-3.9v-0.4h-7v0.4h6.2l-6.2,3.9
		v0.4H34.5z M31.4,94.1c3.1,0,3.1-1.2,3.1-2.4c0-1.1,0-2.4-3.1-2.4h-3.9v0.4h3.9c2.6,0,2.7,0.9,2.7,2c0,1.2,0,2-2.7,2h-3.9v0.4H31.4
		z M33.3,102.8c1.1,0,1.2-0.6,1.2-1.3l-0.1-2.7h-0.3v2.7c0,0.4-0.1,0.9-0.8,0.9h-2.1l-0.1-3.2h-0.3l-0.1,3.2h-2.1
		c-0.6,0-0.8-0.2-0.8-0.8v-2.8h-0.3l-0.1,2.8c0,0.6,0.3,1.2,1.2,1.2H33.3z M33.3,108.2c1.1,0,1.2-0.6,1.2-1.3v-2.6h-0.4v2.6
		c0,0.4-0.1,0.9-0.8,0.9h-5.8v0.4H33.3z M33.3,113.5c1.1,0,1.2-0.6,1.2-1.3v-2.6h-0.4v2.6c0,0.4-0.1,0.9-0.8,0.9h-5.8v0.4H33.3z
		 M31.9,118.8l-3.8-1.4l3.8-1.3V118.8z M34.5,120.2v-0.4l-2.2-0.8V116l2.2-0.8v-0.4l-7,2.4v0.4L34.5,120.2z M26.6,116.6
		c0.2,0,0.3-0.1,0.3-0.3c0-0.1-0.1-0.3-0.3-0.3c-0.2,0-0.3,0.1-0.3,0.3C26.4,116.4,26.5,116.6,26.6,116.6 M26.6,118.9
		c0.2,0,0.3-0.1,0.3-0.3c0-0.1-0.1-0.3-0.3-0.3c-0.2,0-0.3,0.1-0.3,0.3C26.4,118.8,26.5,118.9,26.6,118.9 M34.5,124.8v-0.4h-3.2
		l-0.1-3.2h-0.3l-0.1,3.2h-2.1c-0.6,0-0.8-0.2-0.8-0.8v-2.8h-0.3l-0.1,2.8c0,0.6,0.3,1.2,1.2,1.2H34.5z M33.3,133.3
		c1.1,0,1.2-0.6,1.2-1.3v-2.6h-0.4v2.6c0,0.4-0.1,0.9-0.8,0.9h-5.8v0.4H33.3z M34.5,139.6v-0.4h-3.2v-3.8h3.2v-0.4h-7v0.4h3.4v3.8
		h-3.4v0.4H34.5z M31.9,145l-3.8-1.4l3.8-1.3V145z M34.5,146.4V146l-2.2-0.8v-2.9l2.2-0.8V141l-7,2.4v0.4L34.5,146.4z M34.5,152.1
		v-4.4h-0.4v3.9l-6.2-3.9h-0.4v4.4h0.4v-3.9l6.2,3.9H34.5z M34.5,158.1v-0.4h-6.2l6.2-3.9v-0.4h-7v0.4h6.2l-6.2,3.9v0.4H34.5z
		 M31.9,163.6l-3.8-1.4l3.8-1.3V163.6z M34.5,164.9v-0.4l-2.2-0.8v-2.9l2.2-0.8v-0.4l-7,2.4v0.4L34.5,164.9z"/>
	<path fill="#1A171B" d="M88.9,149.4h2L89,152v0.6h2.7c0,0,0-0.6,0-0.6h-1.9l1.9-2.5v-0.6h-2.8V149.4z M85.7,152.6h0.6v-2.7
		c0.5-0.3,0.7-0.4,1.3-0.4c0.2,0,0.4,0,0.5,0v-0.6c-0.1,0-0.3-0.1-0.5-0.1c-0.5,0-0.9,0.3-1.3,0.5l-0.2-0.5h-0.5V152.6z M81.5,151.4
		c0,0.6,0.4,1.2,1.1,1.2c0.6,0,0.9-0.2,1.3-0.5l0.2,0.4h0.5v-3.7H84v2.8c-0.5,0.3-0.7,0.4-1.2,0.4c-0.3,0-0.6-0.2-0.6-0.6v-2.6h-0.6
		V151.4z M77.4,152.6H78v-2.3h0.5l1.5,2.3h0.8l-1.7-2.6l1.7-2.6H80l-1.5,2.3H78v-2.3h-0.6V152.6z"/>
	<path fill="#1A171B" d="M118.9,148.5l1.1-0.3v4.4h0.6v-5.1H120l-1.1,0.6V148.5z M115.5,151.7c0,0.8,0.5,0.9,1,0.9h2.1v-0.6h-2
		c-0.2,0-0.4,0-0.4-0.4v-4.1h-0.6V151.7z M110.4,152.6h0.6v-3.9l2.5,3.9h0.6v-5.1h-0.6v3.9l-2.5-3.9h-0.7V152.6z"/>
	<path fill="#1A171B" d="M149.5,148l2,0c0.6,0,0.9,0.4,0.9,0.9c0,1.1-2.1,2.6-2.9,3.1v0.6h3.5v-0.6h-2.3c0.5-0.4,2.3-1.8,2.3-3.1
		c0-0.8-0.4-1.5-1.4-1.5c-0.8,0-1.4,0.1-2.1,0.1V148z M145.6,151.7c0,0.8,0.5,0.9,1,0.9h2.1v-0.6h-2c-0.2,0-0.4,0-0.4-0.4v-4.1h-0.6
		V151.7z M140.5,152.6h0.6v-3.9l2.5,3.9h0.6v-5.1h-0.6v3.9l-2.5-3.9h-0.7V152.6z"/>
	<path fill="#1A171B" d="M180.7,148h2.1c0.4,0,0.7,0.2,0.7,0.6v0.4c0,0.4-0.2,0.6-0.7,0.6l-1.6,0.1v0.5l1.6,0c0.4,0,0.7,0.2,0.7,0.7
		v0.4c0,0.6-0.3,0.6-0.7,0.6h-2l0,0.4c0.6,0.2,1.3,0.2,2.1,0.2c0.9,0,1.3-0.4,1.3-1.2V151c0-0.5-0.2-0.8-0.5-1
		c0.3-0.1,0.5-0.5,0.5-1v-0.5c0-0.7-0.4-1.2-1.2-1.2c-0.8,0-1.6,0-2.2,0.2V148z M176.8,151.7c0,0.8,0.5,0.9,1,0.9h2.1v-0.6h-2
		c-0.2,0-0.4,0-0.4-0.4v-4.1h-0.6V151.7z M171.7,152.6h0.6v-3.9l2.5,3.9h0.6v-5.1h-0.6v3.9l-2.5-3.9h-0.7V152.6z"/>
	<path fill="#1A171B" d="M211.6,151l0.2,0.3h2.5v1.2h0.6v-1.2l0.6-0.1v-0.5H215v-1.9h-0.4l-0.2,0.5v1.4h-1.8l1.9-3.2h-0.7L211.6,151
		z M208,151.7c0,0.8,0.5,0.9,1,0.9h2.1v-0.6h-2c-0.2,0-0.4,0-0.4-0.4v-4.1H208V151.7z M203,152.6h0.6v-3.9l2.5,3.9h0.6v-5.1h-0.6
		v3.9l-2.5-3.9H203V152.6z"/>
	<path fill="#1A171B" d="M245.4,150.2c0-0.4,0.1-0.7,0.6-0.7h0.6c0.5,0,0.6,0.3,0.6,0.7c0,0.3-0.1,0.8-0.6,0.8H246
		C245.5,150.9,245.4,150.5,245.4,150.2z M245.4,153.3v-0.9c0,0,0.1,0,0.3,0h1.2c0.4,0,0.4,0.1,0.4,0.4v0.4c0,0.3-0.1,0.5-0.5,0.5
		H246C245.7,153.9,245.4,153.8,245.4,153.3 M244.8,151.8c0,0.2,0.1,0.5,0.3,0.6l-0.3,0.4v0.6c0,0.7,0.5,1.1,1.1,1.1h1.1
		c0.9,0,1.1-0.6,1.1-1.1v-0.4c0-0.6-0.4-1-1-1h-1.4c-0.2,0-0.3,0-0.3-0.2s0.2-0.2,0.3-0.2h1c1,0,1.2-0.9,1.2-1.3
		c0-0.5-0.1-0.6-0.2-0.8l0.5-0.1v-0.4l-2.2,0c-0.8,0-1.2,0.4-1.2,1.3c0,0.4,0.1,0.8,0.4,1C244.9,151.2,244.8,151.5,244.8,151.8
		 M240.7,152.6h0.6v-2.8c0.5-0.2,0.7-0.4,1.2-0.4c0.3,0,0.6,0.2,0.6,0.6v2.6h0.6V150c0-0.6-0.4-1.2-1.1-1.2c-0.6,0-0.9,0.2-1.3,0.5
		l-0.2-0.4h-0.5V152.6z M237.3,151.6v-0.3c0-0.2,0.1-0.4,0.4-0.4l1.4-0.1v0.9c0,0-0.8,0.3-1.4,0.3
		C237.5,152,237.3,151.9,237.3,151.6 M236.6,151.7c0,0.6,0.4,0.9,1,0.9c0.6,0,1.4-0.5,1.4-0.5l0.2,0.4h0.5v-2.7
		c0-0.8-0.5-1.1-1.1-1.1c-0.7,0-1.3,0.1-1.8,0.2v0.4c0.6,0,1.3-0.1,1.7-0.1c0.3,0,0.6,0.1,0.6,0.5c0,0,0,0.4,0,0.4c0,0-1.4,0-1.4,0
		c-0.6,0-1,0.4-1,1V151.7z M232.7,151.7c0,0.8,0.5,0.9,1,0.9h2.1v-0.6h-2c-0.2,0-0.4,0-0.4-0.4v-4.1h-0.6V151.7z"/>
	<path fill="#A7A7A7" d="M104,67.2l0.5,0c0,1.6,1.2,1.7,1.7,1.7c0.7,0,1.3-0.1,1.9-0.3V68c0,0-1,0.2-1.6,0.2c-0.5,0-1-0.1-1-0.9
		c0,0,1.6,0,1.6,0v-0.5l-1.6,0v-0.5l1.6,0v-0.5l-1.6,0c0-0.6,0-1,1-1c0.6,0,1.6,0.1,1.6,0.1V64c-0.6-0.2-1.5-0.2-1.8-0.2
		c-1.7,0-1.7,1.3-1.7,1.8l-0.5,0.1v0.5l0.5,0.1v0.5l-0.5,0V67.2z M100.5,65l1-0.3v3.3h-1v0.8h3v-0.8h-1v-4.3h-1l-1,0.6V65z
		 M95.8,64.7h1.9c0.4,0,0.7,0.1,0.7,0.5v0.3c0,0.4-0.2,0.5-0.7,0.5L96.2,66v0.8l1.4,0c0.4,0,0.7,0.1,0.7,0.5v0.2
		c0,0.4-0.3,0.5-0.7,0.5h-1.8l0,0.7C96.4,69,97.2,69,98,69c0.9,0,1.3-0.4,1.3-1.3v-0.3c0-0.5-0.2-0.9-0.5-1c0.4-0.1,0.5-0.5,0.5-1
		V65c0-0.7-0.5-1.2-1.3-1.2c-0.8,0-1.6,0-2.3,0.2V64.7z M91.8,65l1-0.3v3.3h-1v0.8h3v-0.8h-1v-4.3h-1l-1,0.6V65z"/>
	<path fill="#A7A7A7" d="M167.4,50.9l0.5,0c0,1.6,1.2,1.7,1.7,1.7c0.7,0,1.3-0.1,1.9-0.3v-0.7c0,0-1,0.2-1.6,0.2c-0.5,0-1-0.1-1-0.9
		c0,0,1.6,0,1.6,0v-0.5l-1.6,0v-0.5l1.6,0v-0.5l-1.6,0c0-0.6,0-1,1-1c0.6,0,1.6,0.1,1.6,0.1v-0.7c-0.6-0.2-1.5-0.2-1.8-0.2
		c-1.7,0-1.7,1.3-1.7,1.8l-0.5,0.1v0.5l0.5,0.1v0.5l-0.5,0V50.9z M164,50.4l1.2,0c0.3,0,0.4,0.1,0.4,0.4v0.5c0,0.4-0.2,0.4-0.4,0.4
		h-0.5C164.1,51.8,164,51.1,164,50.4L164,50.4z M163,50c0,2.2,0.5,2.7,1.4,2.7h1c0.7,0,1.2-0.3,1.2-1.2v-0.8c0-0.7-0.2-1.2-1.2-1.2
		c-0.6,0-1,0-1.4,0.1c0-0.5,0.1-1.3,0.7-1.3h1.8v-0.7c-0.7-0.1-1.5-0.2-2.2-0.1C163.6,47.6,163,48.1,163,50L163,50z M158.5,48.4
		l1.8,0c0.6,0,0.9,0.2,0.9,0.7c0,0.8-2,2.3-2.6,2.7v0.9h3.6v-0.9h-1.9c0.5-0.4,1.9-1.6,1.9-2.7c0-0.9-0.5-1.6-1.5-1.6
		c-0.9,0-1.5,0.1-2.1,0.2V48.4z M154.2,52.5c0.9,0.2,1.3,0.2,2.2,0.2c0.6,0,1.3-0.3,1.3-1.3v-0.7c0-0.7-0.3-1.2-1.2-1.3
		c-0.1,0-0.5,0-0.8,0c-0.2,0-0.3,0.1-0.5,0.2l0.1-1.2h2.2v-0.9h-3.1l-0.2,3.2h0.9c0-0.3,0.2-0.4,0.4-0.4h0.7c0.4,0,0.5,0.3,0.5,0.5
		v0.5c0,0.2-0.1,0.5-0.5,0.5h-2V52.5z"/>
	<path fill="#A7A7A7" d="M198.7,81.3l0.5,0c0,1.6,1.2,1.7,1.7,1.7c0.7,0,1.3-0.1,1.9-0.3v-0.7c0,0-1,0.2-1.6,0.2c-0.5,0-1-0.1-1-0.9
		c0,0,1.6,0,1.6,0v-0.5l-1.6,0v-0.5l1.6,0v-0.5l-1.6,0c0-0.6,0-1,1-1c0.6,0,1.6,0.1,1.6,0.1v-0.7c-0.6-0.2-1.5-0.2-1.8-0.2
		c-1.7,0-1.7,1.3-1.7,1.8l-0.5,0.1v0.5l0.5,0.1v0.5l-0.5,0V81.3z M194.4,78.8h1.9c0.4,0,0.7,0.1,0.7,0.5v0.3c0,0.4-0.2,0.5-0.7,0.5
		l-1.4,0.1v0.8l1.4,0c0.4,0,0.7,0.1,0.7,0.5v0.2c0,0.4-0.2,0.5-0.7,0.5h-1.8l0,0.7c0.6,0.2,1.4,0.2,2.2,0.2c0.9,0,1.3-0.4,1.3-1.3
		v-0.3c0-0.5-0.2-0.9-0.5-1c0.4-0.1,0.5-0.5,0.5-1v-0.4c0-0.7-0.5-1.2-1.3-1.2c-0.8,0-1.6,0-2.3,0.2V78.8z M190.9,79.6v-0.3
		c0-0.5,0.2-0.5,0.5-0.5h0.7c0.3,0,0.5,0.1,0.5,0.5v0.3c0,0.2-0.1,0.4-0.5,0.4h-0.7C191.2,80.1,190.9,80,190.9,79.6 M190.9,81.8
		v-0.5c0-0.3,0.2-0.4,0.5-0.4h0.7c0.3,0,0.4,0.2,0.4,0.4v0.5c0,0.3-0.2,0.4-0.5,0.4h-0.7C191.1,82.2,190.9,82.1,190.9,81.8
		 M189.9,81.9c0,0.4,0,1.2,1.3,1.2h1.1c0.6,0,1.2-0.2,1.2-1.2v-0.6c0-0.3-0.1-0.9-0.5-1c0.5-0.1,0.5-0.6,0.5-0.8v-0.4
		c0-0.9-0.4-1.2-1.2-1.2h-1.1c-0.7,0-1.3,0.2-1.3,1.2v0.5c0,0.4,0.1,0.8,0.6,1c-0.3,0.1-0.6,0.4-0.6,0.8V81.9z M185.9,79.2l1-0.3
		v3.3h-1v0.8h3v-0.8h-1V78h-1l-1,0.6V79.2z M183,81.5h2.2v-0.8H183V81.5z"/>
	<path fill="#A7A7A7" d="M245.9,96.9l0.5,0c0,1.6,1.2,1.7,1.7,1.7c0.7,0,1.3-0.1,1.9-0.3v-0.7c0,0-1,0.2-1.6,0.2c-0.5,0-1-0.1-1-0.9
		c0,0,1.6,0,1.6,0v-0.5l-1.6,0v-0.5l1.6,0v-0.5l-1.6,0c0-0.6,0-1,1-1c0.6,0,1.6,0.1,1.6,0.1v-0.7c-0.6-0.2-1.5-0.2-1.8-0.2
		c-1.7,0-1.7,1.3-1.7,1.8l-0.5,0.1v0.5l0.5,0.1v0.5l-0.5,0V96.9z M241.6,94.4h1.9c0.4,0,0.7,0.1,0.7,0.5v0.3c0,0.4-0.2,0.5-0.7,0.5
		l-1.4,0.1v0.8l1.4,0c0.4,0,0.7,0.1,0.7,0.5v0.2c0,0.4-0.2,0.5-0.7,0.5h-1.8l0,0.7c0.6,0.2,1.4,0.2,2.2,0.2c0.9,0,1.3-0.4,1.3-1.3
		v-0.3c0-0.5-0.2-0.9-0.5-1c0.4-0.1,0.5-0.5,0.5-1v-0.4c0-0.7-0.5-1.2-1.3-1.2c-0.8,0-1.6,0-2.3,0.2V94.4z M237.6,94.8l1-0.3v3.3h-1
		v0.8h3v-0.8h-1v-4.3h-1l-1,0.6V94.8z M233.9,95.3v-0.5c0-0.4,0.2-0.4,0.4-0.4h0.5c0.6,0,0.7,0.6,0.7,1.3l-1.2,0
		C234,95.8,233.9,95.7,233.9,95.3L233.9,95.3z M232.9,95.4c0,0.7,0.2,1.2,1.2,1.2c0.6,0,1,0,1.4-0.1c0,0.5-0.1,1.3-0.7,1.3h-1.8v0.7
		c0.7,0.1,1.5,0.2,2.2,0.1c0.6-0.1,1.2-0.6,1.2-2.5c0-2.2-0.5-2.7-1.4-2.7h-1c-0.7,0-1.2,0.3-1.2,1.2V95.4z M230,97h2.2v-0.8H230V97
		z"/>
	<path fill="#A7A7A7" d="M215.1,129.4l0.5,0c0,1.6,1.2,1.7,1.7,1.7c0.7,0,1.3-0.1,1.9-0.3v-0.7c0,0-1,0.2-1.6,0.2
		c-0.5,0-1-0.1-1-0.9c0,0,1.6,0,1.6,0v-0.5l-1.6,0v-0.5l1.6,0v-0.5l-1.6,0c0-0.6,0-1,1-1c0.6,0,1.6,0.1,1.6,0.1v-0.7
		c-0.6-0.2-1.5-0.2-1.8-0.2c-1.7,0-1.7,1.3-1.7,1.8l-0.5,0.1v0.5l0.5,0.1v0.5l-0.5,0V129.4z M210.9,131c0.9,0.2,1.3,0.2,2.2,0.2
		c0.6,0,1.3-0.3,1.3-1.3v-0.7c0-0.7-0.3-1.2-1.2-1.3c-0.1,0-0.5,0-0.8,0c-0.2,0-0.3,0.1-0.5,0.2l0.1-1.2h2.2V126h-3.1l-0.2,3.2h0.9
		c0-0.3,0.2-0.4,0.4-0.4h0.7c0.4,0,0.5,0.3,0.5,0.5v0.5c0,0.2-0.1,0.5-0.5,0.5h-2V131z M206,129.6l0.2,0.5h2.4v1.1h1V130l0.5-0.2
		v-0.8h-0.5v-1.7h-0.8l-0.2,0.5v1.2h-1.3l1.5-3.1h-1.1L206,129.6z M201.3,129.6l0.2,0.5h2.4v1.1h1V130l0.5-0.2v-0.8h-0.5v-1.7h-0.8
		l-0.2,0.5v1.2h-1.3l1.5-3.1h-1.1L201.3,129.6z M199.6,131c0,0.1,0.1,0.2,0.2,0.2h0.6c0.1,0,0.2,0,0.2-0.2v-0.6c0-0.1,0-0.2-0.2-0.2
		h-0.6c-0.1,0-0.2,0.1-0.2,0.2V131z M195.5,127.3l1-0.3v3.3h-1v0.8h3v-0.8h-1V126h-1l-1,0.6V127.3z M192.6,129.5h2.2v-0.8h-2.2
		V129.5z"/>
	<path fill="#A7A7A7" d="M143.2,33.4l0.5,0c0,1.6,1.2,1.7,1.7,1.7c0.7,0,1.3-0.1,1.9-0.3v-0.7c0,0-1,0.2-1.6,0.2c-0.5,0-1-0.1-1-0.9
		c0,0,1.6,0,1.6,0v-0.5l-1.6,0v-0.5l1.6,0v-0.5l-1.6,0c0-0.6,0-1,1-1c0.6,0,1.6,0.1,1.6,0.1v-0.7c-0.6-0.2-1.5-0.2-1.8-0.2
		c-1.7,0-1.7,1.3-1.7,1.8l-0.5,0.1v0.5l0.5,0.1v0.5l-0.5,0V33.4z M139.7,33.7v-2.3c0-0.2,0.1-0.5,0.5-0.5h0.7c0.3,0,0.5,0.2,0.5,0.5
		v2.3c0,0.4-0.2,0.5-0.5,0.5h-0.7C140,34.2,139.7,34.1,139.7,33.7 M138.8,33.9c0,0.8,0.5,1.2,1.3,1.2h1.1c0.8,0,1.2-0.4,1.2-1.2
		v-2.6c0-0.7-0.3-1.2-1.2-1.2H140c-0.8,0-1.3,0.4-1.3,1.3V33.9z M134.3,30.9h1.9c0.4,0,0.7,0.1,0.7,0.5v0.3c0,0.4-0.2,0.5-0.7,0.5
		l-1.4,0.1V33l1.4,0c0.4,0,0.7,0.1,0.7,0.5v0.2c0,0.4-0.2,0.5-0.7,0.5h-1.8l0,0.7c0.6,0.2,1.4,0.2,2.2,0.2c0.9,0,1.3-0.4,1.3-1.3
		v-0.3c0-0.5-0.2-0.9-0.5-1c0.4-0.1,0.5-0.5,0.5-1v-0.4c0-0.7-0.5-1.2-1.3-1.2c-0.8,0-1.6,0-2.3,0.2V30.9z M130.3,31.2l1-0.3v3.3h-1
		v0.8h3v-0.8h-1V30h-1l-1,0.6V31.2z M128.1,35c0,0.1,0.1,0.2,0.2,0.2h0.6c0.1,0,0.2,0,0.2-0.2v-0.6c0-0.1,0-0.2-0.2-0.2h-0.6
		c-0.1,0-0.2,0.1-0.2,0.2V35z M124,31.2l1-0.3v3.3h-1v0.8h3v-0.8h-1V30h-1l-1,0.6V31.2z"/>
</g>
<polyline fill="none" stroke="#A7A7A7" stroke-width="1.5" stroke-linecap="round" stroke-linejoin="round" points="84.8,67.3 
	116,36.1 147.3,56.6 178.3,79.9 209.5,119.1 240.3,101.3 "/>
<g>
	<path fill="#A7A7A7" d="M119.5,165.5v-1.2h1.1c0.2,0,0.5,0.1,0.5,0.6c0,0.4-0.2,0.6-0.5,0.6H119.5z M119.5,167.7v-1.4h1.1
		c0.4,0,0.6,0.3,0.6,0.7c0,0.5-0.3,0.7-0.6,0.7H119.5z M118.5,168.6h2.1c1.1,0,1.5-0.6,1.5-1.5c0-0.7-0.4-1.1-0.8-1.2
		c0.5-0.1,0.7-0.6,0.7-1.1c0-0.7-0.4-1.4-1.4-1.4h-2.1V168.6z M114.6,167.7v-3.4h1.1c0.5,0,0.9,0.3,0.9,1.7c0,1-0.2,1.7-0.9,1.7
		H114.6z M113.6,168.6h2.2c1.3,0,1.8-1,1.8-2.5c0-1.3-0.3-2.6-1.8-2.6h-2.2V168.6z"/>
	<path fill="#9C2F3A" d="M93.1,166.4c0-0.8,0.2-0.8,0.7-0.8c0.5,0,0.5,0.1,0.5,0.6c0,0.2-0.1,0.3-0.3,0.3H93.1z M92.1,166.7
		c0,1.4,0.3,1.9,1.2,1.9c0.6,0,1.4,0,1.9-0.2v-0.7c-0.5,0.1-0.8,0.1-1.4,0.1c-0.5,0-0.8,0-0.8-0.7h1.2c0.7,0,1-0.3,1-0.9
		c0-1.2-0.5-1.4-1.6-1.4C92.5,164.8,92.1,165.1,92.1,166.7 M89.7,167.2c0,1,0.4,1.3,1,1.3h0.8V168c0,0-0.5-0.1-0.5-0.1
		c-0.2-0.1-0.3-0.2-0.3-0.7v-4h-1V167.2z M87.2,167.2c0,1,0.4,1.3,1,1.3H89V168c0,0-0.5-0.1-0.5-0.1c-0.2-0.1-0.3-0.2-0.3-0.7v-4h-1
		V167.2z M84.1,167.5v-0.2c0-0.2,0-0.4,0.3-0.4l0.9-0.1v0.7c0,0-0.4,0.3-0.9,0.3C84.3,167.8,84.1,167.8,84.1,167.5 M83.2,167.6
		c0,0.5,0.3,1,1,1c0.6,0,1.1-0.4,1.1-0.4l0.2,0.4h0.8V166c0-0.9-0.5-1.2-1.3-1.2c-0.7,0-1.2,0.1-1.7,0.2v0.6c0.3,0,1.2-0.1,1.6-0.1
		c0.3,0,0.5,0.1,0.5,0.5c0,0,0,0.2,0,0.2c0,0-1.1,0-1.1,0c-0.8,0-1.1,0.5-1.1,1V167.6z M85.3,163.9c0,0.2,0.2,0.4,0.4,0.4
		c0.2,0,0.4-0.2,0.4-0.4c0-0.2-0.2-0.4-0.4-0.4C85.5,163.5,85.3,163.7,85.3,163.9 M83.5,163.9c0,0.2,0.2,0.4,0.4,0.4
		c0.2,0,0.4-0.2,0.4-0.4c0-0.2-0.2-0.4-0.4-0.4C83.7,163.5,83.5,163.7,83.5,163.9 M79.2,168.6h1v-2.1l2.1-0.1v-0.8l-2.1-0.1v-0.8
		c0-0.2,0-0.4,0.4-0.4l2,0v-0.8c-0.5-0.1-2.3-0.1-2.3-0.1c-0.5,0-1.1,0.2-1.1,1.1V168.6z"/>
	<path fill="#1A171B" d="M253.1,164v-3.2h2.3c0.6,0,1.2,0.2,1.2,1.6c0,1.4-0.6,1.6-1.2,1.6H253.1z M252.7,167.4h0.4v-3.1
		c0,0,1.8,0.1,2.1,0.1l1.5,3h0.4l-1.5-3c0.5,0,1.4-0.2,1.4-2c0-1.7-0.8-2-1.6-2h-2.7V167.4z M247.3,166.3c0,1.1,0.6,1.2,1.3,1.2
		l2.7-0.1v-0.3h-2.7c-0.4,0-0.9-0.1-0.9-0.8v-2.1l3.2-0.1v-0.3l-3.2-0.1v-2.1c0-0.6,0.2-0.8,0.8-0.8h2.8v-0.3l-2.8-0.1
		c-0.6,0-1.2,0.3-1.2,1.2V166.3z M241.1,160.9h2.2v6.6h0.4v-6.6h2.2v-0.4h-4.7V160.9z M235.6,162.8c0,0.8,0.2,1.5,1.6,1.5h1.1
		c0.8,0,1.1,0.4,1.1,1.1v0.6c0,1-0.8,1.2-1.4,1.2c-0.9,0-1.8,0-2.2-0.1v0.3c0.4,0.1,1.8,0.2,2.2,0.2c0.9,0,1.8-0.2,1.8-1.6v-0.6
		c0-0.8-0.2-1.5-1.5-1.5h-1.1c-0.7,0-1.2-0.1-1.2-1.1v-0.6c0-1.1,0.6-1.3,1.4-1.3c0,0,1.5,0,2.1,0.1v-0.3c-0.4-0.1-1.6-0.2-2.1-0.2
		c-1,0-1.8,0.3-1.8,1.7V162.8z M229.3,164.4c0,3.1,1.2,3.1,2.4,3.1c1.1,0,2.4,0,2.4-3.1v-3.9h-0.4v3.9c0,2.6-0.9,2.7-2,2.7
		c-1.2,0-2,0-2-2.7v-3.9h-0.4V164.4z M224.1,166.3c0,1.1,0.6,1.2,1.3,1.2h2.6v-0.4h-2.6c-0.4,0-0.9-0.1-0.9-0.8v-5.8h-0.4V166.3z
		 M218.2,164c0,2,0.5,3.6,2.2,3.6c0.5,0,1.4-0.1,2.1-0.2V167c0,0-1.1,0.1-2.1,0.1c-1.3,0-1.9-1.2-1.9-3.1c0-2.5,0.6-3.2,1.9-3.2
		c0.8,0,2.1,0.1,2.1,0.1v-0.3c-0.6-0.1-1.6-0.2-2.1-0.2C218.6,160.4,218.2,161.8,218.2,164 M214.1,164.9h2.7v-0.4h-2.7V164.9z
		 M209.1,164v-3.2h2.3c0.6,0,1.2,0.2,1.2,1.6c0,1.4-0.6,1.6-1.2,1.6H209.1z M208.7,167.4h0.4v-3.1c0,0,1.8,0.1,2.1,0.1l1.5,3h0.4
		l-1.5-3c0.5,0,1.4-0.2,1.4-2c0-1.7-0.8-2-1.6-2h-2.7V167.4z M203.3,166.3c0,1.1,0.6,1.2,1.3,1.2l2.7-0.1v-0.3h-2.7
		c-0.4,0-0.9-0.1-0.9-0.8v-2.1l3.2-0.1v-0.3l-3.2-0.1v-2.1c0-0.6,0.2-0.8,0.8-0.8h2.8v-0.3l-2.8-0.1c-0.6,0-1.2,0.3-1.2,1.2V166.3z
		 M196.7,164.4c0,3.1,1.2,3.1,2.4,3.1c1.1,0,2.4,0,2.4-3.1v-3.9h-0.4v3.9c0,2.6-0.9,2.7-2,2.7c-1.2,0-2,0-2-2.7v-3.9h-0.4V164.4z
		 M191.5,164.8l1.4-3.8l1.3,3.8H191.5z M190.1,167.4h0.4l0.8-2.2h2.9l0.8,2.2h0.4l-2.4-7h-0.4L190.1,167.4z M184.7,167v-6.2h2
		c1.3,0,2,0.9,2,3.1c0,1.4-0.6,3.1-2,3.1H184.7z M184.3,167.4h2.4c1.7,0,2.4-1.9,2.4-3.4c0-1.4-0.3-3.5-2.4-3.5h-2.4V167.4z
		 M178.9,166.3c0,1.1,0.6,1.2,1.3,1.2h2.6v-0.4h-2.6c-0.4,0-0.9-0.1-0.9-0.8v-5.8h-0.4V166.3z M176.7,167.4h0.4v-7h-0.4V167.4z
		 M171.1,166.3c0,1.1,0.6,1.2,1.3,1.2l2.7-0.1v-0.3h-2.7c-0.4,0-0.9-0.1-0.9-0.8v-2.1l3.2-0.1v-0.3l-3.2-0.1v-2.1
		c0-0.6,0.2-0.8,0.8-0.8h2.8v-0.3l-2.8-0.1c-0.6,0-1.2,0.3-1.2,1.2V166.3z M161.6,160.5l2.4,7h0.4l1.2-3.7l1.4,3.7h0.4l2.3-7h-0.4
		l-2.1,6.4l-1.4-3.8l0.8-2.6h-0.4l-2.1,6.4l-2.2-6.4H161.6z M156.5,164v-3.2h2.3c0.6,0,1.2,0.2,1.2,1.6c0,1.4-0.6,1.6-1.2,1.6H156.5
		z M156.1,167.4h0.4v-3.1c0,0,1.8,0.1,2.1,0.1l1.5,3h0.4l-1.5-3c0.5,0,1.4-0.2,1.4-2c0-1.7-0.8-2-1.6-2h-2.7V167.4z M150.7,166.3
		c0,1.1,0.6,1.2,1.3,1.2l2.7-0.1v-0.3h-2.7c-0.4,0-0.9-0.1-0.9-0.8v-2.1l3.2-0.1v-0.3l-3.2-0.1v-2.1c0-0.6,0.2-0.8,0.8-0.8h2.8v-0.3
		l-2.8-0.1c-0.6,0-1.2,0.3-1.2,1.2V166.3z M143.9,160.5l2.4,7h0.4l2.5-7h-0.4l-2.3,6.4l-2.2-6.4H143.9z"/>
</g>
</svg>
