<?xml version="1.0" encoding="utf-8"?>
<!-- Generator: Adobe Illustrator 20.1.0, SVG Export Plug-In . SVG Version: 6.00 Build 0)  -->
<svg version="1.1" id="Ebene_1" xmlns="http://www.w3.org/2000/svg" xmlns:xlink="http://www.w3.org/1999/xlink" x="0px" y="0px"
	 viewBox="0 0 283.5 184.3" enable-background="new 0 0 283.5 184.3" xml:space="preserve">
<line fill="none" stroke="#A7A7A7" stroke-dasharray="1.995,1.995" x1="61.3" y1="49.6" x2="61.3" y2="143.3"/>
<line fill="none" stroke="#9C2F3A" stroke-dasharray="1.995,1.995" x1="140.6" y1="49.6" x2="140.6" y2="143.3"/>
<line fill="none" stroke="#A7A7A7" stroke-dasharray="1.995,1.995" x1="219.8" y1="49.6" x2="219.8" y2="143.3"/>
<rect x="39.9" y="95.7" fill="#A7A7A7" width="15.6" height="34"/>
<rect x="24.4" y="78.7" fill="#9C2F3A" width="15.6" height="51"/>
<rect x="82.7" y="81.5" fill="#A7A7A7" width="15.6" height="48.2"/>
<rect x="67.1" y="70.2" fill="#9C2F3A" width="15.6" height="59.5"/>
<rect x="119.2" y="75.8" fill="#A7A7A7" width="15.6" height="53.9"/>
<rect x="103.6" y="64.5" fill="#9C2F3A" width="15.6" height="65.2"/>
<rect x="161.9" y="73" fill="#A7A7A7" width="15.6" height="56.7"/>
<rect x="146.4" y="61.7" fill="#9C2F3A" width="15.6" height="68"/>
<rect x="198.4" y="87.2" fill="#A7A7A7" width="15.6" height="42.5"/>
<rect x="182.9" y="109.8" fill="#9C2F3A" width="15.6" height="19.8"/>
<rect x="241.2" y="81.5" fill="#A7A7A7" width="15.6" height="48.2"/>
<rect x="225.6" y="109.8" fill="#9C2F3A" width="15.6" height="19.8"/>
<line fill="none" stroke="#9C2F3A" stroke-linecap="round" stroke-linejoin="round" stroke-dasharray="0,2.999" x1="23.8" y1="129.5" x2="259.2" y2="129.7"/>
<path fill="none" stroke="#9C2F3A" stroke-linecap="round" stroke-linejoin="round" d="M260.7,129.7L260.7,129.7 M20.8,129.5
	L20.8,129.5"/>
<line fill="none" stroke="#9C2F3A" stroke-linecap="round" stroke-linejoin="round" stroke-dasharray="0,3" x1="261.9" y1="53.3" x2="261.9" y2="159.8"/>
<path fill="none" stroke="#9C2F3A" stroke-linecap="round" stroke-linejoin="round" d="M261.9,161.3L261.9,161.3 M261.9,50.3
	L261.9,50.3"/>
<line fill="none" stroke="#9C2F3A" stroke-linecap="round" stroke-linejoin="round" stroke-dasharray="0,3" x1="19.1" y1="53.3" x2="19.1" y2="159.8"/>
<path fill="none" stroke="#9C2F3A" stroke-linecap="round" stroke-linejoin="round" d="M19.1,161.3L19.1,161.3 M19.1,50.3L19.1,50.3
	"/>
<g>
	<defs>
		<rect id="SVGID_165_" x="18.7" y="23.5" width="243.8" height="19.8"/>
	</defs>
	<clipPath id="SVGID_1_">
		<use xlink:href="#SVGID_165_"  overflow="visible"/>
	</clipPath>
	
		<linearGradient id="SVGID_3_" gradientUnits="userSpaceOnUse" x1="1369.3596" y1="-954.6984" x2="1370.3596" y2="-954.6984" gradientTransform="matrix(243.7795 0 0 -243.7795 -333803.1562 -232702.5312)">
		<stop  offset="0" style="stop-color:#A7A7A7"/>
		<stop  offset="0.5004" style="stop-color:#9C2F3A"/>
		<stop  offset="1" style="stop-color:#A7A7A7"/>
	</linearGradient>
	<rect x="18.7" y="23.5" clip-path="url(#SVGID_1_)" fill="url(#SVGID_3_)" width="243.8" height="19.8"/>
</g>
<g>
	<path fill="#A7A7A7" d="M54.2,91.1v-0.6c0-0.3,0.1-0.3,0.4-0.3H55c0.2,0,0.3,0.1,0.3,0.3v0.6c0,0.2,0,0.3-0.4,0.3h-0.5
		C54.2,91.4,54.2,91.3,54.2,91.1z M53.5,91.2c0,0.6,0.2,0.9,0.9,0.9h0.7c0.7,0,0.9-0.3,0.9-0.9v-0.9c0-0.6-0.2-0.9-0.9-0.9h-0.7
		c-0.7,0-0.9,0.3-0.9,0.9V91.2z M51,92.1h0.7l3.1-5.1h-0.7L51,92.1z M50.5,88.7v-0.6c0-0.3,0.1-0.3,0.4-0.3h0.5
		c0.2,0,0.3,0.1,0.3,0.3v0.6c0,0.2,0,0.3-0.4,0.3h-0.5C50.5,89,50.5,88.9,50.5,88.7 M49.8,88.8c0,0.6,0.2,0.9,0.9,0.9h0.7
		c0.7,0,0.9-0.3,0.9-0.9v-0.9c0-0.6-0.2-0.9-0.9-0.9h-0.7c-0.7,0-0.9,0.3-0.9,0.9V88.8z M45.3,87.9l1.8,0c0.6,0,0.9,0.2,0.9,0.7
		c0,0.8-2,2.3-2.6,2.7v0.9h3.6v-0.9H47c0.5-0.4,1.9-1.6,1.9-2.7c0-0.9-0.5-1.6-1.5-1.6c-0.9,0-1.5,0.1-2.1,0.2V87.9z M41.4,88.3
		l1-0.3v3.3h-1v0.8h3v-0.8h-1V87h-1l-1,0.6V88.3z"/>
	<path fill="#A7A7A7" d="M96.8,76.9v-0.6c0-0.3,0.1-0.3,0.4-0.3h0.5c0.2,0,0.3,0.1,0.3,0.3v0.6c0,0.2,0,0.3-0.4,0.3h-0.5
		C96.8,77.2,96.8,77.1,96.8,76.9z M96.1,77c0,0.6,0.2,0.9,0.9,0.9h0.7c0.7,0,0.9-0.3,0.9-0.9v-0.9c0-0.6-0.2-0.9-0.9-0.9H97
		c-0.7,0-0.9,0.3-0.9,0.9V77z M93.6,77.9h0.7l3.1-5.1h-0.7L93.6,77.9z M93.1,74.5v-0.6c0-0.3,0.1-0.3,0.4-0.3h0.5
		c0.2,0,0.3,0.1,0.3,0.3v0.6c0,0.2,0,0.3-0.4,0.3h-0.5C93.1,74.8,93.1,74.7,93.1,74.5 M92.4,74.6c0,0.6,0.2,0.9,0.9,0.9H94
		c0.7,0,0.9-0.3,0.9-0.9v-0.9c0-0.6-0.2-0.9-0.9-0.9h-0.7c-0.7,0-0.9,0.3-0.9,0.9V74.6z M88,73.7h2.4l-1.6,4.2h1.1l1.7-4.7l-0.3-0.5
		H88V73.7z M84.3,74l1-0.3v3.3h-1v0.8h3v-0.8h-1v-4.3h-1l-1,0.6V74z"/>
	<path fill="#A7A7A7" d="M133.4,71.3v-0.6c0-0.3,0.1-0.3,0.4-0.3h0.5c0.2,0,0.3,0.1,0.3,0.3v0.6c0,0.2,0,0.3-0.4,0.3h-0.5
		C133.5,71.6,133.4,71.5,133.4,71.3z M132.7,71.4c0,0.6,0.2,0.9,0.9,0.9h0.7c0.7,0,0.9-0.3,0.9-0.9v-0.9c0-0.6-0.2-0.9-0.9-0.9h-0.7
		c-0.7,0-0.9,0.3-0.9,0.9V71.4z M130.3,72.3h0.7l3.1-5.1h-0.7L130.3,72.3z M129.7,68.8v-0.6c0-0.3,0.1-0.3,0.4-0.3h0.5
		c0.2,0,0.3,0.1,0.3,0.3v0.6c0,0.2,0,0.3-0.4,0.3H130C129.8,69.2,129.7,69.1,129.7,68.8 M129,68.9c0,0.6,0.2,0.9,0.9,0.9h0.7
		c0.7,0,0.9-0.3,0.9-0.9v-0.9c0-0.6-0.2-0.9-0.9-0.9H130c-0.7,0-0.9,0.3-0.9,0.9V68.9z M125.6,69v-0.5c0-0.4,0.2-0.4,0.4-0.4h0.5
		c0.6,0,0.7,0.6,0.7,1.3l-1.2,0C125.7,69.4,125.6,69.3,125.6,69L125.6,69z M124.6,69.1c0,0.7,0.2,1.2,1.2,1.2c0.6,0,1,0,1.4-0.1
		c0,0.5-0.1,1.3-0.7,1.3h-1.8v0.7c0.7,0.1,1.5,0.2,2.2,0.1c0.6-0.1,1.2-0.6,1.2-2.5c0-2.2-0.5-2.7-1.4-2.7h-1
		c-0.7,0-1.2,0.3-1.2,1.2V69.1z M120.7,68.4l1-0.3v3.3h-1v0.8h3v-0.8h-1v-4.3h-1l-1,0.6V68.4z"/>
	<path fill="#A7A7A7" d="M178.6,68.1v-0.6c0-0.3,0.1-0.3,0.4-0.3h0.5c0.2,0,0.3,0.1,0.3,0.3v0.6c0,0.2,0,0.3-0.4,0.3h-0.5
		C178.7,68.5,178.6,68.4,178.6,68.1z M177.9,68.3c0,0.6,0.2,0.9,0.9,0.9h0.7c0.7,0,0.9-0.3,0.9-0.9v-0.9c0-0.6-0.2-0.9-0.9-0.9h-0.7
		c-0.7,0-0.9,0.3-0.9,0.9V68.3z M175.4,69.2h0.7l3.1-5.1h-0.7L175.4,69.2z M174.9,65.7v-0.6c0-0.3,0.1-0.3,0.4-0.3h0.5
		c0.2,0,0.3,0.1,0.3,0.3v0.6c0,0.2,0,0.3-0.4,0.3h-0.5C174.9,66.1,174.9,66,174.9,65.7 M174.2,65.8c0,0.6,0.2,0.9,0.9,0.9h0.7
		c0.7,0,0.9-0.3,0.9-0.9V65c0-0.6-0.2-0.9-0.9-0.9h-0.7c-0.7,0-0.9,0.3-0.9,0.9V65.8z M170.7,67.8v-2.3c0-0.2,0.1-0.5,0.5-0.5h0.7
		c0.3,0,0.5,0.2,0.5,0.5v2.3c0,0.4-0.2,0.5-0.5,0.5h-0.7C171,68.3,170.7,68.2,170.7,67.8 M169.7,67.9c0,0.8,0.5,1.2,1.3,1.2h1.1
		c0.8,0,1.2-0.4,1.2-1.2v-2.6c0-0.7-0.3-1.2-1.2-1.2H171c-0.8,0-1.3,0.4-1.3,1.3V67.9z M165.2,64.9l1.8,0c0.6,0,0.9,0.2,0.9,0.7
		c0,0.8-2,2.3-2.6,2.7v0.9h3.6v-0.9h-1.9c0.5-0.4,1.9-1.6,1.9-2.7c0-0.9-0.5-1.6-1.5-1.6c-0.9,0-1.5,0.1-2.1,0.2V64.9z"/>
	<path fill="#A7A7A7" d="M211.6,82.6V82c0-0.3,0.1-0.3,0.4-0.3h0.5c0.2,0,0.3,0.1,0.3,0.3v0.6c0,0.2,0,0.3-0.4,0.3H212
		C211.7,82.9,211.6,82.8,211.6,82.6z M210.9,82.7c0,0.6,0.2,0.9,0.9,0.9h0.7c0.7,0,0.9-0.3,0.9-0.9v-0.9c0-0.6-0.2-0.9-0.9-0.9h-0.7
		c-0.7,0-0.9,0.3-0.9,0.9V82.7z M208.5,83.6h0.7l3.1-5.1h-0.7L208.5,83.6z M207.9,80.2v-0.6c0-0.3,0.1-0.3,0.4-0.3h0.5
		c0.2,0,0.3,0.1,0.3,0.3v0.6c0,0.2,0,0.3-0.4,0.3h-0.5C208,80.5,207.9,80.4,207.9,80.2 M207.2,80.3c0,0.6,0.2,0.9,0.9,0.9h0.7
		c0.7,0,0.9-0.3,0.9-0.9v-0.9c0-0.6-0.2-0.9-0.9-0.9h-0.7c-0.7,0-0.9,0.3-0.9,0.9V80.3z M203,83.5c0.9,0.2,1.3,0.2,2.2,0.2
		c0.6,0,1.3-0.3,1.3-1.3v-0.7c0-0.7-0.3-1.2-1.2-1.3c-0.1,0-0.5,0-0.8,0c-0.2,0-0.3,0.1-0.5,0.2l0.1-1.2h2.2v-0.9h-3.1l-0.2,3.2h0.9
		c0-0.3,0.2-0.4,0.4-0.4h0.7c0.4,0,0.5,0.3,0.5,0.5v0.5c0,0.2-0.1,0.5-0.5,0.5h-2V83.5z M199,79.8l1-0.3v3.3h-1v0.8h3v-0.8h-1v-4.3
		h-1l-1,0.6V79.8z"/>
	<path fill="#A7A7A7" d="M254.3,76.9v-0.6c0-0.3,0.1-0.3,0.4-0.3h0.5c0.2,0,0.3,0.1,0.3,0.3v0.6c0,0.2,0,0.3-0.4,0.3h-0.5
		C254.4,77.3,254.3,77.2,254.3,76.9z M253.6,77c0,0.6,0.2,0.9,0.9,0.9h0.7c0.7,0,0.9-0.3,0.9-0.9v-0.9c0-0.6-0.2-0.9-0.9-0.9h-0.7
		c-0.7,0-0.9,0.3-0.9,0.9V77z M251.1,78h0.7l3.1-5.1h-0.7L251.1,78z M250.6,74.5v-0.6c0-0.3,0.1-0.3,0.4-0.3h0.5
		c0.2,0,0.3,0.1,0.3,0.3v0.6c0,0.2,0,0.3-0.4,0.3h-0.5C250.7,74.8,250.6,74.7,250.6,74.5 M249.9,74.6c0,0.6,0.2,0.9,0.9,0.9h0.7
		c0.7,0,0.9-0.3,0.9-0.9v-0.9c0-0.6-0.2-0.9-0.9-0.9h-0.7c-0.7,0-0.9,0.3-0.9,0.9V74.6z M245.5,73.8h2.4l-1.6,4.2h1.1l1.7-4.7
		l-0.3-0.5h-3.3V73.8z M241.9,74.1l1-0.3v3.3h-1V78h3v-0.8h-1v-4.3h-1l-1,0.6V74.1z"/>
	<path fill="#1A171B" d="M80.7,161.7h0.5v-2.8c0.5-0.3,0.8-0.4,1.4-0.4c0.2,0,0.4,0,0.5,0V158c-0.1,0-0.3-0.1-0.5-0.1
		c-0.6,0-1,0.3-1.4,0.5l-0.2-0.5h-0.4V161.7z M77.2,159.6c0-1.1,0.3-1.1,1.1-1.1c0.8,0,0.9,0.1,0.9,0.8c0,0.2-0.1,0.3-0.4,0.3H77.2z
		 M76.7,159.8c0,1.5,0.3,1.9,1.2,1.9c0.6,0,1.2,0,1.8-0.2v-0.4c-0.5,0.1-1.1,0.1-1.8,0.1c-0.5,0-0.7-0.2-0.7-1.1h1.6
		c0.7,0,1-0.3,1-0.9c0-1.2-0.5-1.3-1.4-1.3C77.2,157.9,76.7,158.1,76.7,159.8 M72.6,160.5c0,0.6,0.4,1.2,1.1,1.2
		c0.6,0,0.9-0.3,1.4-0.5l0.2,0.4h0.4V158h-0.5v2.9c-0.5,0.3-0.8,0.4-1.4,0.4c-0.4,0-0.6-0.2-0.6-0.7V158h-0.5V160.5z M69.1,160.8
		v-0.4c0-0.2,0.1-0.4,0.4-0.5l1.6-0.1v1c0,0-1,0.4-1.6,0.4C69.2,161.2,69.1,161.1,69.1,160.8 M68.5,160.8c0,0.6,0.4,0.9,0.9,0.9
		c0.6,0,1.5-0.5,1.6-0.5l0.1,0.4h0.4V159c0-0.8-0.5-1.1-1.1-1.1c-0.7,0-1.3,0.1-1.8,0.2v0.4c0.7,0,1.3-0.1,1.8-0.1
		c0.3,0,0.6,0.1,0.6,0.6c0,0,0,0.5,0,0.5c0,0-1.6,0-1.6,0c-0.6,0-0.9,0.4-0.9,0.9V160.8z M65,159.8c0-1.1,0.3-1.4,0.7-1.4
		c0.5,0,0.9,0.1,1.4,0.2v2.3c-0.4,0.2-0.8,0.3-1.4,0.3C65.2,161.2,65,160.7,65,159.8 M64.4,159.8c0,0.9,0.2,1.9,1.2,1.9
		c0.5,0,1.2-0.3,1.4-0.5l0.1,0.4h0.4v-5.5H67v2c-0.4-0.2-1.1-0.3-1.4-0.3C64.6,157.9,64.4,158.9,64.4,159.8 M62.2,160.3
		c0,1,0.4,1.3,0.9,1.3h0.6v-0.4c0,0-0.6-0.1-0.6-0.1c-0.2-0.1-0.4-0.2-0.4-0.8v-4.1h-0.5V160.3z M60.5,161.7h0.5V158h-0.5V161.7z
		 M60.5,157.4c0,0.1,0.1,0.2,0.2,0.2H61c0.1,0,0.2-0.1,0.2-0.2V157c0-0.1-0.1-0.2-0.2-0.2h-0.3c-0.1,0-0.2,0.1-0.2,0.2V157.4z
		 M57.1,159.6c0-1.1,0.3-1.1,1.1-1.1c0.8,0,0.9,0.1,0.9,0.8c0,0.2-0.1,0.3-0.4,0.3H57.1z M56.5,159.8c0,1.5,0.3,1.9,1.2,1.9
		c0.6,0,1.2,0,1.8-0.2v-0.4c-0.5,0.1-1.1,0.1-1.8,0.1c-0.5,0-0.7-0.2-0.7-1.1h1.6c0.7,0,1-0.3,1-0.9c0-1.2-0.5-1.3-1.4-1.3
		C57,157.9,56.5,158.1,56.5,159.8 M50.5,158l1.4,3.7h0.6l0.6-1.8l0.8,1.8h0.5l1.4-3.7h-0.6l-1.1,2.9l-0.8-1.8l0.4-1.2h-0.6l-1,2.9
		l-1.1-2.9H50.5z M47.3,161.7h0.5v-2.8c0.5-0.3,0.8-0.4,1.4-0.4c0.2,0,0.4,0,0.5,0V158c-0.1,0-0.3-0.1-0.5-0.1c-0.6,0-1,0.3-1.4,0.5
		l-0.2-0.5h-0.4V161.7z M43.8,159.6c0-1.1,0.3-1.1,1.1-1.1c0.8,0,0.9,0.1,0.9,0.8c0,0.2-0.1,0.3-0.4,0.3H43.8z M43.3,159.8
		c0,1.5,0.3,1.9,1.2,1.9c0.6,0,1.2,0,1.8-0.2v-0.4c-0.5,0.1-1.1,0.1-1.8,0.1c-0.5,0-0.7-0.2-0.7-1.1h1.6c0.7,0,1-0.3,1-0.9
		c0-1.2-0.5-1.3-1.4-1.3C43.8,157.9,43.3,158.1,43.3,159.8 M39.2,158l1.5,3.7h0.5l1.5-3.7h-0.6l-1.2,2.9l-1.2-2.9H39.2z"/>
	<path fill="#1A171B" d="M82.4,151.9h2.2v-0.5h-2.2V151.9z M79,150.5h2.1l-2,2.7v0.5h2.7c0,0,0-0.5,0-0.5h-2l2-2.7V150H79V150.5z
		 M75.1,153.7h0.5v-2.9c0.5-0.3,0.8-0.4,1.4-0.4c0.4,0,0.6,0.2,0.6,0.7v2.6h0.5v-2.6c0-0.6-0.4-1.2-1.1-1.2c-0.6,0-0.9,0.3-1.4,0.5
		l-0.2-0.4h-0.4V153.7z M71.6,151.6c0-1.1,0.3-1.1,1.1-1.1c0.8,0,0.9,0.1,0.9,0.8c0,0.2-0.1,0.3-0.4,0.3H71.6z M71.1,151.8
		c0,1.5,0.3,1.9,1.2,1.9c0.6,0,1.2,0,1.8-0.2v-0.4c-0.5,0.1-1.1,0.1-1.8,0.1c-0.5,0-0.7-0.2-0.7-1.1h1.6c0.7,0,1-0.3,1-0.9
		c0-1.2-0.5-1.3-1.4-1.3C71.5,149.9,71.1,150.1,71.1,151.8 M67.9,153.7h0.5v-2.8c0.5-0.3,0.8-0.4,1.4-0.4c0.2,0,0.4,0,0.5,0V150
		c-0.1,0-0.3-0.1-0.5-0.1c-0.6,0-1,0.3-1.4,0.5l-0.2-0.5h-0.4V153.7z M63.2,151.1c0,1.5,0.2,2.6,1.7,2.6c0.6,0,1.1-0.2,1.4-0.4
		l0.1,0.3h0.4V151c-0.2,0-0.3,0-0.5,0c-0.6,0-0.9,0.1-1.2,0.2v0.3h1.2v1.4c0,0-0.8,0.3-1.3,0.3c-0.9,0-1.1-0.5-1.1-2.1
		c0-1.4,0.2-2.1,1.1-2.1c0.7,0,1.7,0.1,1.8,0.1v-0.4c-0.5-0.1-1.4-0.2-1.8-0.2C63.4,148.5,63.2,149.7,63.2,151.1 M57.7,151.6
		c0-1.1,0.3-1.1,1.1-1.1c0.8,0,0.9,0.1,0.9,0.8c0,0.2-0.1,0.3-0.4,0.3H57.7z M57.2,151.8c0,1.5,0.3,1.9,1.2,1.9c0.6,0,1.2,0,1.7-0.2
		v-0.4c-0.5,0.1-1.1,0.1-1.7,0.1c-0.5,0-0.7-0.2-0.7-1.1h1.6c0.7,0,1-0.3,1-0.9c0-1.2-0.5-1.3-1.4-1.3
		C57.7,149.9,57.2,150.1,57.2,151.8 M54,153.7h0.5v-2.8c0.5-0.3,0.8-0.4,1.4-0.4c0.2,0,0.4,0,0.5,0V150c-0.1,0-0.3-0.1-0.5-0.1
		c-0.6,0-1,0.3-1.4,0.5l-0.2-0.5H54V153.7z M50.5,151.6c0-1.1,0.3-1.1,1.1-1.1c0.8,0,0.9,0.1,0.9,0.8c0,0.2-0.1,0.3-0.4,0.3H50.5z
		 M50,151.8c0,1.5,0.3,1.9,1.2,1.9c0.6,0,1.2,0,1.7-0.2v-0.4c-0.5,0.1-1.1,0.1-1.7,0.1c-0.5,0-0.7-0.2-0.7-1.1H52c0.7,0,1-0.3,1-0.9
		c0-1.2-0.5-1.3-1.4-1.3C50.4,149.9,50,150.1,50,151.8 M46.9,150.5h0.7v1.9c0,1,0.4,1.3,0.9,1.3h0.6v-0.4c0,0-0.6-0.1-0.6-0.1
		c-0.2-0.1-0.4-0.2-0.4-0.8v-1.9h1.1V150h-1.1v-1h-0.4l-0.1,1l-0.7,0.1V150.5z M43,153.7h0.5v-2.9c0.5-0.3,0.8-0.4,1.4-0.4
		c0.4,0,0.6,0.2,0.6,0.7v2.6H46v-2.6c0-0.6-0.4-1.2-1.1-1.2c-0.6,0-0.9,0.3-1.4,0.5l-0.2-0.4H43V153.7z M38.1,151.4
		c0,2.3,0.9,2.3,1.9,2.3c0.8,0,1.9,0,1.9-2.3v-2.9h-0.5v2.9c0,1.7-0.6,1.8-1.3,1.8c-0.8,0-1.4,0-1.4-1.8v-2.9h-0.5V151.4z"/>
	<path fill="#1A171B" d="M160.7,161.7h0.5v-2.8c0.5-0.3,0.8-0.4,1.4-0.4c0.2,0,0.4,0,0.5,0V158c-0.1,0-0.3-0.1-0.5-0.1
		c-0.6,0-1,0.3-1.4,0.5l-0.2-0.5h-0.4V161.7z M157.2,159.6c0-1.1,0.3-1.1,1.1-1.1c0.8,0,0.9,0.1,0.9,0.8c0,0.2-0.1,0.3-0.4,0.3
		H157.2z M156.7,159.8c0,1.5,0.3,1.9,1.2,1.9c0.6,0,1.2,0,1.8-0.2v-0.4c-0.5,0.1-1.1,0.1-1.8,0.1c-0.5,0-0.7-0.2-0.7-1.1h1.6
		c0.7,0,1-0.3,1-0.9c0-1.2-0.5-1.3-1.4-1.3C157.2,157.9,156.7,158.1,156.7,159.8 M152.6,160.5c0,0.6,0.4,1.2,1.1,1.2
		c0.6,0,0.9-0.3,1.4-0.5l0.2,0.4h0.4V158h-0.5v2.9c-0.5,0.3-0.8,0.4-1.4,0.4c-0.4,0-0.6-0.2-0.6-0.7V158h-0.5V160.5z M149.1,160.8
		v-0.4c0-0.2,0.1-0.4,0.4-0.5l1.6-0.1v1c0,0-1,0.4-1.6,0.4C149.2,161.2,149.1,161.1,149.1,160.8 M148.5,160.8c0,0.6,0.4,0.9,0.9,0.9
		c0.6,0,1.5-0.5,1.6-0.5l0.1,0.4h0.4V159c0-0.8-0.5-1.1-1.1-1.1c-0.7,0-1.3,0.1-1.8,0.2v0.4c0.7,0,1.3-0.1,1.8-0.1
		c0.4,0,0.6,0.1,0.6,0.6c0,0,0,0.5,0,0.5c0,0-1.6,0-1.6,0c-0.6,0-0.9,0.4-0.9,0.9V160.8z M145,159.8c0-1.1,0.3-1.4,0.7-1.4
		c0.5,0,0.9,0.1,1.4,0.2v2.3c-0.4,0.2-0.8,0.3-1.4,0.3C145.2,161.2,145,160.7,145,159.8 M144.5,159.8c0,0.9,0.2,1.9,1.2,1.9
		c0.5,0,1.2-0.3,1.4-0.5l0.1,0.4h0.4v-5.5h-0.5v2c-0.4-0.2-1.1-0.3-1.4-0.3C144.6,157.9,144.5,158.9,144.5,159.8 M142.2,160.3
		c0,1,0.4,1.3,0.9,1.3h0.6v-0.4c0,0-0.6-0.1-0.6-0.1c-0.2-0.1-0.4-0.2-0.4-0.8v-4.1h-0.5V160.3z M140.6,161.7h0.5V158h-0.5V161.7z
		 M140.5,157.4c0,0.1,0.1,0.2,0.2,0.2h0.3c0.1,0,0.2-0.1,0.2-0.2V157c0-0.1-0.1-0.2-0.2-0.2h-0.3c-0.1,0-0.2,0.1-0.2,0.2V157.4z
		 M137.1,159.6c0-1.1,0.3-1.1,1.1-1.1c0.8,0,0.9,0.1,0.9,0.8c0,0.2-0.1,0.3-0.4,0.3H137.1z M136.5,159.8c0,1.5,0.3,1.9,1.2,1.9
		c0.6,0,1.2,0,1.7-0.2v-0.4c-0.5,0.1-1.1,0.1-1.7,0.1c-0.5,0-0.7-0.2-0.7-1.1h1.6c0.7,0,1-0.3,1-0.9c0-1.2-0.5-1.3-1.4-1.3
		C137,157.9,136.5,158.1,136.5,159.8 M130.5,158l1.4,3.7h0.6l0.6-1.8l0.8,1.8h0.5l1.4-3.7h-0.6l-1.1,2.9l-0.8-1.8l0.4-1.2h-0.6
		l-1,2.9l-1.1-2.9H130.5z M127.4,161.7h0.5v-2.8c0.5-0.3,0.8-0.4,1.4-0.4c0.2,0,0.4,0,0.5,0V158c-0.1,0-0.3-0.1-0.5-0.1
		c-0.6,0-1,0.3-1.4,0.5l-0.2-0.5h-0.4V161.7z M123.9,159.6c0-1.1,0.3-1.1,1.1-1.1c0.8,0,0.9,0.1,0.9,0.8c0,0.2-0.1,0.3-0.4,0.3
		H123.9z M123.3,159.8c0,1.5,0.3,1.9,1.2,1.9c0.6,0,1.2,0,1.8-0.2v-0.4c-0.5,0.1-1.1,0.1-1.8,0.1c-0.5,0-0.7-0.2-0.7-1.1h1.6
		c0.7,0,1-0.3,1-0.9c0-1.2-0.5-1.3-1.4-1.3C123.8,157.9,123.3,158.1,123.3,159.8 M118.6,156.6l1.8,5.1h0.5l1.9-5.1h-0.6l-1.6,4.3
		l-1.5-4.3H118.6z"/>
	<path fill="#1A171B" d="M151.4,151.6c0-1.1,0.3-1.1,1.1-1.1c0.8,0,0.9,0.1,0.9,0.8c0,0.2-0.1,0.3-0.4,0.3H151.4z M150.9,151.8
		c0,1.5,0.3,1.9,1.2,1.9c0.6,0,1.2,0,1.8-0.2v-0.4c-0.5,0.1-1.1,0.1-1.8,0.1c-0.5,0-0.7-0.2-0.7-1.1h1.6c0.7,0,1-0.3,1-0.9
		c0-1.2-0.5-1.3-1.4-1.3C151.4,149.9,150.9,150.1,150.9,151.8 M147.7,153.7h0.5v-2.8c0.5-0.3,0.8-0.4,1.4-0.4c0.2,0,0.4,0,0.5,0V150
		c-0.1,0-0.3-0.1-0.5-0.1c-0.6,0-1,0.3-1.4,0.5l-0.2-0.5h-0.4V153.7z M144.2,151.6c0-1.1,0.3-1.1,1.1-1.1c0.8,0,0.9,0.1,0.9,0.8
		c0,0.2-0.1,0.3-0.4,0.3H144.2z M143.7,151.8c0,1.5,0.3,1.9,1.2,1.9c0.6,0,1.2,0,1.8-0.2v-0.4c-0.5,0.1-1.1,0.1-1.8,0.1
		c-0.5,0-0.7-0.2-0.7-1.1h1.6c0.7,0,1-0.3,1-0.9c0-1.2-0.5-1.3-1.4-1.3C144.2,149.9,143.7,150.1,143.7,151.8 M141.4,152.3
		c0,1,0.4,1.3,0.9,1.3h0.6v-0.4c0,0-0.6-0.1-0.6-0.1c-0.2-0.1-0.4-0.2-0.4-0.8v-4.1h-0.5V152.3z M138.2,150.5h0.7v1.9
		c0,1,0.4,1.3,0.9,1.3h0.6v-0.4c0,0-0.6-0.1-0.6-0.1c-0.2-0.1-0.4-0.2-0.4-0.8v-1.9h1.1V150h-1.1v-1H139l-0.1,1l-0.7,0.1V150.5z
		 M135.1,150.5h0.7v1.9c0,1,0.4,1.3,0.9,1.3h0.6v-0.4c0,0-0.6-0.1-0.6-0.1c-0.2-0.1-0.4-0.2-0.4-0.8v-1.9h1.1V150h-1.1v-1h-0.4
		l-0.1,1l-0.7,0.1V150.5z M133.7,153.7h0.5V150h-0.5V153.7z M133.6,149.4c0,0.1,0.1,0.2,0.2,0.2h0.3c0.1,0,0.2-0.1,0.2-0.2V149
		c0-0.1-0.1-0.2-0.2-0.2h-0.3c-0.1,0-0.2,0.1-0.2,0.2V149.4z M127.7,153.7h0.5l0.3-4.2l1.4,4.2h0.5l1.3-4.2l0.3,4.2h0.5l-0.4-5.1
		h-0.7l-1.3,4.3l-1.4-4.3h-0.7L127.7,153.7z"/>
	<path fill="#1A171B" d="M240,161.7h0.5v-2.8c0.5-0.3,0.8-0.4,1.4-0.4c0.2,0,0.4,0,0.5,0V158c-0.1,0-0.3-0.1-0.5-0.1
		c-0.6,0-1,0.3-1.4,0.5l-0.2-0.5H240V161.7z M236.5,159.6c0-1.1,0.3-1.1,1.1-1.1c0.8,0,0.9,0.1,0.9,0.8c0,0.2-0.1,0.3-0.4,0.3H236.5
		z M236,159.8c0,1.5,0.3,1.9,1.2,1.9c0.6,0,1.2,0,1.8-0.2v-0.4c-0.5,0.1-1.1,0.1-1.8,0.1c-0.5,0-0.7-0.2-0.7-1.1h1.6
		c0.7,0,1-0.3,1-0.9c0-1.2-0.5-1.3-1.4-1.3C236.5,157.9,236,158.1,236,159.8 M231.9,160.5c0,0.6,0.4,1.2,1.1,1.2
		c0.6,0,0.9-0.3,1.4-0.5l0.2,0.4h0.4V158h-0.5v2.9c-0.5,0.3-0.8,0.4-1.4,0.4c-0.4,0-0.6-0.2-0.6-0.7V158h-0.5V160.5z M228.4,160.8
		v-0.4c0-0.2,0.1-0.4,0.4-0.5l1.6-0.1v1c0,0-1,0.4-1.6,0.4C228.5,161.2,228.4,161.1,228.4,160.8 M227.8,160.8c0,0.6,0.4,0.9,0.9,0.9
		c0.6,0,1.5-0.5,1.6-0.5l0.1,0.4h0.4V159c0-0.8-0.5-1.1-1.1-1.1c-0.7,0-1.3,0.1-1.8,0.2v0.4c0.7,0,1.3-0.1,1.8-0.1
		c0.4,0,0.6,0.1,0.6,0.6c0,0,0,0.5,0,0.5c0,0-1.6,0-1.6,0c-0.6,0-0.9,0.4-0.9,0.9V160.8z M224.3,159.8c0-1.1,0.3-1.4,0.7-1.4
		c0.5,0,0.9,0.1,1.4,0.2v2.3c-0.4,0.2-0.8,0.3-1.4,0.3C224.5,161.2,224.3,160.7,224.3,159.8 M223.8,159.8c0,0.9,0.2,1.9,1.2,1.9
		c0.5,0,1.2-0.3,1.4-0.5l0.1,0.4h0.4v-5.5h-0.5v2c-0.4-0.2-1.1-0.3-1.4-0.3C223.9,157.9,223.8,158.9,223.8,159.8 M221.5,160.3
		c0,1,0.4,1.3,0.9,1.3h0.6v-0.4c0,0-0.6-0.1-0.6-0.1c-0.2-0.1-0.4-0.2-0.4-0.8v-4.1h-0.5V160.3z M219.9,161.7h0.5V158h-0.5V161.7z
		 M219.8,157.4c0,0.1,0.1,0.2,0.2,0.2h0.3c0.1,0,0.2-0.1,0.2-0.2V157c0-0.1-0.1-0.2-0.2-0.2H220c-0.1,0-0.2,0.1-0.2,0.2V157.4z
		 M216.4,159.6c0-1.1,0.3-1.1,1.1-1.1c0.8,0,0.9,0.1,0.9,0.8c0,0.2-0.1,0.3-0.4,0.3H216.4z M215.8,159.8c0,1.5,0.3,1.9,1.2,1.9
		c0.6,0,1.2,0,1.8-0.2v-0.4c-0.5,0.1-1.1,0.1-1.8,0.1c-0.5,0-0.7-0.2-0.7-1.1h1.6c0.7,0,1-0.3,1-0.9c0-1.2-0.5-1.3-1.4-1.3
		C216.3,157.9,215.8,158.1,215.8,159.8 M209.8,158l1.4,3.7h0.6l0.6-1.8l0.8,1.8h0.5l1.4-3.7h-0.6l-1.1,2.9l-0.8-1.8l0.4-1.2h-0.6
		l-1,2.9l-1.1-2.9H209.8z M206.7,161.7h0.5v-2.8c0.5-0.3,0.8-0.4,1.4-0.4c0.2,0,0.4,0,0.5,0V158c-0.1,0-0.3-0.1-0.5-0.1
		c-0.6,0-1,0.3-1.4,0.5L207,158h-0.4V161.7z M203.2,159.6c0-1.1,0.3-1.1,1.1-1.1c0.8,0,0.9,0.1,0.9,0.8c0,0.2-0.1,0.3-0.4,0.3H203.2
		z M202.6,159.8c0,1.5,0.3,1.9,1.2,1.9c0.6,0,1.2,0,1.8-0.2v-0.4c-0.5,0.1-1.1,0.1-1.8,0.1c-0.5,0-0.7-0.2-0.7-1.1h1.6
		c0.7,0,1-0.3,1-0.9c0-1.2-0.5-1.3-1.4-1.3C203.1,157.9,202.6,158.1,202.6,159.8 M198.5,158l1.5,3.7h0.5l1.5-3.7h-0.6l-1.2,2.9
		L199,158H198.5z"/>
	<path fill="#1A171B" d="M240.3,151.9h2.2v-0.5h-2.2V151.9z M236.9,150.5h2.1l-2,2.7v0.5h2.7c0,0,0-0.5,0-0.5h-2l2-2.7V150h-2.8
		V150.5z M233,153.7h0.5v-2.9c0.5-0.3,0.8-0.4,1.4-0.4c0.4,0,0.6,0.2,0.6,0.7v2.6h0.5v-2.6c0-0.6-0.4-1.2-1.1-1.2
		c-0.6,0-0.9,0.3-1.4,0.5l-0.2-0.4H233V153.7z M229.5,151.6c0-1.1,0.3-1.1,1.1-1.1c0.8,0,0.9,0.1,0.9,0.8c0,0.2-0.1,0.3-0.4,0.3
		H229.5z M229,151.8c0,1.5,0.3,1.9,1.2,1.9c0.6,0,1.2,0,1.7-0.2v-0.4c-0.5,0.1-1.1,0.1-1.7,0.1c-0.5,0-0.7-0.2-0.7-1.1h1.6
		c0.7,0,1-0.3,1-0.9c0-1.2-0.5-1.3-1.4-1.3C229.4,149.9,229,150.1,229,151.8 M225.7,153.7h0.5v-2.8c0.5-0.3,0.8-0.4,1.4-0.4
		c0.2,0,0.4,0,0.5,0V150c-0.1,0-0.3-0.1-0.5-0.1c-0.6,0-1,0.3-1.4,0.5l-0.2-0.5h-0.4V153.7z M221.1,151.1c0,1.5,0.2,2.6,1.7,2.6
		c0.6,0,1.1-0.2,1.4-0.4l0.1,0.3h0.4V151c-0.2,0-0.3,0-0.5,0c-0.6,0-0.9,0.1-1.2,0.2v0.4h1.2v1.4c0,0-0.8,0.3-1.3,0.3
		c-0.9,0-1.1-0.5-1.1-2.1c0-1.4,0.2-2.1,1.1-2.1c0.7,0,1.7,0.1,1.8,0.1v-0.4c-0.5-0.1-1.4-0.2-1.8-0.2
		C221.3,148.5,221.1,149.7,221.1,151.1 M215.6,151.6c0-1.1,0.3-1.1,1.1-1.1c0.8,0,0.9,0.1,0.9,0.8c0,0.2-0.1,0.3-0.4,0.3H215.6z
		 M215.1,151.8c0,1.5,0.3,1.9,1.2,1.9c0.6,0,1.2,0,1.8-0.2v-0.4c-0.5,0.1-1.1,0.1-1.8,0.1c-0.5,0-0.7-0.2-0.7-1.1h1.6
		c0.7,0,1-0.3,1-0.9c0-1.2-0.5-1.3-1.4-1.3C215.5,149.9,215.1,150.1,215.1,151.8 M211.9,153.7h0.5v-2.8c0.5-0.3,0.8-0.4,1.4-0.4
		c0.2,0,0.4,0,0.5,0V150c-0.1,0-0.3-0.1-0.5-0.1c-0.6,0-1,0.3-1.4,0.5l-0.2-0.5h-0.4V153.7z M208.4,151.6c0-1.1,0.3-1.1,1.1-1.1
		c0.8,0,0.9,0.1,0.9,0.8c0,0.2-0.1,0.3-0.4,0.3H208.4z M207.8,151.8c0,1.5,0.3,1.9,1.2,1.9c0.6,0,1.2,0,1.8-0.2v-0.4
		c-0.5,0.1-1.1,0.1-1.8,0.1c-0.5,0-0.7-0.2-0.7-1.1h1.6c0.7,0,1-0.3,1-0.9c0-1.2-0.5-1.3-1.4-1.3
		C208.3,149.9,207.8,150.1,207.8,151.8 M204.3,152.9v-2.3c0.5-0.1,0.8-0.2,1.4-0.2c0.4,0,0.7,0.3,0.7,1.4c0,0.9-0.3,1.4-0.7,1.4
		C205.1,153.2,204.6,153,204.3,152.9 M203.8,153.7h0.4l0.1-0.4c0.2,0.1,0.9,0.5,1.4,0.5c1,0,1.2-1,1.2-1.9c0-1-0.2-1.9-1.2-1.9
		c-0.3,0-0.9,0.1-1.4,0.3v-2h-0.5V153.7z M199.2,151.1c0-2.1,0.5-2.1,1.5-2.1c1,0,1.5,0,1.5,2.1c0,1.7-0.4,2-1.5,2
		C199.6,153.2,199.2,152.9,199.2,151.1 M198.7,151.1c0,2.3,0.7,2.6,2,2.6c1.3,0,2-0.3,2-2.6c0-2.4-0.8-2.6-2-2.6
		C199.5,148.5,198.7,148.7,198.7,151.1"/>
	<path fill="#9C2F3A" d="M38.1,73.9v-0.6c0-0.3,0.1-0.3,0.4-0.3h0.5c0.2,0,0.3,0.1,0.3,0.3v0.6c0,0.2,0,0.3-0.4,0.3h-0.5
		C38.1,74.2,38.1,74.1,38.1,73.9z M37.4,74c0,0.6,0.2,0.9,0.9,0.9H39c0.7,0,0.9-0.3,0.9-0.9v-0.9c0-0.6-0.2-0.9-0.9-0.9h-0.7
		c-0.7,0-0.9,0.3-0.9,0.9V74z M34.9,74.9h0.7l3.1-5.1H38L34.9,74.9z M34.4,71.5v-0.6c0-0.3,0.1-0.3,0.4-0.3h0.5
		c0.2,0,0.3,0.1,0.3,0.3v0.6c0,0.2,0,0.3-0.4,0.3h-0.5C34.4,71.8,34.4,71.7,34.4,71.5 M33.7,71.6c0,0.6,0.2,0.9,0.9,0.9h0.7
		c0.7,0,0.9-0.3,0.9-0.9v-0.9c0-0.6-0.2-0.9-0.9-0.9h-0.7c-0.7,0-0.9,0.3-0.9,0.9V71.6z M30.2,71.5v-0.3c0-0.5,0.2-0.5,0.5-0.5h0.7
		c0.3,0,0.5,0.1,0.5,0.5v0.3c0,0.2-0.1,0.4-0.5,0.4h-0.7C30.5,71.9,30.2,71.9,30.2,71.5 M30.2,73.7v-0.5c0-0.3,0.2-0.4,0.5-0.4h0.7
		c0.3,0,0.4,0.2,0.4,0.4v0.5c0,0.3-0.2,0.4-0.5,0.4h-0.7C30.4,74.1,30.2,74,30.2,73.7 M29.3,73.8c0,0.4,0,1.2,1.3,1.2h1.1
		c0.6,0,1.2-0.2,1.2-1.2v-0.6c0-0.3-0.1-0.9-0.5-1c0.5-0.1,0.5-0.6,0.5-0.8V71c0-0.9-0.4-1.2-1.2-1.2h-1.1c-0.7,0-1.3,0.2-1.3,1.2
		v0.5c0,0.4,0.1,0.8,0.6,1c-0.3,0.1-0.6,0.4-0.6,0.8V73.8z M25.3,71.1l1-0.3v3.3h-1V75h3v-0.8h-1v-4.3h-1l-1,0.6V71.1z"/>
	<path fill="#9C2F3A" d="M80.2,65.4v-0.6c0-0.3,0.1-0.3,0.4-0.3h0.5c0.2,0,0.3,0.1,0.3,0.3v0.6c0,0.2,0,0.3-0.4,0.3h-0.5
		C80.3,65.8,80.2,65.7,80.2,65.4z M79.5,65.5c0,0.6,0.2,0.9,0.9,0.9h0.7c0.7,0,0.9-0.3,0.9-0.9v-0.9c0-0.6-0.2-0.9-0.9-0.9h-0.7
		c-0.7,0-0.9,0.3-0.9,0.9V65.5z M77,66.5h0.7l3.1-5.1h-0.7L77,66.5z M76.5,63v-0.6c0-0.3,0.1-0.3,0.4-0.3h0.5c0.2,0,0.3,0.1,0.3,0.3
		V63c0,0.2,0,0.3-0.4,0.3h-0.5C76.5,63.3,76.5,63.2,76.5,63 M75.8,63.1c0,0.6,0.2,0.9,0.9,0.9h0.7c0.7,0,0.9-0.3,0.9-0.9v-0.9
		c0-0.6-0.2-0.9-0.9-0.9h-0.7c-0.7,0-0.9,0.3-0.9,0.9V63.1z M72.3,62.6l1-0.3v3.3h-1v0.8h3v-0.8h-1v-4.3h-1l-1,0.6V62.6z M67.6,62.2
		l1.8,0c0.6,0,0.9,0.2,0.9,0.7c0,0.8-2,2.3-2.6,2.7v0.9h3.6v-0.9h-1.9c0.5-0.4,1.9-1.6,1.9-2.7c0-0.9-0.5-1.6-1.5-1.6
		c-0.9,0-1.5,0.1-2.1,0.2V62.2z"/>
	<path fill="#9C2F3A" d="M117,59.8v-0.6c0-0.3,0.1-0.3,0.4-0.3h0.5c0.2,0,0.3,0.1,0.3,0.3v0.6c0,0.2,0,0.3-0.4,0.3h-0.5
		C117.1,60.2,117,60.1,117,59.8z M116.4,59.9c0,0.6,0.2,0.9,0.9,0.9h0.7c0.7,0,0.9-0.3,0.9-0.9v-0.9c0-0.6-0.2-0.9-0.9-0.9h-0.7
		c-0.7,0-0.9,0.3-0.9,0.9V59.9z M113.9,60.9h0.7l3.1-5.1H117L113.9,60.9z M113.3,57.4v-0.6c0-0.3,0.1-0.3,0.4-0.3h0.5
		c0.2,0,0.3,0.1,0.3,0.3v0.6c0,0.2,0,0.3-0.4,0.3h-0.5C113.4,57.7,113.3,57.6,113.3,57.4 M112.6,57.5c0,0.6,0.2,0.9,0.9,0.9h0.7
		c0.7,0,0.9-0.3,0.9-0.9v-0.9c0-0.6-0.2-0.9-0.9-0.9h-0.7c-0.7,0-0.9,0.3-0.9,0.9V57.5z M108.2,56.6h1.9c0.4,0,0.7,0.1,0.7,0.5v0.3
		c0,0.4-0.2,0.5-0.7,0.5l-1.4,0.1v0.8l1.4,0c0.4,0,0.7,0.1,0.7,0.5v0.2c0,0.4-0.2,0.5-0.7,0.5h-1.8l0,0.7c0.6,0.2,1.4,0.2,2.2,0.2
		c0.9,0,1.3-0.4,1.3-1.3v-0.3c0-0.5-0.2-0.9-0.5-1c0.4-0.1,0.5-0.5,0.5-1V57c0-0.7-0.5-1.2-1.3-1.2c-0.8,0-1.6,0-2.3,0.2V56.6z
		 M103.7,56.6l1.8,0c0.6,0,0.9,0.2,0.9,0.7c0,0.8-2,2.3-2.6,2.7v0.9h3.6V60h-1.9c0.5-0.4,1.9-1.6,1.9-2.7c0-0.9-0.5-1.6-1.5-1.6
		c-0.9,0-1.5,0.1-2.1,0.2V56.6z"/>
	<path fill="#9C2F3A" d="M159.5,57v-0.6c0-0.3,0.1-0.3,0.4-0.3h0.5c0.2,0,0.3,0.1,0.3,0.3V57c0,0.2,0,0.3-0.4,0.3h-0.5
		C159.6,57.3,159.5,57.2,159.5,57z M158.8,57.1c0,0.6,0.2,0.9,0.9,0.9h0.7c0.7,0,0.9-0.3,0.9-0.9v-0.9c0-0.6-0.2-0.9-0.9-0.9h-0.7
		c-0.7,0-0.9,0.3-0.9,0.9V57.1z M156.3,58h0.7l3.1-5.1h-0.7L156.3,58z M155.8,54.6v-0.6c0-0.3,0.1-0.3,0.4-0.3h0.5
		c0.2,0,0.3,0.1,0.3,0.3v0.6c0,0.2,0,0.3-0.4,0.3h-0.5C155.8,54.9,155.8,54.8,155.8,54.6 M155.1,54.7c0,0.6,0.2,0.9,0.9,0.9h0.7
		c0.7,0,0.9-0.3,0.9-0.9v-0.9c0-0.6-0.2-0.9-0.9-0.9H156c-0.7,0-0.9,0.3-0.9,0.9V54.7z M150.6,56.5l0.2,0.5h2.4V58h1v-1.1l0.5-0.2
		V56h-0.5v-1.7h-0.8l-0.2,0.5V56h-1.3l1.5-3.1h-1.1L150.6,56.5z M146.3,53.8l1.8,0c0.6,0,0.9,0.2,0.9,0.7c0,0.8-2,2.3-2.6,2.7V58
		h3.6v-0.9H148c0.5-0.4,1.9-1.6,1.9-2.7c0-0.9-0.5-1.6-1.5-1.6c-0.9,0-1.5,0.1-2.1,0.2V53.8z"/>
	<path fill="#9C2F3A" d="M193.3,105.2v-0.6c0-0.3,0.1-0.3,0.4-0.3h0.5c0.2,0,0.3,0.1,0.3,0.3v0.6c0,0.2,0,0.3-0.4,0.3h-0.5
		C193.4,105.5,193.3,105.4,193.3,105.2z M192.6,105.3c0,0.6,0.2,0.9,0.9,0.9h0.7c0.7,0,0.9-0.3,0.9-0.9v-0.9c0-0.6-0.2-0.9-0.9-0.9
		h-0.7c-0.7,0-0.9,0.3-0.9,0.9V105.3z M190.1,106.2h0.7l3.1-5.1h-0.7L190.1,106.2z M189.6,102.8v-0.6c0-0.3,0.1-0.3,0.4-0.3h0.5
		c0.2,0,0.3,0.1,0.3,0.3v0.6c0,0.2,0,0.3-0.4,0.3h-0.5C189.7,103.1,189.6,103,189.6,102.8 M188.9,102.9c0,0.6,0.2,0.9,0.9,0.9h0.7
		c0.7,0,0.9-0.3,0.9-0.9V102c0-0.6-0.2-0.9-0.9-0.9h-0.7c-0.7,0-0.9,0.3-0.9,0.9V102.9z M184.5,102h2.4l-1.6,4.2h1.1l1.7-4.7
		l-0.3-0.5h-3.3V102z"/>
	<path fill="#9C2F3A" d="M236.1,105.2v-0.6c0-0.3,0.1-0.3,0.4-0.3h0.5c0.2,0,0.3,0.1,0.3,0.3v0.6c0,0.2,0,0.3-0.4,0.3h-0.5
		C236.2,105.5,236.1,105.4,236.1,105.2z M235.4,105.3c0,0.6,0.2,0.9,0.9,0.9h0.7c0.7,0,0.9-0.3,0.9-0.9v-0.9c0-0.6-0.2-0.9-0.9-0.9
		h-0.7c-0.7,0-0.9,0.3-0.9,0.9V105.3z M233,106.2h0.7l3.1-5.1h-0.7L233,106.2z M232.4,102.8v-0.6c0-0.3,0.1-0.3,0.4-0.3h0.5
		c0.2,0,0.3,0.1,0.3,0.3v0.6c0,0.2,0,0.3-0.4,0.3h-0.5C232.5,103.1,232.4,103,232.4,102.8 M231.7,102.9c0,0.6,0.2,0.9,0.9,0.9h0.7
		c0.7,0,0.9-0.3,0.9-0.9V102c0-0.6-0.2-0.9-0.9-0.9h-0.7c-0.7,0-0.9,0.3-0.9,0.9V102.9z M227.3,102h2.4l-1.6,4.2h1.1l1.7-4.7
		l-0.3-0.5h-3.3V102z"/>
	<path fill="#FFFFFF" d="M60.6,35.4c0,0.9,0.6,1,1.1,1c0,0,1.9-0.1,2.2-0.1v-0.7l-2,0c-0.2,0-0.4,0-0.4-0.4v-1l2.2-0.1v-0.7
		l-2.2-0.1v-1c0-0.2,0-0.4,0.4-0.4l2.1,0v-0.7c-0.3,0-2.2-0.1-2.2-0.1c-0.5,0-1,0.2-1,1V35.4z M55.9,33.8c0,1.5,0.2,2.7,1.7,2.6
		c0.6,0,0.9-0.2,1.2-0.4l0.2,0.3h0.6v-2.8c-0.2,0-0.3,0-0.5,0c-0.5,0-0.9,0.1-1.2,0.2v0.5h0.9v1.1c0,0-0.6,0.3-1,0.3
		c-0.8,0-1-0.4-1-1.8c0-1.3,0.2-1.9,1-1.9c0.8,0,1.7,0.1,1.8,0.1v-0.6c-0.6-0.1-1.3-0.2-1.9-0.2C56.1,31.2,55.9,32.3,55.9,33.8
		 M53.6,30.4c0,0.2,0.2,0.4,0.4,0.4s0.4-0.2,0.4-0.4c0-0.2-0.2-0.4-0.4-0.4S53.6,30.2,53.6,30.4 M51.8,30.4c0,0.2,0.2,0.4,0.4,0.4
		s0.4-0.2,0.4-0.4c0-0.2-0.2-0.4-0.4-0.4S51.8,30.2,51.8,30.4 M52.4,34.4l0.7-2l0.7,2H52.4z M50.9,36.3h0.9l0.4-1.2H54l0.4,1.2h0.9
		l-1.7-5.1h-0.9L50.9,36.3z M46.9,35.4c0,0.8,0.5,1,1,1h2.1v-0.8h-1.9c-0.2,0-0.4,0-0.4-0.4v-4h-0.8V35.4z M42.2,36.3H43v-2.1h2v2.1
		h0.8v-5.1H45v2.3h-2v-2.3h-0.8V36.3z M37.8,33.8c0,1.6,0.4,2.6,1.7,2.6c0.6,0,1.3-0.1,1.8-0.2v-0.6c0,0-0.9,0.1-1.6,0.1
		c-0.9,0-1.1-0.7-1.1-1.8c0-1.6,0.3-1.9,1.1-1.9c0.7,0,1.6,0.1,1.6,0.1v-0.6c-0.5-0.1-1.2-0.2-1.8-0.2
		C38.1,31.2,37.8,32.1,37.8,33.8 M33.4,32.9c0,0.5,0.1,1.3,1.3,1.3h0.9c0.4,0,0.5,0.2,0.5,0.6v0.3c0,0.5-0.4,0.5-0.7,0.5
		c-0.7,0-1.5,0-1.8-0.1v0.6c0.5,0.1,1.2,0.2,1.9,0.2c0.7,0,1.4-0.2,1.4-1.3v-0.4c0-0.6-0.2-1.3-1.2-1.3h-0.9c-0.4,0-0.6-0.1-0.6-0.6
		v-0.3c0-0.6,0.3-0.6,0.7-0.6c0.2,0,1.3,0,1.7,0.1v-0.6c-0.4-0.1-1.3-0.2-1.9-0.2c-0.8,0-1.4,0.3-1.4,1.3V32.9z M29.9,33.3V32h1.2
		c0.3,0,0.6,0.1,0.6,0.7c0,0.4-0.2,0.7-0.6,0.7H29.9z M29.9,35.6V34h1.2c0.5,0,0.7,0.4,0.7,0.8c0,0.7-0.4,0.8-0.7,0.8H29.9z
		 M29.1,36.3h2.1c1.1,0,1.5-0.6,1.5-1.5c0-0.7-0.4-1.1-0.7-1.2c0.5-0.1,0.7-0.6,0.7-1.1c0-0.7-0.4-1.4-1.4-1.4h-2.1V36.3z
		 M25.3,34.4l0.7-2l0.7,2H25.3z M23.8,36.3h0.9l0.4-1.2h1.8l0.4,1.2h0.9l-1.7-5.1h-0.9L23.8,36.3z"/>
	<path fill="#FFFFFF" d="M172.5,36h1.4v4.4h0.8V36h1.5v-0.8h-3.7V36z M170.8,40.3h0.8v-5.1h-0.8V40.3z M166.6,39.4
		c0,0.9,0.6,1,1.1,1c0,0,1.9-0.1,2.2-0.1v-0.7l-2,0c-0.2,0-0.4,0-0.4-0.4v-1l2.2-0.1v-0.7l-2.2-0.1v-1c0-0.2,0-0.4,0.4-0.4l2.1,0
		v-0.7c-0.3,0-2.2-0.1-2.2-0.1c-0.5,0-1,0.2-1,1V39.4z M162.2,40.3h0.8v-2.2h0.5l1.4,2.2h1l-1.6-2.6l1.6-2.6h-1l-1.4,2.2H163v-2.2
		h-0.8V40.3z M157.4,40.3h0.8v-2.1h2v2.1h0.8v-5.1h-0.8v2.3h-2v-2.3h-0.8V40.3z M153,37.8c0,1.6,0.4,2.6,1.7,2.6
		c0.6,0,1.3-0.1,1.8-0.2v-0.6c0,0-0.9,0.1-1.6,0.1c-0.9,0-1.1-0.7-1.1-1.8c0-1.6,0.3-1.9,1.1-1.9c0.7,0,1.6,0.1,1.6,0.1v-0.6
		c-0.5-0.1-1.2-0.2-1.8-0.2C153.4,35.2,153,36.1,153,37.8 M151.2,40.3h0.8v-5.1h-0.8V40.3z M147.2,39.4c0,0.8,0.5,1,1,1h2.1v-0.8
		h-1.9c-0.2,0-0.4,0-0.4-0.4v-4h-0.8V39.4z M142.6,36h1.4v4.4h0.8V36h1.5v-0.8h-3.7V36z M138.5,40.3h0.8v-2.1l2.2-0.1v-0.7l-2.2-0.1
		v-1c0-0.2,0-0.4,0.4-0.4l2.1,0v-0.7c-0.3,0-2.2-0.1-2.2-0.1c-0.5,0-1,0.2-1,1V40.3z M134.7,38.4l0.7-2l0.7,2H134.7z M133.2,40.3
		h0.9l0.4-1.2h1.8l0.4,1.2h0.9l-1.7-5.1H135L133.2,40.3z M128.7,40.3h0.8v-2.1h2v2.1h0.8v-5.1h-0.8v2.3h-2v-2.3h-0.8V40.3z
		 M124.3,37.8c0,1.6,0.4,2.6,1.7,2.6c0.6,0,1.3-0.1,1.8-0.2v-0.6c0,0-0.9,0.1-1.6,0.1c-0.9,0-1.1-0.7-1.1-1.8c0-1.6,0.3-1.9,1.1-1.9
		c0.7,0,1.6,0.1,1.6,0.1v-0.6c-0.5-0.1-1.2-0.2-1.8-0.2C124.6,35.2,124.3,36.1,124.3,37.8 M119.9,36.9c0,0.5,0.1,1.3,1.3,1.3h0.9
		c0.4,0,0.5,0.2,0.5,0.6v0.3c0,0.5-0.4,0.5-0.7,0.5c-0.7,0-1.5,0-1.8-0.1v0.6c0.5,0.1,1.2,0.2,1.9,0.2c0.7,0,1.4-0.2,1.4-1.3v-0.4
		c0-0.6-0.2-1.3-1.2-1.3h-0.9c-0.4,0-0.6-0.1-0.6-0.6v-0.3c0-0.6,0.3-0.6,0.7-0.6c0.2,0,1.3,0,1.7,0.1v-0.6
		c-0.4-0.1-1.3-0.2-1.9-0.2c-0.8,0-1.4,0.3-1.4,1.3V36.9z M115.4,36h1.4v4.4h0.8V36h1.5v-0.8h-3.7V36z M111.9,37.6V36h1.3
		c0.3,0,0.6,0.1,0.6,0.8c0,0.7-0.2,0.8-0.6,0.8H111.9z M111,40.3h0.8v-2.1l1.1,0.1l0.9,2h0.9l-1-2.1c0.3-0.1,0.8-0.2,0.8-1.5
		c0-1.2-0.6-1.6-1.3-1.6H111V40.3z M109.2,40.3h0.8v-5.1h-0.8V40.3z M101.8,35.2l1.7,5.1h0.9l0.7-2.3l0.8,2.3h0.9l1.5-5.1h-0.9
		l-1.1,4l-0.9-2.5l0.4-1.4H105l-1,4l-1.3-4H101.8z"/>
	<path fill="#FFFFFF" d="M160.2,31.4c0,0.9,0.6,1,1.1,1c0,0,1.9-0.1,2.2-0.1v-0.7l-2,0c-0.2,0-0.4,0-0.4-0.4v-1l2.2-0.1v-0.7
		l-2.2-0.1v-1c0-0.2,0-0.4,0.4-0.4l2.1,0v-0.7c-0.3,0-2.2-0.1-2.2-0.1c-0.5,0-1,0.2-1,1V31.4z M155.5,32.3h0.8v-2.1h2v2.1h0.8v-5.1
		h-0.8v2.3h-2v-2.3h-0.8V32.3z M151.1,29.8c0,1.6,0.4,2.6,1.7,2.6c0.6,0,1.3-0.1,1.8-0.2v-0.6c0,0-0.9,0.1-1.6,0.1
		c-0.9,0-1.1-0.7-1.1-1.8c0-1.6,0.3-1.9,1.1-1.9c0.7,0,1.6,0.1,1.6,0.1v-0.6c-0.5-0.1-1.2-0.2-1.8-0.2
		C151.4,27.2,151.1,28.1,151.1,29.8 M146.7,28.9c0,0.5,0.1,1.3,1.3,1.3h0.9c0.4,0,0.5,0.2,0.5,0.6v0.4c0,0.5-0.4,0.5-0.7,0.5
		c-0.7,0-1.5,0-1.8-0.1v0.6c0.5,0.1,1.2,0.2,1.9,0.2c0.7,0,1.4-0.2,1.4-1.3v-0.4c0-0.6-0.2-1.3-1.2-1.3h-0.9c-0.4,0-0.6-0.1-0.6-0.6
		v-0.3c0-0.6,0.3-0.6,0.7-0.6c0.2,0,1.3,0,1.7,0.1v-0.6c-0.4-0.1-1.3-0.2-1.9-0.2c-0.8,0-1.4,0.3-1.4,1.3V28.9z M144.9,32.3h0.8
		v-5.1h-0.8V32.3z M138.8,32.3h0.8l0.3-3.7l1,3.7h0.9l1-3.7l0.3,3.7h0.8l-0.4-5.1h-1.1l-1,3.8l-1-3.8h-1.1L138.8,32.3z M134.7,29.8
		c0-1.8,0.4-1.9,1.2-1.9c0.8,0,1.2,0.1,1.2,1.9c0,1.5-0.3,1.8-1.2,1.8C134.9,31.6,134.7,31.4,134.7,29.8 M133.9,29.8
		c0,2.3,0.8,2.6,2,2.6c1.3,0,2-0.3,2-2.6c0-2.4-0.8-2.6-2-2.6C134.7,27.2,133.9,27.4,133.9,29.8 M128.9,32.3h0.8v-3.6l2.3,3.6h0.8
		v-5.1H132v3.6l-2.3-3.6h-0.8V32.3z M124.7,29.8c0-1.8,0.4-1.9,1.2-1.9c0.8,0,1.2,0.1,1.2,1.9c0,1.5-0.3,1.8-1.2,1.8
		C124.9,31.6,124.7,31.4,124.7,29.8 M123.8,29.8c0,2.3,0.8,2.6,2,2.6c1.3,0,2-0.3,2-2.6c0-2.4-0.8-2.6-2-2.6
		C124.7,27.2,123.8,27.4,123.8,29.8 M119.6,32.3h0.8v-2.2h0.5l1.4,2.2h1l-1.6-2.6l1.6-2.6h-1l-1.4,2.2h-0.5v-2.2h-0.8V32.3z
		 M117.1,26.4c0,0.2,0.2,0.4,0.4,0.4c0.2,0,0.4-0.2,0.4-0.4c0-0.2-0.2-0.4-0.4-0.4C117.3,26,117.1,26.2,117.1,26.4 M115.3,26.4
		c0,0.2,0.2,0.4,0.4,0.4c0.2,0,0.4-0.2,0.4-0.4c0-0.2-0.2-0.4-0.4-0.4C115.5,26,115.3,26.2,115.3,26.4 M115.4,29.8
		c0-1.8,0.4-1.9,1.2-1.9c0.8,0,1.2,0.1,1.2,1.9c0,1.5-0.3,1.8-1.2,1.8C115.6,31.6,115.4,31.4,115.4,29.8 M114.6,29.8
		c0,2.3,0.8,2.6,2,2.6s2-0.3,2-2.6c0-2.4-0.8-2.6-2-2.6C115.4,27.2,114.6,27.4,114.6,29.8"/>
	<path fill="#FFFFFF" d="M256.2,36h1.4v4.4h0.8V36h1.5v-0.8h-3.7V36z M254.5,40.3h0.8v-5.1h-0.8V40.3z M250.3,39.4
		c0,0.9,0.6,1,1.1,1c0,0,1.9-0.1,2.2-0.1v-0.7l-2,0c-0.2,0-0.4,0-0.4-0.4v-1l2.2-0.1v-0.7l-2.2-0.1v-1c0-0.2,0-0.4,0.4-0.4h2.1v-0.7
		c-0.3,0-2.2-0.1-2.2-0.1c-0.5,0-1,0.2-1,1V39.4z M245.9,40.3h0.8v-2.2h0.5l1.4,2.2h1l-1.6-2.6l1.6-2.6h-1l-1.4,2.2h-0.5v-2.2h-0.8
		V40.3z M241.1,40.3h0.8v-2.1h2v2.1h0.8v-5.1H244v2.3h-2v-2.3h-0.8V40.3z M236.7,37.8c0,1.6,0.4,2.6,1.7,2.6c0.6,0,1.3-0.1,1.8-0.2
		v-0.6c0,0-0.9,0.1-1.6,0.1c-0.9,0-1.1-0.7-1.1-1.8c0-1.6,0.3-1.9,1.1-1.9c0.7,0,1.6,0.1,1.6,0.1v-0.6c-0.5-0.1-1.2-0.2-1.8-0.2
		C237.1,35.2,236.7,36.1,236.7,37.8 M235,40.3h0.8v-5.1H235V40.3z M230.9,39.4c0,0.8,0.5,1,1,1h2.1v-0.8h-1.9c-0.2,0-0.4,0-0.4-0.4
		v-4h-0.8V39.4z M226.3,36h1.4v4.4h0.8V36h1.5v-0.8h-3.7V36z M222.2,40.3h0.8v-2.1l2.2-0.1v-0.7l-2.2-0.1v-1c0-0.2,0-0.4,0.4-0.4
		h2.1v-0.7c-0.3,0-2.2-0.1-2.2-0.1c-0.5,0-1,0.2-1,1V40.3z M218.5,38.4l0.7-2l0.7,2H218.5z M216.9,40.3h0.9l0.4-1.2h1.8l0.4,1.2h0.9
		l-1.7-5.1h-0.9L216.9,40.3z M212.4,40.3h0.8v-2.1h2v2.1h0.8v-5.1h-0.8v2.3h-2v-2.3h-0.8V40.3z M208,37.8c0,1.6,0.4,2.6,1.7,2.6
		c0.6,0,1.3-0.1,1.8-0.2v-0.6c0,0-0.9,0.1-1.6,0.1c-0.9,0-1.1-0.7-1.1-1.8c0-1.6,0.3-1.9,1.1-1.9c0.7,0,1.6,0.1,1.6,0.1v-0.6
		c-0.5-0.1-1.2-0.2-1.8-0.2C208.3,35.2,208,36.1,208,37.8 M203.7,36.9c0,0.5,0.1,1.3,1.3,1.3h0.9c0.4,0,0.5,0.2,0.5,0.6v0.3
		c0,0.5-0.4,0.5-0.7,0.5c-0.7,0-1.5,0-1.8-0.1v0.6c0.5,0.1,1.2,0.2,1.9,0.2c0.7,0,1.4-0.2,1.4-1.3v-0.4c0-0.6-0.2-1.3-1.2-1.3h-0.9
		c-0.4,0-0.6-0.1-0.6-0.6v-0.3c0-0.6,0.3-0.6,0.7-0.6c0.2,0,1.3,0,1.7,0.1v-0.6c-0.4-0.1-1.3-0.2-1.9-0.2c-0.8,0-1.4,0.3-1.4,1.3
		V36.9z"/>
	<path fill="#FFFFFF" d="M257.7,30.2h2.2v-0.7h-2.2V30.2z M254,28h1.4v4.4h0.8V28h1.5v-0.8H254V28z M250.4,29.6V28h1.3
		c0.3,0,0.6,0.1,0.6,0.8c0,0.7-0.2,0.8-0.6,0.8H250.4z M249.6,32.3h0.8v-2.1l1.1,0.1l0.9,2h0.9l-1-2.1c0.3-0.1,0.8-0.2,0.8-1.5
		c0-1.2-0.6-1.6-1.3-1.6h-2.2V32.3z M247.7,32.3h0.8v-5.1h-0.8V32.3z M240.4,27.2l1.7,5.1h0.9l0.7-2.3l0.8,2.3h0.9l1.5-5.1H246
		l-1.1,4l-0.9-2.5l0.4-1.4h-0.9l-1,4l-1.3-4H240.4z M235.6,32.3h0.8v-3.6l2.3,3.6h0.8v-5.1h-0.8v3.6l-2.3-3.6h-0.8V32.3z
		 M230.6,30.1c0,2.3,1,2.3,1.9,2.3c0.8,0,1.9,0,1.9-2.3v-2.9h-0.8v2.9c0,1.4-0.4,1.5-1.1,1.5c-0.8,0-1.1-0.1-1.1-1.5v-2.9h-0.8V30.1
		z M226.5,32.2c0,0.1,0.1,0.2,0.2,0.2h0.5c0.1,0,0.2,0,0.2-0.2v-0.5c0-0.1,0-0.2-0.2-0.2h-0.5c-0.1,0-0.2,0.1-0.2,0.2V32.2z
		 M221.4,32.3h0.8v-3.6l2.3,3.6h0.8v-5.1h-0.8v3.6l-2.3-3.6h-0.8V32.3z M217.2,29.8c0-1.8,0.4-1.9,1.2-1.9c0.8,0,1.2,0.1,1.2,1.9
		c0,1.5-0.3,1.8-1.2,1.8C217.4,31.6,217.2,31.4,217.2,29.8 M216.4,29.8c0,2.3,0.8,2.6,2,2.6c1.3,0,2-0.3,2-2.6c0-2.4-0.8-2.6-2-2.6
		C217.2,27.2,216.4,27.4,216.4,29.8 M212.2,32.3h0.8v-2.2h0.5l1.4,2.2h1l-1.6-2.6l1.6-2.6h-1l-1.4,2.2H213v-2.2h-0.8V32.3z
		 M209.6,26.4c0,0.2,0.2,0.4,0.4,0.4c0.2,0,0.4-0.2,0.4-0.4c0-0.2-0.2-0.4-0.4-0.4C209.8,26,209.6,26.2,209.6,26.4 M207.8,26.4
		c0,0.2,0.2,0.4,0.4,0.4c0.2,0,0.4-0.2,0.4-0.4c0-0.2-0.2-0.4-0.4-0.4C208,26,207.8,26.2,207.8,26.4 M207.9,29.8
		c0-1.8,0.4-1.9,1.2-1.9c0.8,0,1.2,0.1,1.2,1.9c0,1.5-0.3,1.8-1.2,1.8C208.2,31.6,207.9,31.4,207.9,29.8 M207.1,29.8
		c0,2.3,0.8,2.6,2,2.6c1.3,0,2-0.3,2-2.6c0-2.4-0.8-2.6-2-2.6C207.9,27.2,207.1,27.4,207.1,29.8"/>
</g>
</svg>
