<svg id="Ebene_1" data-name="Ebene 1" xmlns="http://www.w3.org/2000/svg" viewBox="0 0 193.92 438.83"><defs><style>.cls-1{fill:#959595;}.cls-1,.cls-3,.cls-4,.cls-5{fill-rule:evenodd;}.cls-2{fill:none;stroke:#fff;stroke-miterlimit:10;stroke-width:0.96px;}.cls-3{fill:#a5a5a5;}.cls-4{fill:#b6b6b6;}.cls-5{fill:#c6c6c6;}.cls-6{font-size:12px;fill:#9d2f3a;font-family:Calibri, Calibri;}.cls-7{letter-spacing:-0.02em;}.cls-8{letter-spacing:-0.02em;}.cls-9{letter-spacing:-0.02em;}.cls-10{letter-spacing:-0.01em;}.cls-11{letter-spacing:-0.02em;}.cls-12{letter-spacing:-0.01em;}.cls-13{letter-spacing:-0.01em;}.cls-14{letter-spacing:-0.02em;}.cls-15{letter-spacing:-0.01em;}.cls-16{letter-spacing:0em;}</style></defs><title>Personal und Ressourcen 2018-02-05</title><path class="cls-1" d="M369.37,118A72.89,72.89,0,1,1,458,189.19l-.81,11.39-19.44-19.13,22.43-23.15-.79,11.21A54.27,54.27,0,1,0,388,118Z" transform="translate(-321.71 -44.65)"/><path class="cls-2" d="M369.37,118A72.89,72.89,0,1,1,458,189.19l-.81,11.39-19.44-19.13,22.43-23.15-.79,11.21A54.27,54.27,0,1,0,388,118Z" transform="translate(-321.71 -44.65)"/><path class="cls-3" d="M446.64,163.92l-13.16,13.16A54.28,54.28,0,1,0,377.94,267l-.79-11.21,22.43,23.15L380.14,298l-.81-11.39a72.9,72.9,0,1,1,67.31-122.71Z" transform="translate(-321.71 -44.65)"/><path class="cls-2" d="M446.64,163.92l-13.16,13.16A54.28,54.28,0,1,0,377.94,267l-.79-11.21,22.43,23.15L380.14,298l-.81-11.39a72.9,72.9,0,1,1,67.31-122.71Z" transform="translate(-321.71 -44.65)"/><path class="cls-4" d="M390.72,261.72A72.89,72.89,0,1,1,458,384.43l-.81,11.39-19.44-19.13,22.43-23.15-.79,11.21a54.27,54.27,0,1,0-55.54-89.87Z" transform="translate(-321.71 -44.65)"/><path class="cls-2" d="M390.72,261.72A72.89,72.89,0,1,1,458,384.43l-.81,11.39-19.44-19.13,22.43-23.15-.79,11.21a54.27,54.27,0,1,0-55.54-89.87Z" transform="translate(-321.71 -44.65)"/><path class="cls-5" d="M468.12,410.1a72.86,72.86,0,1,1-21.31-51.53L433.68,371.7a54.38,54.38,0,1,0,15.88,38.4Z" transform="translate(-321.71 -44.65)"/><path class="cls-2" d="M468.12,410.1a72.86,72.86,0,1,1-21.31-51.53L433.68,371.7a54.38,54.38,0,1,0,15.88,38.4Z" transform="translate(-321.71 -44.65)"/><text class="cls-6" transform="translate(83.57 69.77)"><tspan class="cls-7">K</tspan><tspan x="6.02" y="0">odier</tspan><tspan class="cls-8" x="31.56" y="0">f</tspan><tspan x="34.99" y="0">achk</tspan><tspan class="cls-9" x="57.57" y="0">r</tspan><tspan class="cls-10" x="61.51" y="0">a</tspan><tspan x="67.18" y="0">ft</tspan></text><text class="cls-6" transform="translate(38.12 175.63)">MD<tspan class="cls-11" x="17.64" y="0">K</tspan><tspan x="23.68" y="0">-Mana</tspan><tspan class="cls-12" x="55.41" y="0">g</tspan><tspan x="60.96" y="0">er</tspan></text><text class="cls-6" transform="translate(101.68 259.44)">Leitung<tspan x="-27.54" y="14.4">Medizin</tspan><tspan class="cls-12" x="11.54" y="14.4">c</tspan><tspan x="16.52" y="14.4">o</tspan><tspan class="cls-13" x="22.85" y="14.4">n</tspan><tspan x="29.04" y="14.4">t</tspan><tspan class="cls-14" x="33.06" y="14.4">r</tspan><tspan x="37.05" y="14.4">olling</tspan></text><text class="cls-6" transform="translate(56.81 359.45)">Ande<tspan class="cls-15" x="25.52" y="0">r</tspan><tspan x="29.55" y="0">e</tspan><tspan x="-9.8" y="14.4">Fun</tspan><tspan class="cls-16" x="8.33" y="14.4">k</tspan><tspan x="13.72" y="14.4">tionen</tspan></text></svg>