<svg id="Ebene_1" data-name="Ebene 1" xmlns="http://www.w3.org/2000/svg" viewBox="0 0 180.71 499.89"><defs><style>.cls-1{fill:#787878;}.cls-1,.cls-3,.cls-4{fill-rule:evenodd;}.cls-2{fill:none;stroke:#fff;stroke-miterlimit:10;stroke-width:0.96px;}.cls-3{fill:#9d9d9d;}.cls-4{fill:#c1c1c1;}.cls-5{font-size:9px;fill:#9d2f3a;font-family:Calibri, Calibri;}.cls-6{letter-spacing:0em;}.cls-7{letter-spacing:-0.03em;}.cls-8{letter-spacing:0em;}.cls-9{letter-spacing:-0.04em;}.cls-10{letter-spacing:-0.01em;}.cls-11{letter-spacing:0em;}.cls-12{letter-spacing:-0.01em;}.cls-13{letter-spacing:-0.01em;}.cls-14{letter-spacing:-0.02em;}.cls-15{letter-spacing:-0.01em;}.cls-16{letter-spacing:-0.01em;}.cls-17{letter-spacing:-0.01em;}.cls-18{letter-spacing:-0.02em;}.cls-19{letter-spacing:-0.02em;}.cls-20{letter-spacing:0em;}.cls-21{letter-spacing:-0.02em;}.cls-22{letter-spacing:-0.01em;}.cls-23{letter-spacing:-0.01em;}.cls-24{letter-spacing:-0.01em;}.cls-25{letter-spacing:-0.03em;}.cls-26{letter-spacing:-0.01em;}.cls-27{letter-spacing:-0.03em;}.cls-28{letter-spacing:0em;}.cls-29{letter-spacing:-0.01em;}.cls-30{letter-spacing:-0.03em;}.cls-31{letter-spacing:-0.02em;}</style></defs><title>medizinisches Leistungsportfolio 2018-02-05_2</title><path class="cls-1" d="M434.07,100a67.89,67.89,0,1,1,82.59,66.34L515.91,177l-18.13-17.82,20.91-21.56L518,148a50.6,50.6,0,1,0-66.54-48Z" transform="translate(-389.65 -31.59)"/><path class="cls-2" d="M434.07,100a67.89,67.89,0,1,1,82.59,66.34L515.91,177l-18.13-17.82,20.91-21.56L518,148a50.6,50.6,0,1,0-66.54-48Z" transform="translate(-389.65 -31.59)"/><path class="cls-3" d="M506.07,142.71,493.81,155a50.59,50.59,0,1,0-51.76,83.78l-.74-10.44,20.91,21.56-18.13,17.82-.75-10.61a67.95,67.95,0,1,1,62.73-114.37Z" transform="translate(-389.65 -31.59)"/><path class="cls-2" d="M506.07,142.71,493.81,155a50.59,50.59,0,1,0-51.76,83.78l-.74-10.44,20.91,21.56-18.13,17.82-.75-10.61a67.95,67.95,0,1,1,62.73-114.37Z" transform="translate(-389.65 -31.59)"/><path class="cls-4" d="M453.93,233.91a67.92,67.92,0,1,1,62.73,114.37l-.75,10.61-18.13-17.82,20.91-21.56L518,330a50.6,50.6,0,1,0-51.76-83.78Z" transform="translate(-389.65 -31.59)"/><path class="cls-2" d="M453.93,233.91a67.92,67.92,0,1,1,62.73,114.37l-.75,10.61-18.13-17.82,20.91-21.56L518,330a50.6,50.6,0,1,0-51.76-83.78Z" transform="translate(-389.65 -31.59)"/><path class="cls-4" d="M506.07,324.87l-12.26,12.26a50.59,50.59,0,1,0-51.76,83.78l-.74-10.44L462.22,432l-18.13,17.82-.75-10.61a67.95,67.95,0,1,1,62.73-114.37Z" transform="translate(-389.65 -31.59)"/><path class="cls-2" d="M506.07,324.87l-12.26,12.26a50.59,50.59,0,1,0-51.76,83.78l-.74-10.44L462.22,432l-18.13,17.82-.75-10.61a67.95,67.95,0,1,1,62.73-114.37Z" transform="translate(-389.65 -31.59)"/><path class="cls-3" d="M454,415.07a68,68,0,1,1-19.85,48h17.29a50.6,50.6,0,1,0,14.79-35.78Z" transform="translate(-389.65 -31.59)"/><path class="cls-2" d="M454,415.07a68,68,0,1,1-19.85,48h17.29a50.6,50.6,0,1,0,14.79-35.78Z" transform="translate(-389.65 -31.59)"/><text class="cls-5" transform="translate(91.85 57.74)">Mar<tspan class="cls-6" x="15.14" y="0">k</tspan><tspan class="cls-7" x="19.19" y="0">t</tspan><tspan class="cls-8" x="21.93" y="0">- und</tspan><tspan class="cls-9" x="-20.19" y="10.8">W</tspan><tspan class="cls-10" x="-12.51" y="10.8">e</tspan><tspan class="cls-11" x="-8.08" y="10.8">ttb</tspan><tspan class="cls-6" x="2.35" y="10.8">e</tspan><tspan class="cls-12" x="6.79" y="10.8">w</tspan><tspan x="13.14" y="10.8">er</tspan><tspan class="cls-6" x="20.76" y="10.8">b</tspan><tspan class="cls-11" x="25.44" y="10.8">sanal</tspan><tspan class="cls-13" x="44.38" y="10.8">y</tspan><tspan class="cls-8" x="48.37" y="10.8">sen</tspan></text><text class="cls-5" transform="translate(46.55 148.08)">St<tspan class="cls-14" x="7.15" y="0">r</tspan><tspan class="cls-15" x="10.1" y="0">a</tspan><tspan class="cls-16" x="14.33" y="0">t</tspan><tspan x="17.25" y="0">egisch-</tspan><tspan x="-21.97" y="10.8">medizinische An</tspan><tspan class="cls-17" x="37.41" y="10.8">g</tspan><tspan x="41.57" y="10.8">ebots-</tspan><tspan x="-7.87" y="21.6">und Zielplanung</tspan></text><text class="cls-5" transform="translate(82.73 233.41)"><tspan class="cls-18">K</tspan><tspan x="4.51" y="0">on</tspan><tspan class="cls-19" x="13.99" y="0">z</tspan><tspan class="cls-11" x="17.34" y="0">e</tspan><tspan class="cls-20" x="21.82" y="0">p</tspan><tspan x="26.51" y="0">tion </tspan><tspan class="cls-13" x="43.03" y="0">v</tspan><tspan x="47.01" y="0">on</tspan><tspan class="cls-21" x="0.08" y="10.8">K</tspan><tspan x="4.59" y="10.8">oope</tspan><tspan class="cls-14" x="23.29" y="10.8">r</tspan><tspan class="cls-22" x="26.24" y="10.8">a</tspan><tspan class="cls-8" x="30.47" y="10.8">tionen,</tspan><tspan x="-10.61" y="21.6">Zusammenschlüssen,</tspan><tspan x="10.89" y="32.4">MVZ, </tspan><tspan class="cls-23" x="32.19" y="32.4">e</tspan><tspan class="cls-24" x="36.62" y="32.4">t</tspan><tspan class="cls-11" x="39.52" y="32.4">c.</tspan></text><text class="cls-5" transform="translate(41.51 327.3)">Mar<tspan class="cls-25" x="15.14" y="0">k</tspan><tspan class="cls-23" x="18.95" y="0">e</tspan><tspan x="23.38" y="0">ting-/</tspan><tspan x="-14.5" y="10.8">Zu</tspan><tspan class="cls-26" x="-5.55" y="10.8">w</tspan><tspan class="cls-11" x="0.8" y="10.8">eisermar</tspan><tspan class="cls-25" x="33.12" y="10.8">k</tspan><tspan class="cls-23" x="36.92" y="10.8">e</tspan><tspan class="cls-8" x="41.35" y="10.8">ting-</tspan><tspan x="3.18" y="21.6">St</tspan><tspan class="cls-14" x="10.33" y="21.6">r</tspan><tspan class="cls-22" x="13.28" y="21.6">a</tspan><tspan class="cls-16" x="17.51" y="21.6">t</tspan><tspan class="cls-8" x="20.42" y="21.6">egien</tspan></text><text class="cls-5" transform="translate(79.27 419.41)">Businesspläne mit<tspan x="-4.77" y="10.8">Benchmar</tspan><tspan class="cls-27" x="32.5" y="10.8">k</tspan><tspan x="36.35" y="10.8">d</tspan><tspan class="cls-15" x="41.08" y="10.8">a</tspan><tspan class="cls-16" x="45.31" y="10.8">t</tspan><tspan x="48.22" y="10.8">en </tspan><tspan class="cls-28" x="59.46" y="10.8">z</tspan><tspan x="62.98" y="10.8">ur</tspan><tspan x="-6.2" y="21.6">Plausibili</tspan><tspan class="cls-24" x="26.06" y="21.6">t</tspan><tspan class="cls-29" x="28.97" y="21.6">ä</tspan><tspan class="cls-8" x="33.2" y="21.6">ts</tspan><tspan class="cls-30" x="39.73" y="21.6">k</tspan><tspan x="43.52" y="21.6">o</tspan><tspan class="cls-13" x="48.27" y="21.6">n</tspan><tspan class="cls-11" x="52.91" y="21.6">t</tspan><tspan class="cls-31" x="55.92" y="21.6">r</tspan><tspan x="58.92" y="21.6">olle</tspan></text></svg>