<svg id="Ebene_1" data-name="Ebene 1" xmlns="http://www.w3.org/2000/svg" viewBox="0 0 861 156"><defs><style>.cls-1{fill:#fff;}.cls-1,.cls-2,.cls-3{stroke:#777776;}.cls-1,.cls-2{stroke-miterlimit:10;}.cls-2,.cls-3{fill:#777776;}.cls-3{stroke-linejoin:bevel;}.cls-4{font-size:21px;}.cls-11,.cls-4,.cls-7{font-family:Calibri, Calibri;}.cls-5{letter-spacing:-0.01em;}.cls-6{letter-spacing:-0.01em;}.cls-11,.cls-7{font-size:15px;}.cls-7{fill:#9d2f3a;}.cls-8{letter-spacing:-0.02em;}.cls-9{letter-spacing:-0.01em;}.cls-10{letter-spacing:-0.02em;}.cls-12{letter-spacing:-0.02em;}.cls-13{letter-spacing:-0.01em;}.cls-14{letter-spacing:-0.01em;}</style></defs><title>effiziente Prozesse 2018-02-04_2</title><circle class="cls-1" cx="78" cy="78" r="77.5"/><circle class="cls-1" cx="471" cy="78" r="77.5"/><circle class="cls-1" cx="627" cy="78" r="77.5"/><circle class="cls-1" cx="783" cy="78" r="77.5"/><line class="cls-2" x1="158.5" y1="75.5" x2="192.5" y2="42.5"/><line class="cls-3" x1="192.25" y1="42.5" x2="210.25" y2="42.5"/><line class="cls-2" x1="390.25" y1="75.5" x2="356.25" y2="42.5"/><line class="cls-3" x1="356.5" y1="42.5" x2="338.5" y2="42.5"/><line class="cls-2" x1="158.5" y1="80.5" x2="192.5" y2="113.5"/><line class="cls-3" x1="192.25" y1="113.5" x2="210.25" y2="113.5"/><line class="cls-2" x1="390.25" y1="80.5" x2="356.25" y2="113.5"/><line class="cls-3" x1="356.5" y1="113.5" x2="338.5" y2="113.5"/><text class="cls-4" transform="translate(231.62 47.88)">S<tspan class="cls-5" x="9.65" y="0">t</tspan><tspan x="16.43" y="0">anda</tspan><tspan class="cls-6" x="58.61" y="0">r</tspan><tspan x="65.65" y="0">ds</tspan></text><text class="cls-4" transform="translate(230.62 118.88)">Individuell</text><text class="cls-7" transform="translate(38.41 73.33)">Medizinische<tspan x="13.58" y="18">P</tspan><tspan class="cls-8" x="21.33" y="18">r</tspan><tspan class="cls-9" x="26.32" y="18">o</tspan><tspan class="cls-10" x="34.03" y="18">z</tspan><tspan x="39.62" y="18">esse</tspan></text><text class="cls-11" transform="translate(446.79 82.33)">Planung</text><text class="cls-11" transform="translate(603.97 82.33)">Abläu<tspan class="cls-12" x="35.07" y="0">f</tspan><tspan x="39.27" y="0">e</tspan></text><text class="cls-11" transform="translate(735.9 82.33)">Do<tspan class="cls-13" x="17.14" y="0">k</tspan><tspan x="23.77" y="0">ume</tspan><tspan class="cls-14" x="51.09" y="0">n</tspan><tspan class="cls-5" x="58.84" y="0">t</tspan><tspan class="cls-14" x="63.68" y="0">a</tspan><tspan x="70.72" y="0">tion</tspan></text></svg>