<svg id="Ebene_1" data-name="Ebene 1" xmlns="http://www.w3.org/2000/svg" viewBox="0 0 413 413"><defs><style>.cls-1{fill:#fff;stroke:#777776;stroke-miterlimit:10;opacity:0.5;}.cls-2{font-size:15px;fill:#9d2f3a;font-family:Calibri, Calibri;}.cls-3{letter-spacing:-0.02em;}.cls-4{letter-spacing:-0.01em;}.cls-5{letter-spacing:-0.02em;}.cls-6{letter-spacing:-0.01em;}.cls-7{letter-spacing:-0.01em;}.cls-8{letter-spacing:-0.01em;}.cls-9{letter-spacing:-0.03em;}.cls-10{letter-spacing:-0.01em;}.cls-11{letter-spacing:-0.02em;}</style></defs><title>Prozess und Dokumentationsqualität 2018-02-04_2</title><ellipse class="cls-1" cx="206.06" cy="121" rx="121.44" ry="120.5"/><ellipse class="cls-1" cx="291.06" cy="292" rx="121.44" ry="120.5"/><ellipse class="cls-1" cx="121.94" cy="292" rx="121.44" ry="120.5"/><text class="cls-2" transform="translate(181.15 115.99)">P<tspan class="cls-3" x="7.75" y="0">r</tspan><tspan class="cls-4" x="12.74" y="0">o</tspan><tspan class="cls-5" x="20.45" y="0">z</tspan><tspan x="26.04" y="0">ess-</tspan><tspan x="2.08" y="18">anal</tspan><tspan class="cls-6" x="27.77" y="18">y</tspan><tspan x="34.42" y="18">se</tspan></text><text class="cls-2" transform="translate(275.39 286.99)">Do<tspan class="cls-7" x="17.14" y="0">k</tspan><tspan x="23.77" y="0">ume</tspan><tspan class="cls-6" x="51.09" y="0">n</tspan><tspan class="cls-8" x="58.84" y="0">t</tspan><tspan class="cls-6" x="63.68" y="0">a</tspan><tspan x="70.72" y="0">tions-</tspan><tspan x="29.83" y="18">anal</tspan><tspan class="cls-6" x="55.52" y="18">y</tspan><tspan x="62.17" y="18">se</tspan></text><text class="cls-2" transform="translate(35.69 286.99)"><tspan class="cls-9">F</tspan><tspan x="6.49" y="0">allbeglei</tspan><tspan class="cls-10" x="57.31" y="0">t</tspan><tspan x="62.18" y="0">endes</tspan><tspan class="cls-11" x="22.07" y="18">K</tspan><tspan x="29.59" y="18">odie</tspan><tspan class="cls-4" x="56.29" y="18">r</tspan><tspan x="61.32" y="18">en</tspan></text></svg>