<?xml version="1.0" encoding="utf-8"?>
<!-- Generator: Adobe Illustrator 21.1.0, SVG Export Plug-In . SVG Version: 6.00 Build 0)  -->
<svg version="1.1" id="Ebene_1" xmlns="http://www.w3.org/2000/svg" xmlns:xlink="http://www.w3.org/1999/xlink" x="0px" y="0px"
	 viewBox="0 0 85 85" style="enable-background:new 0 0 85 85;" xml:space="preserve">
<style type="text/css">
	.st0{fill:#9D2F3A;stroke:#FFFFFF;stroke-miterlimit:10;}
	.st1{fill:#FFFFFF;}
	.st2{clip-path:url(#SVGID_2_);fill:#FFFFFF;}
	.st3{clip-path:url(#SVGID_4_);fill:#FFFFFF;}
	.st4{clip-path:url(#SVGID_6_);fill:#FFFFFF;}
	.st5{clip-path:url(#SVGID_8_);fill:#FFFFFF;}
	.st6{clip-path:url(#SVGID_10_);fill:#FFFFFF;}
	.st7{clip-path:url(#SVGID_12_);fill:#FFFFFF;}
	.st8{clip-path:url(#SVGID_14_);fill:#FFFFFF;}
	.st9{clip-path:url(#SVGID_16_);fill:#FFFFFF;}
	.st10{clip-path:url(#SVGID_18_);fill:#FFFFFF;}
</style>
<path class="st0" d="M42.1,42.9H13.8c0-7.5,3-14.7,8.3-20s12.5-8.3,20-8.3V42.9z"/>
<path class="st0" d="M42.1,42.9v28.3c-7.5,0-14.7-3-20-8.3s-8.3-12.5-8.3-20H42.1z"/>
<path class="st0" d="M42.1,42.9h28.3c0,7.5-3,14.7-8.3,20s-12.5,8.3-20,8.3V42.9z"/>
<path class="st0" d="M42.1,42.9V14.5c7.5,0,14.7,3,20,8.3s8.3,12.5,8.3,20H42.1z"/>
<path class="st1" d="M37.7,46c2.4,0,7.3,0.1,11.4,1.5v4.1c0,0-4.5-0.3-8.6-0.3c-3,0-4.4,0.2-4.4,7.5c0,6.4,1.1,7.3,4.4,7.3
	c4.3,0,9-0.4,9-0.4v4.1c-3.6,1.8-7.9,1.5-11.8,1.6c-4.6,0-8.2-2.4-8.2-12.7C29.5,48.4,32.9,46,37.7,46z"/>
<g>
	<defs>
		<path id="SVGID_7_" d="M62.2,22.8c-5.3-5.3-12.5-8.3-20-8.3s-14.7,3-20,8.3s-8.3,12.5-8.3,20s3,14.7,8.3,20
			c5.3,5.3,12.5,8.3,20,8.3s14.7-3,20-8.3c5.3-5.3,8.3-12.5,8.3-20S67.5,28.1,62.2,22.8z"/>
	</defs>
	<clipPath id="SVGID_2_">
		<use xlink:href="#SVGID_7_"  style="overflow:visible;"/>
	</clipPath>
	<path class="st2" d="M18.8,19.9h5.1v11.6h2.2l7-11.6h6.2l-8.5,13.9l8.5,13.8h-6.2l-7-11.5h-2.2v11.5h-5.1V19.9z"/>
	<path class="st2" d="M42,14h5.1v11.4c1.6-1.2,3.2-2.4,6.2-2.4c4.6,0,5.9,3.1,5.9,6.9v13h-5.2V29.8c0-1.9-0.9-2.6-2.2-2.6
		c-2.1,0-3.2,0.5-4.7,1.7v14.1H42V14z"/>
</g>
</svg>
