<?xml version="1.0" encoding="utf-8"?>
<!-- Generator: Adobe Illustrator 21.1.0, SVG Export Plug-In . SVG Version: 6.00 Build 0)  -->
<svg version="1.1" id="Ebene_1" xmlns="http://www.w3.org/2000/svg" xmlns:xlink="http://www.w3.org/1999/xlink" x="0px" y="0px"
	 viewBox="0 0 85 85" style="enable-background:new 0 0 85 85;" xml:space="preserve">
<style type="text/css">
	.st0{fill:#9D2F3A;stroke:#FFFFFF;stroke-miterlimit:10;}
	.st1{fill:#FFFFFF;}
	.st2{clip-path:url(#SVGID_2_);fill:#FFFFFF;}
	.st3{clip-path:url(#SVGID_4_);fill:#FFFFFF;}
	.st4{clip-path:url(#SVGID_6_);fill:#FFFFFF;}
	.st5{clip-path:url(#SVGID_8_);fill:#FFFFFF;}
	.st6{clip-path:url(#SVGID_10_);fill:#FFFFFF;}
	.st7{clip-path:url(#SVGID_12_);fill:#FFFFFF;}
	.st8{clip-path:url(#SVGID_14_);fill:#FFFFFF;}
	.st9{clip-path:url(#SVGID_16_);fill:#FFFFFF;}
	.st10{clip-path:url(#SVGID_18_);fill:#FFFFFF;}
</style>
<path class="st0" d="M42.8,43.2H14.4c0-7.5,3-14.7,8.3-20s12.5-8.3,20-8.3V43.2z"/>
<path class="st0" d="M42.8,43.2v28.3c-7.5,0-14.7-3-20-8.3s-8.3-12.5-8.3-20H42.8z"/>
<path class="st0" d="M42.8,43.2h28.3c0,7.5-3,14.7-8.3,20s-12.5,8.3-20,8.3V43.2z"/>
<path class="st0" d="M42.8,43.2V14.8c7.5,0,14.7,3,20,8.3s8.3,12.5,8.3,20H42.8z"/>
<path class="st1" d="M31.1,28h3.3l0.6,1.9c1-1,2.4-2,4.3-2c0.6,0,1.3,0,1.7,0.2v3.8c-0.4,0-1.3-0.1-2.1-0.1c-1.6,0-2.8,0.3-3.8,1.7
	v9.5h-3.9V28z"/>
<path class="st1" d="M42.6,37.7c0-2.2,1.2-4.1,4.4-4.1c0,0,4.4,0,4.4,0c0,0,0-0.9,0-1c0-1.6-0.7-1.8-2-1.8c-1.3,0-5,0.2-6.2,0.3
	v-2.4c2-0.8,4-1,6.8-1c3.2,0,5.4,1.1,5.4,4.8v10.4h-3.1l-0.8-1.6c-0.2,0.3-2.2,1.9-4.5,1.8c-2.9-0.1-4.2-2-4.2-4V37.7z M47.9,39.9
	c1.6,0,3.4-1.2,3.4-1.2V36l-3.6,0.3c-1,0.1-1.2,0.9-1.2,1.5v0.7C46.5,39.8,47.2,39.9,47.9,39.9z"/>
<g>
	<defs>
		<path id="SVGID_15_" d="M62.8,23.1c-5.3-5.3-12.5-8.3-20-8.3c-7.5,0-14.7,3-20,8.3s-8.3,12.5-8.3,20s3,14.7,8.3,20
			s12.5,8.3,20,8.3c7.5,0,14.7-3,20-8.3s8.3-12.5,8.3-20S68.1,28.4,62.8,23.1z"/>
	</defs>
	<clipPath id="SVGID_2_">
		<use xlink:href="#SVGID_15_"  style="overflow:visible;"/>
	</clipPath>
	<path class="st2" d="M14.6,22.4h8.8c2.6,0,5.7,0.8,5.7,6.3c0,6.2-3.3,6.7-5.7,6.6c-1.1,0-4.7-0.5-4.9-0.6v8.1h-3.9V22.4z
		 M23.1,31.8c1.2,0,2-0.6,2-3.1c0-2.4-1.1-2.9-2-2.9h-4.6v6H23.1z"/>
	<path class="st2" d="M57.7,21h3.9v12h0.8l4.2-5h5l-5.6,6.5l5.6,8.4H67L62.5,36h-0.8v6.9h-3.9V21z"/>
</g>
</svg>
