<?xml version="1.0" encoding="utf-8"?>
<!-- Generator: Adobe Illustrator 21.1.0, SVG Export Plug-In . SVG Version: 6.00 Build 0)  -->
<svg version="1.1" id="Ebene_1" xmlns="http://www.w3.org/2000/svg" xmlns:xlink="http://www.w3.org/1999/xlink" x="0px" y="0px"
	 viewBox="0 0 85 85" style="enable-background:new 0 0 85 85;" xml:space="preserve">
<style type="text/css">
	.st0{fill:#9D2F3A;stroke:#FFFFFF;stroke-miterlimit:10;}
	.st1{fill:#FFFFFF;}
	.st2{clip-path:url(#SVGID_2_);fill:#FFFFFF;}
	.st3{clip-path:url(#SVGID_4_);fill:#FFFFFF;}
	.st4{clip-path:url(#SVGID_6_);fill:#FFFFFF;}
	.st5{clip-path:url(#SVGID_8_);fill:#FFFFFF;}
	.st6{clip-path:url(#SVGID_10_);fill:#FFFFFF;}
	.st7{clip-path:url(#SVGID_12_);fill:#FFFFFF;}
	.st8{clip-path:url(#SVGID_14_);fill:#FFFFFF;}
	.st9{clip-path:url(#SVGID_16_);fill:#FFFFFF;}
	.st10{clip-path:url(#SVGID_18_);fill:#FFFFFF;}
</style>
<path class="st0" d="M41.9,42.9H13.6c0-7.5,3-14.7,8.3-20s12.5-8.3,20-8.3V42.9z"/>
<path class="st0" d="M41.9,42.9v28.3c-7.5,0-14.7-3-20-8.3s-8.3-12.5-8.3-20H41.9z"/>
<path class="st0" d="M41.9,42.9h28.3c0,7.5-3,14.7-8.3,20s-12.5,8.3-20,8.3V42.9z"/>
<path class="st0" d="M41.9,42.9V14.5c7.5,0,14.7,3,20,8.3s8.3,12.5,8.3,20H41.9z"/>
<path class="st1" d="M35.1,27.7l2.5-0.5v-2.9c0-2.7,1.1-4.6,4.6-4.6c1.4,0,2.7,0.2,3.9,0.7v2.4c0,0-2.8,0-2.8,0
	c-1.7,0-1.6,0.8-1.6,2.4v1.9h3.5v3.2h-3.5v12.5h-4.1V30.3h-2.5V27.7z"/>
<g>
	<defs>
		<path id="SVGID_11_" d="M61.9,22.8c-5.3-5.3-12.5-8.3-20-8.3s-14.7,3-20,8.3c-5.3,5.3-8.3,12.5-8.3,20s3,14.7,8.3,20
			c5.3,5.3,12.5,8.3,20,8.3s14.7-3,20-8.3c5.3-5.3,8.3-12.5,8.3-20S67.3,28.2,61.9,22.8z"/>
	</defs>
	<clipPath id="SVGID_2_">
		<use xlink:href="#SVGID_11_"  style="overflow:visible;"/>
	</clipPath>
	<path class="st2" d="M20.3,21.3h4v9H26l5.5-9h4.8l-6.6,10.8l6.6,10.8h-4.8L26,33.9h-1.7v8.9h-4V21.3z"/>
	<path class="st2" d="M47.2,27.2h3.3l0.8,1.7c1.4-1,2.5-1.9,4.9-1.9c2,0,3.4,0.8,4.1,2c1.4-1,3.2-2,5.6-2c3.5,0,4.7,2.3,4.7,5.5
		v10.4h-4.1V32.4c0-1.5-0.7-2.1-1.7-2.1c-1.6,0-2.7,0.3-3.8,1.2c0,0.1,0,0.8,0,0.9v10.4h-4.1V32.4c0-1.5-0.7-2.1-1.7-2.1
		c-1.6,0-2.5,0.4-3.7,1.3v11.2h-4.1V27.2z"/>
	<path class="st2" d="M38.7,42.9h6.1L54,71.1h-5.7l-2-6.3H37l-2,6.3h-5.8L38.7,42.9z M45,60.1L41.8,50l-3.4,10.1H45z"/>
</g>
</svg>
