<?xml version="1.0" encoding="utf-8"?>
<!-- Generator: Adobe Illustrator 21.1.0, SVG Export Plug-In . SVG Version: 6.00 Build 0)  -->
<svg version="1.1" id="Ebene_1" xmlns="http://www.w3.org/2000/svg" xmlns:xlink="http://www.w3.org/1999/xlink" x="0px" y="0px"
	 viewBox="0 0 85 85" style="enable-background:new 0 0 85 85;" xml:space="preserve">
<style type="text/css">
	.st0{fill:#9D2F3A;stroke:#FFFFFF;stroke-miterlimit:10;}
	.st1{fill:#FFFFFF;}
	.st2{clip-path:url(#SVGID_2_);fill:#FFFFFF;}
	.st3{clip-path:url(#SVGID_4_);fill:#FFFFFF;}
	.st4{clip-path:url(#SVGID_6_);fill:#FFFFFF;}
	.st5{clip-path:url(#SVGID_8_);fill:#FFFFFF;}
	.st6{clip-path:url(#SVGID_10_);fill:#FFFFFF;}
	.st7{clip-path:url(#SVGID_12_);fill:#FFFFFF;}
	.st8{clip-path:url(#SVGID_14_);fill:#FFFFFF;}
	.st9{clip-path:url(#SVGID_16_);fill:#FFFFFF;}
	.st10{clip-path:url(#SVGID_18_);fill:#FFFFFF;}
</style>
<path class="st0" d="M41.5,43.2H13.2c0-7.5,3-14.7,8.3-20s12.5-8.3,20-8.3V43.2z"/>
<path class="st0" d="M41.5,43.2v28.3c-7.5,0-14.7-3-20-8.3s-8.3-12.5-8.3-20H41.5z"/>
<path class="st0" d="M41.5,43.2h28.3c0,7.5-3,14.7-8.3,20s-12.5,8.3-20,8.3V43.2z"/>
<path class="st0" d="M41.5,43.2V14.8c7.5,0,14.7,3,20,8.3s8.3,12.5,8.3,20H41.5z"/>
<path class="st1" d="M36.6,31h10.3c7,0,8.4,6.2,8.4,12.2c0,7.1-2.5,12-8.4,12H36.6V31z M46.5,51.1c3,0,4.1-3.1,4.1-7.9
	c0-6.5-1.6-8.1-4.1-8.1h-5.3v16H46.5z"/>
<g>
	<defs>
		<path id="SVGID_3_" d="M61.6,23.1c-5.3-5.3-12.5-8.3-20-8.3c-7.5,0-14.7,3-20,8.3s-8.3,12.5-8.3,20s3,14.7,8.3,20
			c5.3,5.3,12.5,8.3,20,8.3c7.5,0,14.7-3,20-8.3c5.3-5.3,8.3-12.5,8.3-20S66.9,28.5,61.6,23.1z"/>
	</defs>
	<clipPath id="SVGID_2_">
		<use xlink:href="#SVGID_3_"  style="overflow:visible;"/>
	</clipPath>
	<path class="st2" d="M14,31h6.4l4,16.6l4-16.6h6.4l2.3,24.3h-4.6L31,39l-3.9,16.2h-5.2L17.8,39l-1.4,16.2h-4.6L14,31z"/>
	<path class="st2" d="M55,31h4.5v10.1h2L67.5,31h5.4l-7.4,12.2l7.4,12.1h-5.4l-6.1-10h-1.9v10H55V31z"/>
</g>
</svg>
