<?xml version="1.0" encoding="utf-8"?>
<!-- Generator: Adobe Illustrator 21.1.0, SVG Export Plug-In . SVG Version: 6.00 Build 0)  -->
<svg version="1.1" id="Ebene_1" xmlns="http://www.w3.org/2000/svg" xmlns:xlink="http://www.w3.org/1999/xlink" x="0px" y="0px"
	 viewBox="0 0 85 85" style="enable-background:new 0 0 85 85;" xml:space="preserve">
<style type="text/css">
	.st0{fill:#9D2F3A;stroke:#FFFFFF;stroke-miterlimit:10;}
	.st1{fill:#FFFFFF;}
	.st2{clip-path:url(#SVGID_2_);fill:#FFFFFF;}
	.st3{clip-path:url(#SVGID_4_);fill:#FFFFFF;}
	.st4{clip-path:url(#SVGID_6_);fill:#FFFFFF;}
	.st5{clip-path:url(#SVGID_8_);fill:#FFFFFF;}
	.st6{clip-path:url(#SVGID_10_);fill:#FFFFFF;}
	.st7{clip-path:url(#SVGID_12_);fill:#FFFFFF;}
	.st8{clip-path:url(#SVGID_14_);fill:#FFFFFF;}
	.st9{clip-path:url(#SVGID_16_);fill:#FFFFFF;}
	.st10{clip-path:url(#SVGID_18_);fill:#FFFFFF;}
</style>
<path class="st0" d="M42.5,43H14.2c0-7.5,3-14.7,8.3-20s12.5-8.3,20-8.3V43z"/>
<path class="st0" d="M42.5,43v28.3c-7.5,0-14.7-3-20-8.3s-8.3-12.5-8.3-20H42.5z"/>
<path class="st0" d="M42.5,43h28.3c0,7.5-3,14.7-8.3,20s-12.5,8.3-20,8.3V43z"/>
<path class="st0" d="M42.5,43V14.7c7.5,0,14.7,3,20,8.3s8.3,12.5,8.3,20H42.5z"/>
<path class="st1" d="M25,49.5h2.5v6.2c0,0.9,0.4,1.3,1,1.3c1,0,1.5-0.3,2.3-0.8v-6.7h2.5v9.3h-2l-0.5-1c-0.9,0.6-1.5,1.1-3,1.1
	c-2.2,0-2.8-1.5-2.8-3.3V49.5z"/>
<path class="st1" d="M42.6,43.4h6.7c1.9,0,4.3,0.6,4.3,4.8c0,4.7-2.5,5.1-4.3,5c-0.8,0-3.6-0.4-3.7-0.4v6.1h-3V43.4z M49,50.5
	c0.9,0,1.5-0.5,1.5-2.3c0-1.8-0.8-2.2-1.5-2.2h-3.5v4.5H49z"/>
<g>
	<defs>
		<path id="SVGID_9_" d="M62.6,23c-5.3-5.3-12.5-8.3-20-8.3c-7.5,0-14.7,3-20,8.3s-8.3,12.5-8.3,20c0,7.5,3,14.7,8.3,20
			s12.5,8.3,20,8.3c7.5,0,14.7-3,20-8.3s8.3-12.5,8.3-20C70.9,35.5,67.9,28.3,62.6,23z"/>
	</defs>
	<clipPath id="SVGID_2_">
		<use xlink:href="#SVGID_9_"  style="overflow:visible;"/>
	</clipPath>
	<path class="st2" d="M19.3,18.4h6.5l4.1,16.8L34,18.4h6.5l2.3,24.5h-4.6l-1.6-16.4l-4,16.4h-5.2l-4.1-16.4l-1.5,16.4h-4.6
		L19.3,18.4z"/>
	<path class="st2" d="M53.8,43.4h4.1L60.5,54l2.6-10.6h4.1l1.5,15.5h-2.9l-1-10.3l-2.5,10.3h-3.3l-2.6-10.3l-0.9,10.3h-2.9
		L53.8,43.4z"/>
</g>
</svg>
