<?xml version="1.0" encoding="utf-8"?>
<!-- Generator: Adobe Illustrator 21.1.0, SVG Export Plug-In . SVG Version: 6.00 Build 0)  -->
<svg version="1.1" id="Ebene_1" xmlns="http://www.w3.org/2000/svg" xmlns:xlink="http://www.w3.org/1999/xlink" x="0px" y="0px"
	 viewBox="0 0 85 85" style="enable-background:new 0 0 85 85;" xml:space="preserve">
<style type="text/css">
	.st0{fill:#9D2F3A;stroke:#FFFFFF;stroke-miterlimit:10;}
	.st1{fill:#FFFFFF;}
	.st2{clip-path:url(#SVGID_2_);fill:#FFFFFF;}
	.st3{clip-path:url(#SVGID_4_);fill:#FFFFFF;}
	.st4{clip-path:url(#SVGID_6_);fill:#FFFFFF;}
	.st5{clip-path:url(#SVGID_8_);fill:#FFFFFF;}
	.st6{clip-path:url(#SVGID_10_);fill:#FFFFFF;}
	.st7{clip-path:url(#SVGID_12_);fill:#FFFFFF;}
	.st8{clip-path:url(#SVGID_14_);fill:#FFFFFF;}
	.st9{clip-path:url(#SVGID_16_);fill:#FFFFFF;}
	.st10{clip-path:url(#SVGID_18_);fill:#FFFFFF;}
</style>
<path class="st0" d="M42.1,42.5H13.7c0-7.5,3-14.7,8.3-20s12.5-8.3,20-8.3V42.5z"/>
<path class="st0" d="M42.1,42.5v28.3c-7.5,0-14.7-3-20-8.3s-8.3-12.5-8.3-20H42.1z"/>
<path class="st0" d="M42.1,42.5h28.3c0,7.5-3,14.7-8.3,20s-12.5,8.3-20,8.3V42.5z"/>
<path class="st0" d="M42.1,42.5V14.2c7.5,0,14.7,3,20,8.3s8.3,12.5,8.3,20H42.1z"/>
<g>
	<path class="st1" d="M48.2,24h1.9c0,0-2.5,3.4-2.5,7.3c0,4.2,2.5,7.3,2.5,7.3h-1.9c0,0-2.6-2.4-2.6-7.3C45.6,26.9,48.2,24,48.2,24z
		"/>
	<path class="st1" d="M50,27.5h1.7l0.4,0.8c0.7-0.5,1.3-1,2.5-1c1.8,0,2.4,1.3,2.4,2.8v5.2h-2.1v-5.3c0-0.8-0.4-1.1-0.9-1.1
		c-0.8,0-1.3,0.2-1.9,0.7v5.7H50V27.5z"/>
	<path class="st1" d="M59.2,31.3c0-3.9-2.5-7.3-2.5-7.3h1.9c0,0,2.6,2.9,2.6,7.3c0,4.9-2.6,7.3-2.6,7.3h-1.9
		C56.7,38.6,59.2,35.5,59.2,31.3z"/>
</g>
<g>
	<defs>
		<path id="SVGID_5_" d="M62.1,22.5c-5.3-5.3-12.5-8.3-20-8.3c-7.5,0-14.7,3-20,8.3s-8.3,12.5-8.3,20c0,7.5,3,14.7,8.3,20
			s12.5,8.3,20,8.3c7.5,0,14.7-3,20-8.3s8.3-12.5,8.3-20C70.4,35,67.4,27.8,62.1,22.5z"/>
	</defs>
	<clipPath id="SVGID_2_">
		<use xlink:href="#SVGID_5_"  style="overflow:visible;"/>
	</clipPath>
	<path class="st2" d="M28.1,42.5h5l7.5,23h-4.7l-1.6-5.1h-7.5L25,65.4h-4.7L28.1,42.5z M26.6,36.7c1,0,1.8,0.8,1.8,1.8
		c0,1-0.8,1.9-1.8,1.9s-1.9-0.8-1.9-1.9C24.7,37.6,25.6,36.7,26.6,36.7z M33.2,56.5l-2.6-8.2l-2.8,8.2H33.2z M34.6,36.7
		c1,0,1.8,0.8,1.8,1.8c0,1-0.8,1.9-1.8,1.9c-1,0-1.9-0.8-1.9-1.9C32.7,37.6,33.6,36.7,34.6,36.7z"/>
	<path class="st2" d="M45.6,42.5h6.1l3.8,15.7l3.8-15.7h6.1l2.2,23h-4.3l-1.5-15.3L58,65.4h-4.9l-3.8-15.3l-1.4,15.3h-4.3L45.6,42.5
		z"/>
</g>
</svg>
