<?xml version="1.0" encoding="utf-8"?>
<!-- Generator: Adobe Illustrator 21.1.0, SVG Export Plug-In . SVG Version: 6.00 Build 0)  -->
<svg version="1.1" id="Ebene_1" xmlns="http://www.w3.org/2000/svg" xmlns:xlink="http://www.w3.org/1999/xlink" x="0px" y="0px"
	 viewBox="0 0 85 85" style="enable-background:new 0 0 85 85;" xml:space="preserve">
<style type="text/css">
	.st0{fill:#9D2F3A;stroke:#FFFFFF;stroke-miterlimit:10;}
	.st1{fill:#FFFFFF;}
	.st2{clip-path:url(#SVGID_2_);fill:#FFFFFF;}
	.st3{clip-path:url(#SVGID_4_);fill:#FFFFFF;}
	.st4{clip-path:url(#SVGID_6_);fill:#FFFFFF;}
	.st5{clip-path:url(#SVGID_8_);fill:#FFFFFF;}
	.st6{clip-path:url(#SVGID_10_);fill:#FFFFFF;}
	.st7{clip-path:url(#SVGID_12_);fill:#FFFFFF;}
	.st8{clip-path:url(#SVGID_14_);fill:#FFFFFF;}
	.st9{clip-path:url(#SVGID_16_);fill:#FFFFFF;}
	.st10{clip-path:url(#SVGID_18_);fill:#FFFFFF;}
</style>
<path class="st0" d="M43.6,42.5H15.3c0-7.5,3-14.7,8.3-20s12.5-8.3,20-8.3V42.5z"/>
<path class="st0" d="M43.6,42.5v28.3c-7.5,0-14.7-3-20-8.3s-8.3-12.5-8.3-20H43.6z"/>
<path class="st0" d="M43.6,42.5h28.3c0,7.5-3,14.7-8.3,20s-12.5,8.3-20,8.3V42.5z"/>
<path class="st0" d="M43.6,42.5V14.2c7.5,0,14.7,3,20,8.3s8.3,12.5,8.3,20H43.6z"/>
<path class="st1" d="M33.5,35.1l1.8-0.4v-2.2c0-2,0.8-3.5,3.5-3.5c1.1,0,2,0.1,3,0.5v1.8c0,0-2.1,0-2.1,0c-1.3,0-1.2,0.6-1.2,1.8
	v1.5h2.7v2.4h-2.7v9.4h-3.1v-9.4h-1.8V35.1z"/>
<g>
	<defs>
		<path id="SVGID_1_" d="M63.6,22.5c-5.3-5.3-12.5-8.3-20-8.3s-14.7,3-20,8.3s-8.3,12.5-8.3,20c0,7.5,3,14.7,8.3,20s12.5,8.3,20,8.3
			s14.7-3,20-8.3s8.3-12.5,8.3-20C71.9,35,69,27.8,63.6,22.5z"/>
	</defs>
	<clipPath id="SVGID_2_">
		<use xlink:href="#SVGID_1_"  style="overflow:visible;"/>
	</clipPath>
	<path class="st2" d="M14.2,23.6h6v13.6h2.6L31,23.6h7.3l-10,16.3l10,16.3H31l-8.3-13.5h-2.6v15.1h-6V23.6z"/>
	<path class="st2" d="M43.5,29.1H51v23h1.6l8.1-9.5h9.5L59.5,54.9l10.7,16h-8.9l-8.7-13.2H51v13.2h-7.5V29.1z"/>
</g>
</svg>
