<?xml version="1.0" encoding="utf-8"?>
<!-- Generator: Adobe Illustrator 21.1.0, SVG Export Plug-In . SVG Version: 6.00 Build 0)  -->
<svg version="1.1" id="Ebene_1" xmlns="http://www.w3.org/2000/svg" xmlns:xlink="http://www.w3.org/1999/xlink" x="0px" y="0px"
	 viewBox="0 0 85 85" style="enable-background:new 0 0 85 85;" xml:space="preserve">
<style type="text/css">
	.st0{fill:#9D2F3A;stroke:#FFFFFF;stroke-miterlimit:10;}
	.st1{fill:#FFFFFF;}
	.st2{clip-path:url(#SVGID_2_);fill:#FFFFFF;}
	.st3{clip-path:url(#SVGID_4_);fill:#FFFFFF;}
	.st4{clip-path:url(#SVGID_6_);fill:#FFFFFF;}
	.st5{clip-path:url(#SVGID_8_);fill:#FFFFFF;}
	.st6{clip-path:url(#SVGID_10_);fill:#FFFFFF;}
	.st7{clip-path:url(#SVGID_12_);fill:#FFFFFF;}
	.st8{clip-path:url(#SVGID_14_);fill:#FFFFFF;}
	.st9{clip-path:url(#SVGID_16_);fill:#FFFFFF;}
	.st10{clip-path:url(#SVGID_18_);fill:#FFFFFF;}
</style>
<path class="st0" d="M42.2,43.2H13.8c0-7.5,3-14.7,8.3-20s12.5-8.3,20-8.3V43.2z"/>
<path class="st0" d="M42.2,43.2v28.3c-7.5,0-14.7-3-20-8.3s-8.3-12.5-8.3-20H42.2z"/>
<path class="st0" d="M42.2,43.2h28.3c0,7.5-3,14.7-8.3,20s-12.5,8.3-20,8.3V43.2z"/>
<path class="st0" d="M42.2,43.2V14.8c7.5,0,14.7,3,20,8.3s8.3,12.5,8.3,20H42.2z"/>
<g>
	<defs>
		<path id="SVGID_17_" d="M62.2,23.1c-5.3-5.3-12.5-8.3-20-8.3c-7.5,0-14.7,3-20,8.3s-8.3,12.5-8.3,20s3,14.7,8.3,20
			s12.5,8.3,20,8.3c7.5,0,14.7-3,20-8.3s8.3-12.5,8.3-20S67.5,28.4,62.2,23.1z"/>
	</defs>
	<clipPath id="SVGID_2_">
		<use xlink:href="#SVGID_17_"  style="overflow:visible;"/>
	</clipPath>
	<path class="st2" d="M42.3,22.3c0-4.7,3.3-6,6.3-6c0,0,8.6,0.1,11.9,0.6v5H50.2c-1.9,0-1.9,1.1-1.9,2v3l10.4,0.4v5l-10.4,0.3v10.4
		h-6V22.3z"/>
	<path class="st2" d="M23.2,50.5c0-5.2,3.1-6.9,7.1-6.9c4.5-0.1,8.3,0.3,10.6,1.1v4.6c-2.3-0.2-6.9-0.4-8.7-0.4
		C30.1,48.9,29,49,29,51v0.9c0,1.7,0.5,2.2,2.5,2.2h3.8c5.3,0,6.4,4.4,6.4,7.3v1.5c0,6.3-3.7,7.5-7.3,7.5c-5.5,0-7.5-0.2-10.6-1.1
		v-4.6c1.4,0.1,5.9,0.4,9.2,0.4c1.5,0,2.7-0.3,2.7-1.9v-1c0-1.3-0.4-2.1-2.2-2.1h-3.7c-6.6,0-6.9-5.2-6.9-7.3V50.5z"/>
</g>
</svg>
