<?xml version="1.0" encoding="utf-8"?>
<!-- Generator: Adobe Illustrator 21.1.0, SVG Export Plug-In . SVG Version: 6.00 Build 0)  -->
<svg version="1.1" id="Ebene_1" xmlns="http://www.w3.org/2000/svg" xmlns:xlink="http://www.w3.org/1999/xlink" x="0px" y="0px"
	 viewBox="0 0 85 85" style="enable-background:new 0 0 85 85;" xml:space="preserve">
<style type="text/css">
	.st0{fill:#9D2F3A;stroke:#FFFFFF;stroke-miterlimit:10;}
	.st1{fill:#FFFFFF;}
	.st2{clip-path:url(#SVGID_2_);fill:#FFFFFF;}
	.st3{clip-path:url(#SVGID_4_);fill:#FFFFFF;}
	.st4{clip-path:url(#SVGID_6_);fill:#FFFFFF;}
	.st5{clip-path:url(#SVGID_8_);fill:#FFFFFF;}
	.st6{clip-path:url(#SVGID_10_);fill:#FFFFFF;}
	.st7{clip-path:url(#SVGID_12_);fill:#FFFFFF;}
	.st8{clip-path:url(#SVGID_14_);fill:#FFFFFF;}
	.st9{clip-path:url(#SVGID_16_);fill:#FFFFFF;}
	.st10{clip-path:url(#SVGID_18_);fill:#FFFFFF;}
</style>
<path class="st0" d="M42.4,42.8H14c0-7.5,3-14.7,8.3-20s12.5-8.3,20-8.3V42.8z"/>
<path class="st0" d="M42.4,42.8v28.3c-7.5,0-14.7-3-20-8.3S14,50.3,14,42.8H42.4z"/>
<path class="st0" d="M42.4,42.8h28.3c0,7.5-3,14.7-8.3,20s-12.5,8.3-20,8.3V42.8z"/>
<path class="st0" d="M42.4,42.8V14.5c7.5,0,14.7,3,20,8.3s8.3,12.5,8.3,20H42.4z"/>
<path class="st1" d="M26,47.9c0-4.3,2.5-5.5,5.8-5.5c3.1-0.1,6.6,0.3,8.3,0.8v3.2c-1.9-0.2-6.1-0.3-7.2-0.3c-1.8,0-2.8,0.1-2.8,2.1
	v1c0,1.7,0.7,2.1,2.3,2.1h3.4c4.2,0,5.1,3.3,5.1,5.7v1.4c0,4.9-3,5.8-5.9,5.8c-3.7,0-6.1-0.2-8.3-0.9v-3.2c1.2,0.1,4.8,0.3,7.5,0.3
	c1.2,0,2.6-0.2,2.6-1.9v-1.2c0-1.2-0.4-2-1.9-2h-3.3c-5.2,0-5.5-3.8-5.5-5.7V47.9z"/>
<path class="st1" d="M42.5,48.6l2.6-0.9l0.7-4.5h3.6v4.5H53V51h-3.6v6.5c0,2.4,0.6,2.9,1.4,3.2c0,0,1.8,0.6,2,0.6V64h-3.7
	c-2.4,0-4-1.5-4-5.8V51h-2.6V48.6z"/>
<g>
	<defs>
		<path id="SVGID_13_" d="M62.4,22.8c-5.3-5.3-12.5-8.3-20-8.3s-14.7,3-20,8.3C17,28.1,14,35.3,14,42.8s3,14.7,8.3,20
			c5.3,5.3,12.5,8.3,20,8.3s14.7-3,20-8.3c5.3-5.3,8.3-12.5,8.3-20S67.7,28.1,62.4,22.8z"/>
	</defs>
	<clipPath id="SVGID_2_">
		<use xlink:href="#SVGID_13_"  style="overflow:visible;"/>
	</clipPath>
	<path class="st2" d="M22.4,14.3l6.4,21.2l5.1-21.2h5.9l-2,7.4l4.5,14l5.3-21.4h5.8L45.5,43h-6.3l-3.9-11.7L31.9,43h-6.3l-9-28.6
		H22.4z"/>
</g>
</svg>
