<svg id="Ebene_1" data-name="Ebene 1" xmlns="http://www.w3.org/2000/svg" xmlns:xlink="http://www.w3.org/1999/xlink" viewBox="0 0 320.88 279.6"><defs><style>.cls-1,.cls-10,.cls-3{fill:none;}.cls-2{fill:#cbcccb;}.cls-3{stroke:#9d2f3a;}.cls-10,.cls-3{stroke-miterlimit:10;stroke-width:0.96px;}.cls-4{clip-path:url(#clip-path);}.cls-5{font-size:15.96px;}.cls-11,.cls-12,.cls-22,.cls-5{fill:#fff;font-family:Calibri, Calibri;}.cls-6{letter-spacing:-0.02em;}.cls-7{letter-spacing:0em;}.cls-8{letter-spacing:0em;}.cls-9{letter-spacing:0em;}.cls-10{stroke:#fff;}.cls-11{font-size:11.06px;}.cls-12{font-size:11.04px;}.cls-13{letter-spacing:0em;}.cls-14{letter-spacing:0em;}.cls-15{letter-spacing:0em;}.cls-16{letter-spacing:0em;}.cls-17{letter-spacing:0em;}.cls-18{letter-spacing:0em;}.cls-19{letter-spacing:0em;}.cls-20{letter-spacing:0em;}.cls-21{letter-spacing:0em;}.cls-22{font-size:11.4px;}.cls-23{letter-spacing:-0.01em;}.cls-24{letter-spacing:0em;}</style><clipPath id="clip-path" transform="translate(-319.56 -130.2)"><rect class="cls-1" width="960" height="540"/></clipPath></defs><title>Berichtswesen 2018-02-05</title><circle class="cls-2" cx="135.24" cy="132.96" r="78"/><circle class="cls-3" cx="135.24" cy="132.96" r="78"/><g class="cls-4"><text class="cls-5" transform="translate(103.42 137.45)"><tspan class="cls-6">R</tspan><tspan x="8.41" y="0">epo</tspan><tspan class="cls-7" x="33.15" y="0">r</tspan><tspan class="cls-8" x="38.67" y="0">ti</tspan><tspan class="cls-9" x="47.59" y="0">ng</tspan></text></g><ellipse class="cls-2" cx="109.44" cy="204.3" rx="6.24" ry="6.3"/><ellipse class="cls-10" cx="109.44" cy="204.3" rx="6.24" ry="6.3"/><circle class="cls-2" cx="547.02" cy="253.38" r="6.3" transform="translate(-215.97 531.6) rotate(-67.5)"/><circle class="cls-10" cx="547.02" cy="253.38" r="6.3" transform="translate(-215.97 531.6) rotate(-67.5)"/><ellipse class="cls-2" cx="169.8" cy="220.02" rx="8.64" ry="8.7"/><ellipse class="cls-10" cx="169.8" cy="220.02" rx="8.64" ry="8.7"/><ellipse class="cls-2" cx="112.98" cy="77.4" rx="6.3" ry="6.24"/><ellipse class="cls-10" cx="112.98" cy="77.4" rx="6.3" ry="6.24"/><circle class="cls-2" cx="392.94" cy="279.54" r="6.3" transform="matrix(0.16, -0.99, 0.99, 0.16, -265.49, 492.43)"/><circle class="cls-10" cx="392.94" cy="279.54" r="6.3" transform="matrix(0.16, -0.99, 0.99, 0.16, -265.49, 492.43)"/><ellipse class="cls-2" cx="38.16" cy="113.46" rx="31.68" ry="31.74"/><ellipse class="cls-10" cx="38.16" cy="113.46" rx="31.68" ry="31.74"/><g class="cls-4"><text class="cls-11" transform="translate(25.13 110.62)">Kenn</text></g><g class="cls-4"><text class="cls-11" transform="translate(47.93 110.62)">-</text></g><g class="cls-4"><text class="cls-12" transform="translate(23.57 122.52)"><tspan class="cls-13">z</tspan><tspan x="4.32" y="0">a</tspan><tspan class="cls-13" x="9.6" y="0">h</tspan><tspan class="cls-14" x="15.36" y="0">len</tspan></text></g><circle class="cls-2" cx="454.86" cy="210.54" r="8.7" transform="translate(-335.21 253.1) rotate(-45)"/><circle class="cls-10" cx="454.86" cy="210.54" r="8.7" transform="translate(-335.21 253.1) rotate(-45)"/><ellipse class="cls-2" cx="28.14" cy="179.4" rx="15.66" ry="15.72"/><ellipse class="cls-10" cx="28.14" cy="179.4" rx="15.66" ry="15.72"/><circle class="cls-2" cx="258.84" cy="83.64" r="31.68"/><circle class="cls-10" cx="258.84" cy="83.64" r="31.68"/><g class="cls-4"><text class="cls-11" transform="translate(243.12 80.78)"><tspan class="cls-15">P</tspan><tspan x="5.75" y="0">erfor</tspan></text></g><g class="cls-4"><text class="cls-11" transform="translate(271.32 80.78)">-</text></g><g class="cls-4"><text class="cls-12" transform="translate(243.84 92.69)"><tspan class="cls-16">m</tspan><tspan x="8.86" y="0">a</tspan><tspan class="cls-17" x="14.15" y="0">n</tspan><tspan class="cls-18" x="19.91" y="0">ce</tspan></text></g><circle class="cls-2" cx="527.1" cy="234.54" r="8.7" transform="translate(-210.86 501.56) rotate(-67.5)"/><circle class="cls-10" cx="527.1" cy="234.54" r="8.7" transform="translate(-210.86 501.56) rotate(-67.5)"/><circle class="cls-2" cx="6.78" cy="207.3" r="6.3"/><circle class="cls-10" cx="6.78" cy="207.3" r="6.3"/><circle class="cls-2" cx="451.62" cy="319.62" r="6.3" transform="translate(-230.51 607.35) rotate(-84.35)"/><circle class="cls-10" cx="451.62" cy="319.62" r="6.3" transform="translate(-230.51 607.35) rotate(-84.35)"/><circle class="cls-2" cx="608.28" cy="323.4" r="31.68" transform="matrix(0.16, -0.99, 0.99, 0.16, -127.94, 741.82)"/><circle class="cls-10" cx="608.28" cy="323.4" r="31.68" transform="matrix(0.16, -0.99, 0.99, 0.16, -127.94, 741.82)"/><g class="cls-4"><text class="cls-12" transform="translate(271.63 190.39)">K<tspan class="cls-19" x="5.74" y="0">o</tspan><tspan x="11.61" y="0">st</tspan><tspan class="cls-20" x="19.63" y="0">e</tspan><tspan x="25.15" y="0">n</tspan></text></g><g class="cls-4"><text class="cls-12" transform="translate(302.59 190.39)">-</text></g><g class="cls-4"><text class="cls-12" transform="translate(273.43 202.27)">treiber</text></g><ellipse class="cls-2" cx="245.4" cy="165.54" rx="6.24" ry="6.3"/><ellipse class="cls-10" cx="245.4" cy="165.54" rx="6.24" ry="6.3"/><circle class="cls-2" cx="426.24" cy="377.64" r="31.68" transform="translate(-311.12 634.39) rotate(-84.35)"/><circle class="cls-10" cx="426.24" cy="377.64" r="31.68" transform="translate(-311.12 634.39) rotate(-84.35)"/><g class="cls-4"><text class="cls-12" transform="translate(91.18 244.68)">Bench</text></g><g class="cls-4"><text class="cls-12" transform="translate(118.9 244.68)">-</text></g><g class="cls-4"><text class="cls-12" transform="translate(95.26 256.56)"><tspan class="cls-21">m</tspan><tspan x="8.86" y="0">ark</tspan></text></g><circle class="cls-2" cx="457.5" cy="350.1" r="6.3" transform="translate(-280.92 615.41) rotate(-80.78)"/><circle class="cls-10" cx="457.5" cy="350.1" r="6.3" transform="translate(-280.92 615.41) rotate(-80.78)"/><circle class="cls-2" cx="486.72" cy="162.36" r="31.68" transform="matrix(0.23, -0.97, 0.97, 0.23, -102.68, 468.56)"/><circle class="cls-10" cx="486.72" cy="162.36" r="31.68" transform="matrix(0.23, -0.97, 0.97, 0.23, -102.68, 468.56)"/><circle class="cls-2" cx="63.54" cy="75.42" r="6.3"/><circle class="cls-10" cx="63.54" cy="75.42" r="6.3"/><ellipse class="cls-2" cx="209.94" cy="22.32" rx="6.3" ry="6.24"/><ellipse class="cls-10" cx="209.94" cy="22.32" rx="6.3" ry="6.24"/><text class="cls-22" transform="translate(142.5 35.03)">S<tspan class="cls-23" x="5.24" y="0">t</tspan><tspan class="cls-24" x="8.93" y="0">euerung</tspan></text></svg>