<svg id="Ebene_1" data-name="Ebene 1" xmlns="http://www.w3.org/2000/svg" viewBox="0 0 842 242.5"><defs><style>.cls-1,.cls-2,.cls-20{fill:#fff;stroke-miterlimit:10;}.cls-1{stroke:#cbcccb;}.cls-2{stroke:#777776;}.cls-3{font-size:16px;font-family:Calibri-Bold, Calibri;}.cls-10,.cls-3{fill:#9d2f3a;}.cls-4{font-weight:700;}.cls-5{letter-spacing:-0.01em;}.cls-10,.cls-6{font-size:15px;font-family:Calibri, Calibri;}.cls-7{letter-spacing:-0.01em;}.cls-8{letter-spacing:-0.03em;}.cls-9{letter-spacing:-0.01em;}.cls-11{letter-spacing:-0.01em;}.cls-12{letter-spacing:-0.02em;}.cls-13{letter-spacing:-0.04em;}.cls-14{letter-spacing:-0.01em;}.cls-15{letter-spacing:-0.01em;}.cls-16{letter-spacing:-0.01em;}.cls-17{letter-spacing:0em;}.cls-18{fill:none;}.cls-19{fill:#cbcccb;}.cls-20{stroke:#9d2f3a;}.cls-21{letter-spacing:-0.02em;}.cls-22{letter-spacing:-0.03em;}</style></defs><title>zukünftige Strukturen und Steuerung 2018-02-04_2</title><circle class="cls-1" cx="78" cy="120.67" r="77.5"/><circle class="cls-1" cx="234" cy="120.67" r="77.5"/><circle class="cls-2" cx="390" cy="121.67" r="77.5"/><text class="cls-3" transform="translate(50.99 98)"><tspan class="cls-4"><tspan class="cls-5">C</tspan><tspan x="8.35" y="0">OSIMA</tspan></tspan><tspan class="cls-6"><tspan x="-31.31" y="36">Wirtsch</tspan><tspan class="cls-7" x="15.82" y="36">a</tspan><tspan x="22.92" y="36">ftlich</tspan><tspan class="cls-8" x="53.26" y="36">k</tspan><tspan x="59.6" y="36">eits-</tspan><tspan x="4.5" y="54">anal</tspan><tspan class="cls-9" x="30.2" y="54">y</tspan><tspan x="36.85" y="54">se</tspan></tspan></text><text class="cls-10" transform="translate(176.93 116)">O<tspan class="cls-11" x="9.93" y="0">r</tspan><tspan class="cls-12" x="14.96" y="0">g</tspan><tspan x="21.74" y="0">anis</tspan><tspan class="cls-9" x="46.11" y="0">a</tspan><tspan x="53.16" y="0">tions- und</tspan><tspan x="14.23" y="18">D</tspan><tspan class="cls-9" x="23.46" y="18">R</tspan><tspan x="31.46" y="18">G-Anal</tspan><tspan class="cls-9" x="72.71" y="18">y</tspan><tspan x="79.36" y="18">sen</tspan></text><text class="cls-10" transform="translate(332.89 93)"><tspan class="cls-13">W</tspan><tspan x="12.8" y="0">ei</tspan><tspan class="cls-14" x="23.7" y="0">t</tspan><tspan x="28.56" y="0">e</tspan><tspan class="cls-15" x="36.03" y="0">r</tspan><tspan x="41.06" y="0">e</tspan><tspan class="cls-9" x="48.52" y="0">n</tspan><tspan x="56.26" y="0">twicklung</tspan><tspan x="19.37" y="18">medizinisch-</tspan><tspan class="cls-16" x="17.93" y="36">p</tspan><tspan x="25.69" y="36">fle</tspan><tspan class="cls-16" x="41.09" y="36">g</tspan><tspan x="48.03" y="36">erischer</tspan><tspan x="11.4" y="54">Stru</tspan><tspan class="cls-17" x="36.42" y="54">k</tspan><tspan x="43.17" y="54">tu</tspan><tspan class="cls-15" x="56.07" y="54">r</tspan><tspan x="61.11" y="54">en und</tspan><tspan x="30.82" y="72">Be</tspan><tspan class="cls-15" x="46.44" y="72">r</tspan><tspan x="51.47" y="72">eiche</tspan></text><g id="Pfeil_26" data-name="Pfeil 26"><rect class="cls-18" x="504.14" y="89" width="111.13" height="44.81"/><polygon class="cls-19" points="502.14 131.21 578.05 131.21 578.05 142.81 653.51 120.4 578.05 98 578.05 109.6 502.14 109.6 502.14 131.21"/></g><circle class="cls-20" cx="764" cy="78" r="77.5"/><circle class="cls-20" cx="764" cy="164.5" r="77.5"/><text class="cls-10" transform="translate(731.92 60)">Simul<tspan class="cls-9" x="33.64" y="0">a</tspan><tspan x="40.69" y="0">tion</tspan></text><text class="cls-10" transform="translate(710.97 164)">Chan<tspan class="cls-16" x="30.94" y="0">g</tspan><tspan x="37.88" y="0">e-/ P</tspan><tspan class="cls-21" x="66.87" y="0">r</tspan><tspan x="71.86" y="0">oje</tspan><tspan class="cls-17" x="90.82" y="0">k</tspan><tspan class="cls-22" x="97.57" y="0">t</tspan><tspan x="102.13" y="0">-</tspan><tspan x="12.94" y="18">mana</tspan><tspan class="cls-16" x="47.17" y="18">g</tspan><tspan x="54.11" y="18">eme</tspan><tspan class="cls-9" x="81.02" y="18">n</tspan><tspan x="88.76" y="18">t</tspan></text></svg>