<svg id="Ebene_1" data-name="Ebene 1" xmlns="http://www.w3.org/2000/svg" xmlns:xlink="http://www.w3.org/1999/xlink" viewBox="0 0 569 164.69"><defs><style>.cls-1{fill:#cbcccb;}.cls-15,.cls-17,.cls-2,.cls-3,.cls-34{isolation:isolate;}.cls-3{font-size:11.95px;}.cls-16,.cls-3,.cls-34{fill:#fff;}.cls-17,.cls-3{font-family:Calibri, Calibri;}.cls-4{letter-spacing:-0.01em;}.cls-5{letter-spacing:-0.02em;}.cls-6{letter-spacing:-0.01em;}.cls-7{letter-spacing:0em;}.cls-8{letter-spacing:-0.02em;}.cls-9{letter-spacing:0em;}.cls-10{letter-spacing:-0.01em;}.cls-11{letter-spacing:-0.01em;}.cls-12{letter-spacing:-0.01em;}.cls-13{letter-spacing:-0.01em;}.cls-14{letter-spacing:-0.01em;}.cls-15{opacity:0.4;}.cls-16{stroke:#000;stroke-width:0.25px;}.cls-16,.cls-37,.cls-38{stroke-miterlimit:10;}.cls-17{font-size:12px;}.cls-18{letter-spacing:0em;}.cls-19{letter-spacing:-0.01em;}.cls-20{letter-spacing:-0.01em;}.cls-21{letter-spacing:-0.01em;}.cls-22{letter-spacing:-0.05em;}.cls-23{letter-spacing:-0.03em;}.cls-24{letter-spacing:-0.02em;}.cls-25{letter-spacing:-0.01em;}.cls-26{letter-spacing:-0.02em;}.cls-27{letter-spacing:-0.01em;}.cls-28{letter-spacing:-0.02em;}.cls-29{letter-spacing:-0.01em;}.cls-30{letter-spacing:-0.02em;}.cls-31{letter-spacing:-0.03em;}.cls-32{letter-spacing:0em;}.cls-33{fill:#9d2f3a;}.cls-34{font-size:14px;font-family:Calibri-Bold, Calibri;font-weight:700;}.cls-35{letter-spacing:-0.01em;}.cls-36,.cls-37,.cls-38{fill:none;}.cls-37{stroke:#cbcccb;}.cls-37,.cls-38{stroke-width:2px;}.cls-38{stroke:#9d2f3a;}</style></defs><title>KnowHow Grafik 2018-02-07</title><path class="cls-1" d="M114,134H38L18,114V50L38,30h76l20,20v64Z" transform="translate(-18 -6.69)"/><g class="cls-2"><text class="cls-3" transform="translate(8.94 45.05) scale(0.97 1)">Ziel i<tspan class="cls-4" x="22.47" y="0">s</tspan><tspan x="27.01" y="0">t die Ermittlung</tspan></text><text class="cls-3" transform="translate(13.97 59.35) scale(0.97 1)">der <tspan class="cls-5" x="19.09" y="0">R</tspan><tspan class="cls-6" x="25.37" y="0">e</tspan><tspan class="cls-7" x="31.21" y="0">finanzierung</tspan></text><text class="cls-3" transform="translate(18.14 73.76) scale(0.97 1)">der <tspan class="cls-8" x="19.09" y="0">K</tspan><tspan class="cls-9" x="25.08" y="0">o</tspan><tspan class="cls-10" x="31.38" y="0">s</tspan><tspan class="cls-11" x="35.92" y="0">t</tspan><tspan x="39.79" y="0">en du</tspan><tspan class="cls-12" x="67.27" y="0">r</tspan><tspan x="71.26" y="0">ch</tspan></text><text class="cls-3" transform="translate(25.12 88.05) scale(0.97 1)">Erlöse anhand</text><text class="cls-3" transform="translate(20.08 102.45) scale(0.97 1)">einer <tspan class="cls-6" x="27.78" y="0">e</tspan><tspan x="33.62" y="0">ffizie</tspan><tspan class="cls-13" x="56.67" y="0">n</tspan><tspan class="cls-11" x="62.84" y="0">t</tspan><tspan x="66.71" y="0">en</tspan></text><text class="cls-3" transform="translate(32.68 116.76) scale(0.97 1)">D<tspan class="cls-13" x="7.35" y="0">a</tspan><tspan class="cls-14" x="12.96" y="0">t</tspan><tspan x="16.84" y="0">enbasis</tspan></text></g><image class="cls-15" width="742" height="692" transform="translate(134.66) scale(0.24)" xlink:href="34D8CD7.png"/><rect class="cls-16" x="158" y="23.31" width="116" height="104"/><g class="cls-2"><text class="cls-17" transform="translate(176.94 42.22)">Au<tspan class="cls-18" x="13.25" y="0">s</tspan><tspan class="cls-19" x="17.88" y="0">w</tspan><tspan x="26.36" y="0">ertung der</tspan></text><text class="cls-17" transform="translate(181.74 56.62)">Summen- und</text><text class="cls-17" transform="translate(185.04 71.02)">Salden-Li<tspan class="cls-20" x="44.07" y="0">s</tspan><tspan class="cls-21" x="48.63" y="0">t</tspan><tspan x="52.52" y="0">e;</tspan></text><text class="cls-17" transform="translate(186.94 85.42)">Benchmark,</text><text class="cls-17" transform="translate(184.64 99.82)">G<tspan class="cls-18" x="7.57" y="0">e</tspan><tspan x="13.48" y="0">winn- und</tspan></text><text class="cls-17" transform="translate(172.54 114.22)"><tspan class="cls-22">V</tspan><tspan x="6.21" y="0">erlu</tspan><tspan class="cls-20" x="25.42" y="0">s</tspan><tspan class="cls-23" x="29.98" y="0">t</tspan><tspan x="33.63" y="0">-</tspan><tspan class="cls-24" x="37.31" y="0">R</tspan><tspan x="43.61" y="0">echnung</tspan></text></g><image class="cls-15" width="742" height="692" transform="translate(292.77 0.06) scale(0.24)" xlink:href="34D8CD9.png"/><rect class="cls-16" x="316" y="23.31" width="116" height="104"/><g class="cls-2"><text class="cls-17" transform="translate(327.66 50.22)">Lei<tspan class="cls-20" x="13.77" y="0">s</tspan><tspan x="18.33" y="0">tungsb</tspan><tspan class="cls-25" x="51.6" y="0">e</tspan><tspan class="cls-26" x="57.46" y="0">z</tspan><tspan x="61.93" y="0">o</tspan><tspan class="cls-27" x="68.26" y="0">g</tspan><tspan x="73.81" y="0">ene</tspan></text><text class="cls-17" transform="translate(322.76 64.62)"><tspan class="cls-22">V</tspan><tspan x="6.21" y="0">er</tspan><tspan class="cls-21" x="16.37" y="0">t</tspan><tspan x="20.26" y="0">eilung der Erlöse</tspan></text><text class="cls-17" transform="translate(328.36 79.02)">und <tspan class="cls-28" x="21.63" y="0">K</tspan><tspan x="27.64" y="0">o</tspan><tspan class="cls-20" x="33.97" y="0">s</tspan><tspan class="cls-21" x="38.53" y="0">t</tspan><tspan x="42.42" y="0">en auf die</tspan></text><text class="cls-17" transform="translate(330.46 93.42)">u<tspan class="cls-29" x="6.3" y="0">n</tspan><tspan class="cls-21" x="12.5" y="0">t</tspan><tspan x="16.39" y="0">e</tspan><tspan class="cls-30" x="22.36" y="0">r</tspan><tspan x="26.34" y="0">schiedlichen</tspan></text><text class="cls-17" transform="translate(333.66 107.82)"><tspan class="cls-31">F</tspan><tspan x="5.19" y="0">acha</tspan><tspan class="cls-32" x="28.07" y="0">b</tspan><tspan class="cls-21" x="34.32" y="0">t</tspan><tspan x="38.21" y="0">eilun</tspan><tspan class="cls-27" x="62.3" y="0">g</tspan><tspan x="67.85" y="0">en</tspan></text></g><path class="cls-33" d="M561,127H518l-26-26V63l26-26h43l26,26v38Z" transform="translate(-18 -6.69)"/><text class="cls-34" transform="translate(498.36 78.64)"><tspan class="cls-35">C</tspan><tspan x="7.31" y="0">OSIMA</tspan></text><line class="cls-36" x1="116" y1="75.31" x2="157" y2="75.31"/><line class="cls-37" x1="116" y1="75.31" x2="142.6" y2="75.31"/><polygon class="cls-1" points="139.7 85.31 157 75.31 139.7 65.31 139.7 85.31"/><line class="cls-36" x1="274" y1="75.31" x2="315" y2="75.31"/><line class="cls-38" x1="274" y1="75.31" x2="300.6" y2="75.31"/><polygon class="cls-33" points="297.7 85.31 315 75.31 297.7 65.31 297.7 85.31"/><line class="cls-36" x1="432" y1="75.31" x2="473" y2="75.31"/><line class="cls-38" x1="432" y1="75.31" x2="458.6" y2="75.31"/><polygon class="cls-33" points="455.7 85.31 473 75.31 455.7 65.31 455.7 85.31"/></svg>