<svg id="Ebene_1" data-name="Ebene 1" xmlns="http://www.w3.org/2000/svg" xmlns:xlink="http://www.w3.org/1999/xlink" viewBox="0 0 538.6 170.51"><defs><style>.cls-1,.cls-14,.cls-15,.cls-16,.cls-17,.cls-18,.cls-19,.cls-20,.cls-21,.cls-4,.cls-5,.cls-8,.cls-9{fill:none;}.cls-2{fill:#ececec;}.cls-22,.cls-3,.cls-35,.cls-6{fill:#fff;}.cls-14,.cls-15,.cls-17,.cls-18,.cls-20,.cls-4{stroke:#a7a7a7;}.cls-14,.cls-15,.cls-16,.cls-17,.cls-18,.cls-19,.cls-20,.cls-4,.cls-5,.cls-8,.cls-9{stroke-width:0.73px;}.cls-16,.cls-19,.cls-5,.cls-8,.cls-9{stroke:#9c2f3a;}.cls-6,.cls-7{stroke:#1a171b;stroke-width:0.4px;}.cls-7{fill:url(#Unbenannter_Verlauf);}.cls-14,.cls-15,.cls-16,.cls-17,.cls-18,.cls-8,.cls-9{stroke-linecap:round;stroke-linejoin:round;}.cls-17,.cls-8{stroke-dasharray:0 2.2;}.cls-10{clip-path:url(#clip-path);}.cls-11{fill:url(#Unbenannter_Verlauf_2);}.cls-12,.cls-45{fill:#9c2f3a;}.cls-13,.cls-27,.cls-47{fill:#a7a7a7;}.cls-14{stroke-dasharray:0 1.77;}.cls-16,.cls-18{stroke-dasharray:0 2.18;}.cls-19,.cls-20{stroke-dasharray:5.99 3.99;}.cls-21{stroke:#fff;stroke-width:2.9px;}.cls-22{font-size:11px;}.cls-22,.cls-27,.cls-45,.cls-47{font-family:Calibri-Bold, Calibri;font-weight:700;}.cls-23{letter-spacing:-0.02em;}.cls-24{letter-spacing:-0.01em;}.cls-25{letter-spacing:-0.01em;}.cls-26{letter-spacing:-0.02em;}.cls-27{font-size:14px;letter-spacing:0.12em;}.cls-28{letter-spacing:0.19em;}.cls-29{letter-spacing:0.2em;}.cls-30{letter-spacing:0.19em;}.cls-31{letter-spacing:0.19em;}.cls-32{letter-spacing:0.18em;}.cls-33,.cls-45,.cls-47{font-size:6px;}.cls-33,.cls-35,.cls-54{font-family:Calibri, Calibri;}.cls-34{letter-spacing:-0.02em;}.cls-35,.cls-54{font-size:8px;}.cls-36{letter-spacing:-0.1em;}.cls-37{letter-spacing:-0.01em;}.cls-38{letter-spacing:-0.02em;}.cls-39{letter-spacing:-0.02em;}.cls-40{letter-spacing:0.01em;}.cls-41{letter-spacing:0.01em;}.cls-42{letter-spacing:-0.07em;}.cls-43{letter-spacing:-0.01em;}.cls-44{letter-spacing:-0.01em;}.cls-46{letter-spacing:-0.02em;}.cls-48{letter-spacing:-0.01em;}.cls-49{letter-spacing:-0.01em;}.cls-50{letter-spacing:-0.01em;}.cls-51{letter-spacing:-0.01em;}.cls-52{letter-spacing:0em;}.cls-53{letter-spacing:-0.01em;}.cls-55{letter-spacing:-0.01em;}.cls-56{letter-spacing:-0.04em;}.cls-57{letter-spacing:-0.02em;}</style><linearGradient id="Unbenannter_Verlauf" x1="-830.41" y1="1086.18" x2="-829.41" y2="1086.18" gradientTransform="matrix(0, 49.95, 49.95, 0, -53975.77, 41576.19)" gradientUnits="userSpaceOnUse"><stop offset="0" stop-color="#9c2f3a"/><stop offset="0" stop-color="#9c2f3a"/><stop offset="0.18" stop-color="#9d3d47"/><stop offset="0.5" stop-color="#a16369"/><stop offset="0.94" stop-color="#a69f9f"/><stop offset="1" stop-color="#a7a7a7"/></linearGradient><clipPath id="clip-path" transform="translate(-31 -30.95)"><rect class="cls-1" x="105.6" y="115.7" width="61.7" height="69.5"/></clipPath><linearGradient id="Unbenannter_Verlauf_2" x1="-836.23" y1="1054.68" x2="-835.23" y2="1054.68" gradientTransform="translate(73384.64 58185.93) rotate(90) scale(69.48)" gradientUnits="userSpaceOnUse"><stop offset="0" stop-color="#9c2f3a"/><stop offset="0.02" stop-color="#9c2f3a"/><stop offset="0.42" stop-color="#a1656b"/><stop offset="0.81" stop-color="#a59596"/><stop offset="1" stop-color="#a7a7a7"/></linearGradient></defs><title>REDCOM_Grafik_STR_Analyse-Tagesablaufplan oberer Teil 2018-02-04_5</title><rect class="cls-2" x="430.1" y="84.75" width="61.7" height="69.5"/><polygon class="cls-3" points="436.3 134.85 433.2 134.85 430.3 119.25 429.9 119.25 427 134.85 423.9 134.85 430.1 149.25 436.3 134.85"/><polygon class="cls-4" points="436.3 134.85 433.2 134.85 430.3 119.25 429.9 119.25 427 134.85 423.9 134.85 430.1 149.25 436.3 134.85"/><polygon class="cls-3" points="389.6 134.85 386.5 134.85 383.6 129.55 383.3 129.55 380.4 134.85 377.3 134.85 383.5 149.25 389.6 134.85"/><polygon class="cls-4" points="389.6 134.85 386.5 134.85 383.6 129.55 383.3 129.55 380.4 134.85 377.3 134.85 383.5 149.25 389.6 134.85"/><polygon class="cls-3" points="389.6 104.05 386.5 104.05 383.6 109.75 383.3 109.75 380.4 104.05 377.3 104.05 383.5 89.65 389.6 104.05"/><polygon class="cls-5" points="389.6 104.05 386.5 104.05 383.6 109.75 383.3 109.75 380.4 104.05 377.3 104.05 383.5 89.65 389.6 104.05"/><polygon class="cls-6" points="300.7 115.65 303.8 115.65 305.9 147.05 236.9 148.25 236.9 149.05 307.7 149.55 307.9 147.05 310 115.65 313 115.65 306.9 101.25 300.7 115.65"/><polygon class="cls-7" points="300.7 115.65 300.7 115.65 303.8 115.65 305.9 147.05 236.9 148.25 236.9 149.05 307.7 149.55 307.9 147.05 310 115.65 313 115.65 306.9 101.25 300.7 115.65 300.7 115.65 300.7 115.65 306.9 101.25 313 115.65 310 115.65 307.9 147.05 307.7 149.55 236.9 149.05 236.9 148.25 305.9 147.05 303.8 115.65 300.7 115.65"/><rect class="cls-2" x="21.1" y="84.65" width="53.4" height="69.6"/><line class="cls-8" x1="72" y1="84.25" x2="22.6" y2="84.25"/><path class="cls-9" d="M52.5,115.2h0m52.7,0h0" transform="translate(-31 -30.95)"/><g class="cls-10"><rect class="cls-11" x="74.6" y="84.75" width="61.7" height="69.5"/></g><rect class="cls-12" x="144.5" y="84.65" width="205.5" height="11.6"/><rect class="cls-12" x="101.3" y="71.25" width="6.2" height="4.1"/><rect class="cls-13" x="101.3" y="163.15" width="6.2" height="4.1"/><line class="cls-14" x1="21.4" y1="158.35" x2="21.4" y2="159.15"/><path class="cls-15" d="M52.4,191h0m0-3.5h0" transform="translate(-31 -30.95)"/><line class="cls-14" x1="491.5" y1="158.35" x2="491.5" y2="159.15"/><path class="cls-15" d="M522.5,191h0m0-3.5h0" transform="translate(-31 -30.95)"/><line class="cls-14" x1="74.5" y1="158.35" x2="74.5" y2="159.15"/><path class="cls-15" d="M105.5,191h0m0-3.5h0" transform="translate(-31 -30.95)"/><line class="cls-14" x1="430.4" y1="158.35" x2="430.4" y2="159.15"/><path class="cls-15" d="M461.4,191h0m0-3.5h0" transform="translate(-31 -30.95)"/><line class="cls-14" x1="350.3" y1="158.35" x2="350.3" y2="159.15"/><path class="cls-15" d="M381.3,191h0m0-3.5h0" transform="translate(-31 -30.95)"/><line class="cls-14" x1="21.4" y1="80.35" x2="21.4" y2="81.25"/><path class="cls-15" d="M52.4,113.1h0m0-3.6h0" transform="translate(-31 -30.95)"/><line class="cls-14" x1="491.5" y1="80.35" x2="491.5" y2="81.25"/><path class="cls-15" d="M522.5,113.1h0m0-3.6h0" transform="translate(-31 -30.95)"/><line class="cls-14" x1="74.5" y1="80.35" x2="74.5" y2="81.25"/><path class="cls-15" d="M105.5,113.1h0m0-3.6h0" transform="translate(-31 -30.95)"/><line class="cls-14" x1="430.4" y1="80.35" x2="430.4" y2="81.25"/><path class="cls-15" d="M461.4,113.1h0m0-3.6h0" transform="translate(-31 -30.95)"/><line class="cls-14" x1="350.3" y1="80.35" x2="350.3" y2="81.25"/><path class="cls-15" d="M381.3,113.1h0m0-3.6h0" transform="translate(-31 -30.95)"/><line class="cls-16" x1="489.2" y1="84.25" x2="431.6" y2="84.25"/><path class="cls-9" d="M461.5,115.2h0m60.9,0h0" transform="translate(-31 -30.95)"/><line class="cls-17" x1="72" y1="154.65" x2="22.6" y2="154.65"/><path class="cls-15" d="M52.5,185.6h0m52.7,0h0" transform="translate(-31 -30.95)"/><line class="cls-18" x1="489.2" y1="154.65" x2="431.6" y2="154.65"/><path class="cls-15" d="M461.5,185.6h0m60.9,0h0" transform="translate(-31 -30.95)"/><polygon class="cls-3" points="218.6 134.85 215.5 134.85 212.6 108.85 212.2 108.85 209.3 134.85 206.2 134.85 212.4 149.25 218.6 134.85"/><polygon class="cls-4" points="218.6 134.85 215.5 134.85 212.6 108.85 212.2 108.85 209.3 134.85 206.2 134.85 212.4 149.25 218.6 134.85"/><rect class="cls-13" x="144.5" y="127.35" width="53.4" height="26.9"/><polygon class="cls-3" points="436.3 104.05 433.2 104.05 430.3 118.95 429.9 118.95 427 104.05 423.9 104.05 430.1 89.65 436.3 104.05"/><polygon class="cls-5" points="436.3 104.05 433.2 104.05 430.3 118.95 429.9 118.95 427 104.05 423.9 104.05 430.1 89.65 436.3 104.05"/><line class="cls-19" x1="430.1" y1="84.25" x2="74.6" y2="84.25"/><line class="cls-20" x1="430.1" y1="154.65" x2="74.6" y2="154.65"/><polygon class="cls-12" points="492 0 492 11.3 0 15.9 0 33.4 492 38 492 49.3 538.6 24.6 492 0"/><polyline class="cls-21" points="127.7 38.45 152.8 25.15 130.9 13.55"/><polyline class="cls-21" points="329.4 43.25 363.3 25.15 335.2 10.35"/><text class="cls-22" transform="translate(46.4 28.85)"><tspan class="cls-23">A</tspan><tspan x="6.48" y="0">UFNAHME</tspan></text><text class="cls-22" transform="translate(185 29.15)">DI<tspan class="cls-24" x="9.87" y="0">A</tspan><tspan x="16.4" y="0">GNO</tspan><tspan class="cls-25" x="38.09" y="0">S</tspan><tspan x="43.18" y="0">TIK / BEHAND</tspan><tspan class="cls-26" x="106.59" y="0">L</tspan><tspan x="110.98" y="0">UNG</tspan></text><text class="cls-22" transform="translate(396.5 29.55)">ENTLASSUNG</text><text class="cls-27" transform="translate(22.8 60.55)">T<tspan class="cls-28" x="8.63" y="0">A</tspan><tspan class="cls-29" x="19.74" y="0">G</tspan><tspan class="cls-30" x="31.46" y="0">E</tspan><tspan class="cls-31" x="40.96" y="0">S</tspan><tspan class="cls-29" x="50.2" y="0">ABL</tspan><tspan class="cls-32" x="80.85" y="0">A</tspan><tspan class="cls-29" x="91.9" y="0">UFPLAN DER ÄRZTE</tspan></text><text class="cls-33" transform="translate(37.4 92.65)">Gleit<tspan class="cls-34" x="11.53" y="0">z</tspan><tspan x="13.77" y="0">eit</tspan></text><text class="cls-33" transform="translate(37.4 150.65)">Gleit<tspan class="cls-34" x="11.53" y="0">z</tspan><tspan x="13.77" y="0">eit</tspan></text><text class="cls-33" transform="translate(450.6 150.65)">Gleit<tspan class="cls-34" x="11.53" y="0">z</tspan><tspan x="13.77" y="0">eit</tspan></text><text class="cls-33" transform="translate(450.7 92.75)">Gleit<tspan class="cls-34" x="11.53" y="0">z</tspan><tspan x="13.77" y="0">eit</tspan></text><text class="cls-35" transform="translate(86.04 97.95)">Früh-Besp<tspan class="cls-36" x="32.98" y="0">r</tspan><tspan x="34.97" y="0">.:</tspan><tspan x="-2.53" y="9.6">Nac</tspan><tspan class="cls-37" x="9.85" y="9.6">h</tspan><tspan x="13.98" y="9.6">tberic</tspan><tspan class="cls-37" x="32.85" y="9.6">h</tspan><tspan x="36.98" y="9.6">t,</tspan><tspan class="cls-38" x="-4.93" y="19.2">K</tspan><tspan class="cls-39" x="-0.9" y="19.2">r</tspan><tspan x="1.72" y="19.2">ankmeldun</tspan><tspan class="cls-40" x="38.21" y="19.2">g</tspan><tspan x="42.07" y="19.2">,</tspan><tspan class="cls-41" x="7.47" y="28.8">g</tspan><tspan x="11.31" y="28.8">g</tspan><tspan class="cls-42" x="15.07" y="28.8">f</tspan><tspan x="16.98" y="28.8">. </tspan><tspan class="cls-39" x="20.81" y="28.8">R</tspan><tspan x="24.99" y="28.8">ö-</tspan><tspan x="-2.52" y="38.4">Besp</tspan><tspan class="cls-43" x="13.14" y="38.4">r</tspan><tspan x="15.83" y="38.4">echun</tspan><tspan class="cls-40" x="35.8" y="38.4">g</tspan><tspan x="39.65" y="38.4">,</tspan><tspan class="cls-44" x="0.81" y="48">F</tspan><tspan x="4.38" y="48">ortbildung</tspan></text><text class="cls-33" transform="translate(21.27 75.65)">07:30</text><text class="cls-33" transform="translate(67.27 75.65)">08:00</text><text class="cls-33" transform="translate(67.27 167.65)">08:00</text><text class="cls-33" transform="translate(21.27 167.65)">07:30</text><text class="cls-45" transform="translate(111.25 75.55)">Obe<tspan class="cls-46" x="10.3" y="0">r</tspan><tspan x="12.3" y="0">ärz</tspan><tspan class="cls-24" x="19.78" y="0">t</tspan><tspan x="21.79" y="0">e</tspan></text><text class="cls-47" transform="translate(111.01 167.55)">Assi<tspan class="cls-48" x="9.9" y="0">s</tspan><tspan class="cls-24" x="12.22" y="0">t</tspan><tspan x="14.23" y="0">en</tspan><tspan class="cls-49" x="20.47" y="0">z</tspan><tspan x="22.78" y="0">ärz</tspan><tspan class="cls-24" x="30.26" y="0">t</tspan><tspan x="32.26" y="0">e</tspan></text><text class="cls-35" transform="translate(155.4 92.8)">U<tspan class="cls-37" x="5.13" y="0">n</tspan><tspan class="cls-50" x="9.26" y="0">t</tspan><tspan x="11.86" y="0">e</tspan><tspan class="cls-23" x="15.84" y="0">r</tspan><tspan x="18.49" y="0">suchun</tspan><tspan class="cls-51" x="41.81" y="0">g</tspan><tspan x="45.51" y="0">en / Fun</tspan><tspan class="cls-52" x="72.48" y="0">k</tspan><tspan x="76.08" y="0">tionsdien</tspan><tspan class="cls-48" x="106.31" y="0">st</tspan><tspan x="111.95" y="0">e / HKT </tspan><tspan class="cls-53" x="137.48" y="0">e</tspan><tspan class="cls-24" x="141.42" y="0">t</tspan><tspan x="144" y="0">c.</tspan></text><text class="cls-35" transform="translate(160.47 138.3)">VISITE<tspan x="-6.26" y="9.6">AA alleine</tspan></text><text class="cls-54" transform="translate(221.5 115.05)"><tspan class="cls-48">O</tspan><tspan class="cls-55" x="5.21" y="0">A</tspan><tspan x="9.78" y="0">-Visi</tspan><tspan class="cls-50" x="23.57" y="0">t</tspan><tspan x="26.16" y="0">e</tspan><tspan x="0" y="9.6">i.d.R</tspan><tspan x="0" y="19.2">1x / </tspan><tspan class="cls-56" x="14.23" y="19.2">W</tspan><tspan x="21.01" y="19.2">oche</tspan></text><text class="cls-33" transform="translate(333.87 75.65)">14:30 / 15:30</text><text class="cls-33" transform="translate(333.87 167.65)">14:30 / 15:30</text><text class="cls-54" transform="translate(362.02 117.05)">Nachmi<tspan class="cls-24" x="24.81" y="0">tt</tspan><tspan x="29.79" y="0">ags-</tspan><tspan x="12.52" y="9.6">Visi</tspan><tspan class="cls-50" x="23.86" y="9.6">t</tspan><tspan x="26.46" y="9.6">e</tspan></text><text x="-31" y="-30.95"></text><text class="cls-33" transform="translate(423.27 75.65)">16:30</text><text class="cls-33" transform="translate(484.27 75.65)">17:00</text><text class="cls-54" transform="translate(438.5 112.05)">Dien<tspan class="cls-48" x="14.94" y="0">s</tspan><tspan x="17.98" y="0">tschluss</tspan><tspan x="0" y="9.6">und Übe</tspan><tspan class="cls-44" x="27.73" y="9.6">r</tspan><tspan class="cls-57" x="30.41" y="9.6">g</tspan><tspan x="34.03" y="9.6">abe</tspan><tspan x="0" y="19.2">an die Dien</tspan><tspan class="cls-48" x="36.61" y="19.2">st</tspan><tspan x="42.25" y="19.2">e</tspan></text><text class="cls-33" transform="translate(484.27 167.65)">17:00</text><text class="cls-33" transform="translate(423.27 167.65)">16:30</text></svg>