<?xml version="1.0" encoding="UTF-8" standalone="no"?>
<svg
   xmlns:dc="http://purl.org/dc/elements/1.1/"
   xmlns:cc="http://creativecommons.org/ns#"
   xmlns:rdf="http://www.w3.org/1999/02/22-rdf-syntax-ns#"
   xmlns:svg="http://www.w3.org/2000/svg"
   xmlns="http://www.w3.org/2000/svg"
   viewBox="0 0 780 438.75"
   height="438.75"
   width="780"
   xml:space="preserve"
   version="1.1"
   id="svg2"><metadata
     id="metadata8"><rdf:RDF><cc:Work
         rdf:about=""><dc:format>image/svg+xml</dc:format><dc:type
           rdf:resource="http://purl.org/dc/dcmitype/StillImage" /></cc:Work></rdf:RDF></metadata><defs
     id="defs6"><clipPath
       id="clipPath56"
       clipPathUnits="userSpaceOnUse"><path
         id="path58"
         d="m 2298.04,1656.78 c 0,-46.07 -32.45,-102.28 -72.36,-125.32 l -234,-135.14 c -19.14,-11.07 -44.84,-17.14 -72.37,-17.14 -27.52,0 -53.22,6.07 -72.36,17.14 l -234,135.14 c -39.9,23.04 -72.36,79.25 -72.36,125.32 l 0,270.18 c 0,45.3 33.14,102.7 72.36,125.35 l 233.99,135.1 c 19.15,11.04 44.86,17.13 72.37,17.13 27.52,0 53.22,-6.09 72.37,-17.13 l 234,-135.1 c 39.23,-22.65 72.36,-80.05 72.36,-125.35 l 0,-270.18 z m -69.07,401.24 -233.99,135.09 c -20.83,12.02 -48.25,18.01 -75.67,18.01 -27.42,0 -54.84,-5.99 -75.65,-18.01 l -234,-135.09 C 1568.06,2034 1534,1975 1534,1926.96 l 0,-270.18 c 0,-48.1 34.06,-107.01 75.66,-131.04 l 234,-135.12 c 20.81,-12.03 48.23,-18.03 75.65,-18.03 27.42,0 54.84,6 75.67,18.03 l 233.99,135.12 c 41.6,24.03 75.66,82.94 75.66,131.04 l 0,270.18 c 0,48.04 -34.06,107.04 -75.66,131.06 z m 99.76,-418.94 c 0,-45.32 -33.15,-102.73 -72.39,-125.39 L 1991.7,1360.91 c -18.54,-10.7 -44.93,-16.86 -72.39,-16.86 -27.46,0 -53.85,6.16 -72.39,16.86 l -264.63,152.78 c -39.24,22.66 -72.38,80.07 -72.38,125.39 l 0,305.57 c 0,45.31 33.14,102.72 72.38,125.38 l 264.63,152.78 c 18.54,10.71 44.93,16.85 72.39,16.85 27.46,0 53.85,-6.14 72.39,-16.85 l 264.64,-152.78 c 39.24,-22.66 72.39,-80.07 72.39,-125.38 l 0,-305.57 z m -59.21,453.77 -264.64,152.77 c -23.54,13.59 -54.55,20.39 -85.57,20.39 -31.01,0 -62.03,-6.8 -85.56,-20.39 l -264.63,-152.77 c -47.05,-27.17 -85.56,-93.87 -85.56,-148.2 l 0,-305.57 c 0,-54.34 38.51,-121.03 85.56,-148.2 l 264.63,-152.79 c 23.53,-13.59 54.55,-20.38 85.56,-20.38 31.02,0 62.03,6.79 85.57,20.38 l 264.64,152.79 c 47.05,27.17 85.55,93.86 85.55,148.2 l 0,305.57 c 0,54.33 -38.5,121.03 -85.55,148.2 z m -183.79,-410.35 0,182.62 65.05,-178.72 20.18,7.34 -85.23,234.13 0,5.6 -21.47,0 0,-5.6 -85.21,-234.13 20.18,-7.34 65.03,178.67 0,-182.57 21.47,0 z m -123.46,-40.3 225.47,0 0,30.9 -225.47,0 0,-30.9 z m -187.91,332.85 129.53,0 0,-19.58 30.85,0 0,19.58 129.52,0 0,-19.58 21.47,0 0,19.58 0.05,0 0,30.87 -332.89,0 0,-50.45 21.47,0 0,19.58 z m -21.47,-109.98 0,-182.57 21.47,0 0,182.6 65.04,-178.7 20.18,7.34 -85.22,234.14 0,5.59 -21.47,0 0,-5.63 -85.21,-234.1 20.19,-7.34 65.02,178.67 z m 123.48,-191.97 -225.48,0 0,-30.9 225.48,0 0,30.9 z m 58.37,260.35 -30.85,0 0,-324.8 -53.02,0 0,-30.85 136.9,0 0,30.85 -53.03,0 0,324.8 z" /></clipPath><linearGradient
       id="linearGradient60"
       spreadMethod="pad"
       gradientTransform="matrix(-4.15e-5,-948.306,-948.306,4.15e-5,1919.32,2266.01)"
       gradientUnits="userSpaceOnUse"
       y2="0"
       x2="1"
       y1="0"
       x1="0"><stop
         id="stop62"
         offset="0"
         style="stop-opacity:1;stop-color:#90dbe9" /><stop
         id="stop64"
         offset="1"
         style="stop-opacity:1;stop-color:#4197c5" /></linearGradient></defs><g
     transform="matrix(1.25,0,0,-1.25,0,438.75)"
     id="g10"><g
       transform="scale(0.1,0.1)"
       id="g12"><path
         id="path14"
         style="fill:#393536;fill-opacity:1;fill-rule:nonzero;stroke:none"
         d="m 2814.43,1782.31 1.62,0 c 10.93,37.25 48.18,154.65 62.34,206.46 4.05,14.98 4.46,20.65 4.46,25.91 0,7.29 -4.46,12.15 -23.07,12.15 -2.03,0 -3.65,1.21 -3.65,2.83 0,2.02 2.02,2.83 6.88,2.83 20.65,0 37.65,-1.21 41.29,-1.21 2.84,0 20.25,1.21 32.79,1.21 3.65,0 5.67,-0.81 5.67,-2.43 0,-2.02 -1.21,-3.23 -3.64,-3.23 -1.62,0 -9.32,-0.41 -13.77,-2.03 -12.14,-4.45 -18.62,-21.46 -26.31,-43.72 -17.81,-51.41 -58.7,-180.14 -74.48,-225.48 -10.53,-29.96 -12.55,-34.82 -17.01,-34.82 -4.04,0 -6.48,5.26 -12.14,21.06 l -79.35,225.07 -0.81,0 c -14.57,-38.86 -70.03,-187.03 -84.6,-224.67 -6.48,-17.01 -8.5,-21.46 -13.36,-21.46 -4.05,0 -6.07,4.45 -14.17,31.98 l -72.06,240.06 c -6.48,21.46 -11.73,27.53 -22.26,31.57 -5.26,2.03 -15.38,2.44 -18.22,2.44 -2.02,0 -3.64,0.4 -3.64,2.83 0,2.02 2.43,2.83 6.48,2.83 21.05,0 43.31,-1.21 47.76,-1.21 3.65,0 21.46,1.21 41.7,1.21 5.66,0 7.29,-1.21 7.29,-2.83 0,-2.43 -2.03,-2.83 -4.05,-2.83 -3.24,0 -10.93,0 -15.79,-2.44 -2.43,-1.21 -5.26,-4.45 -5.26,-9.71 0,-5.26 3.64,-19.43 7.69,-37.24 6.07,-25.91 48.17,-174.48 54.25,-195.94 l 0.8,0 85.83,230.75 c 6.07,16.6 7.69,18.62 10.11,18.62 2.84,0 5.27,-5.26 10.13,-19.02 l 80.55,-229.54" /><path
         id="path16"
         style="fill:#393536;fill-opacity:1;fill-rule:nonzero;stroke:none"
         d="m 3078.78,1860.45 c 2.03,0 2.03,1.21 1.63,2.83 l -38.46,109.3 c -2.03,6.07 -4.05,6.07 -6.08,0 l -35.62,-109.3 c -0.81,-2.02 0,-2.83 1.21,-2.83 l 77.32,0 z m -42.1,161.92 c 4.86,13.36 6.48,15.79 8.91,15.79 2.43,0 4.05,-2.02 8.91,-14.58 6.07,-15.38 69.63,-182.56 94.32,-244.1 14.57,-36.02 26.32,-42.51 34.81,-44.93 6.08,-2.03 12.15,-2.43 16.19,-2.43 2.43,0 4.05,-0.4 4.05,-2.43 0,-2.42 -3.64,-3.23 -8.09,-3.23 -6.07,0 -35.62,0 -63.55,0.81 -7.7,0.4 -12.15,0.4 -12.15,2.83 0,1.62 1.21,2.42 2.83,2.83 2.43,0.81 4.86,4.45 2.43,10.93 l -37.65,99.59 c -0.81,1.61 -1.62,2.42 -3.64,2.42 l -87.04,0 c -2.02,0 -3.24,-1.21 -4.05,-3.23 l -24.28,-71.66 c -3.65,-10.12 -5.67,-19.84 -5.67,-27.12 0,-8.1 8.5,-11.74 15.38,-11.74 l 4.05,0 c 2.83,0 4.04,-0.81 4.04,-2.43 0,-2.42 -2.42,-3.23 -6.06,-3.23 -9.72,0 -27.13,1.21 -31.58,1.21 -4.46,0 -26.72,-1.21 -45.74,-1.21 -5.27,0 -7.69,0.81 -7.69,3.23 0,1.62 1.61,2.43 3.64,2.43 2.83,0 8.5,0.4 11.74,0.81 18.62,2.43 26.71,17.81 34,38.05 l 91.89,251.39" /><path
         id="path18"
         style="fill:#393536;fill-opacity:1;fill-rule:nonzero;stroke:none"
         d="m 3287.68,1843.04 c 0,-59.5 1.62,-85.41 8.9,-92.71 6.48,-6.47 16.99,-9.3 48.58,-9.3 21.45,0 39.26,0.4 48.98,12.14 5.26,6.48 9.32,16.6 10.53,24.29 0.4,3.23 1.21,5.26 3.64,5.26 2.02,0 2.43,-1.62 2.43,-6.07 0,-4.45 -2.83,-28.74 -6.07,-40.48 -2.83,-9.31 -4.05,-10.94 -25.51,-10.94 -29.14,0 -50.2,0.81 -67.2,1.23 -17,0.81 -29.55,1.21 -41.3,1.21 -1.61,0 -8.49,-0.4 -16.59,-0.4 -8.09,-0.41 -17,-0.81 -23.07,-0.81 -4.46,0 -6.48,0.81 -6.48,3.23 0,1.22 0.81,2.43 3.23,2.43 3.66,0 8.51,0.81 12.15,1.62 8.11,1.62 10.12,10.53 11.74,22.27 2.03,17 2.03,48.98 2.03,87.84 l 0,71.25 c 0,63.15 0,74.48 -0.81,87.43 -0.81,13.77 -4.05,20.25 -17.41,23.08 -3.24,0.81 -10.12,1.22 -13.76,1.22 -1.62,0 -3.24,0.81 -3.24,2.42 0,2.43 2.02,3.24 6.47,3.24 18.22,0 43.73,-1.21 45.74,-1.21 2.04,0 31.59,1.21 43.73,1.21 4.46,0 6.48,-0.81 6.48,-3.24 0,-1.61 -1.62,-2.42 -3.24,-2.42 -2.84,0 -8.51,-0.41 -13.35,-1.22 -11.75,-2.03 -14.98,-8.91 -15.8,-23.08 -0.8,-12.95 -0.8,-24.28 -0.8,-87.43 l 0,-72.06" /><path
         id="path20"
         style="fill:#393536;fill-opacity:1;fill-rule:nonzero;stroke:none"
         d="m 3547.17,1843.85 c 0,-38.86 0,-70.84 2.02,-87.84 1.22,-11.74 3.64,-20.65 15.79,-22.27 5.66,-0.81 14.57,-1.62 18.21,-1.62 2.44,0 3.24,-1.21 3.24,-2.43 0,-2.02 -2.02,-3.23 -6.47,-3.23 -22.26,0 -47.77,1.21 -49.8,1.21 -2.02,0 -27.52,-1.21 -39.67,-1.21 -4.45,0 -6.48,0.81 -6.48,3.23 0,1.22 0.81,2.43 3.24,2.43 3.65,0 8.5,0.81 12.14,1.62 8.11,1.62 10.12,10.53 11.74,22.27 2.03,17 2.03,48.98 2.03,87.84 l 0,171.23 -59.92,-0.8 c -25.1,-0.41 -34.8,-3.24 -41.29,-12.96 -4.45,-6.88 -5.66,-9.71 -6.87,-12.55 -1.21,-3.24 -2.43,-4.05 -4.05,-4.05 -1.23,0 -2.03,1.22 -2.03,3.65 0,4.05 8.1,38.86 8.91,42.1 0.8,2.43 2.42,7.69 4.04,7.69 2.84,0 6.89,-4.05 17.82,-4.86 11.73,-1.21 27.12,-2.02 31.98,-2.02 l 151.8,0 c 12.95,0 22.27,0.81 28.74,2.02 6.08,0.81 9.72,2.03 11.34,2.03 2.02,0 2.02,-2.43 2.02,-4.86 0,-12.14 -1.21,-40.08 -1.21,-44.53 0,-3.65 -1.22,-5.27 -2.84,-5.27 -2.01,0 -2.83,1.22 -3.23,6.89 l -0.4,4.45 c -1.22,12.15 -10.94,21.46 -49.8,22.27 l -51,0.8 0,-171.23" /><path
         id="path22"
         style="fill:#393536;fill-opacity:1;fill-rule:nonzero;stroke:none"
         d="m 3977.08,1843.85 c 0,-38.86 0,-70.84 2.02,-87.84 1.21,-11.74 3.64,-20.65 15.79,-22.27 5.67,-0.81 14.57,-1.62 18.22,-1.62 2.43,0 3.24,-1.21 3.24,-2.43 0,-2.02 -2.03,-3.23 -6.49,-3.23 -22.26,0 -47.76,1.21 -49.78,1.21 -2.03,0 -27.53,-1.21 -39.67,-1.21 -4.45,0 -6.48,0.81 -6.48,3.23 0,1.22 0.81,2.43 3.24,2.43 3.64,0 8.49,0.81 12.15,1.62 8.08,1.62 10.11,10.53 11.73,22.27 2.03,17 2.03,48.98 2.03,87.84 l 0,42.51 c 0,1.61 -1.22,2.42 -2.44,2.42 l -171.64,0 c -1.21,0 -2.43,-0.4 -2.43,-2.42 l 0,-42.51 c 0,-38.86 0,-70.84 2.02,-87.84 1.22,-11.74 3.66,-20.65 15.79,-22.27 5.68,-0.81 14.58,-1.62 18.22,-1.62 2.44,0 3.24,-1.21 3.24,-2.43 0,-2.02 -2.02,-3.23 -6.47,-3.23 -22.27,0 -47.77,1.21 -49.8,1.21 -2.02,0 -27.52,-1.21 -39.67,-1.21 -4.45,0 -6.48,0.81 -6.48,3.23 0,1.22 0.82,2.43 3.24,2.43 3.64,0 8.5,0.81 12.15,1.62 8.09,1.62 10.12,10.53 11.74,22.27 2.02,17 2.02,48.98 2.02,87.84 l 0,71.25 c 0,63.15 0,74.48 -0.81,87.43 -0.8,13.77 -4.05,20.25 -17.4,23.08 -3.25,0.81 -10.12,1.22 -13.77,1.22 -1.63,0 -3.25,0.81 -3.25,2.42 0,2.43 2.04,3.24 6.49,3.24 18.22,0 43.72,-1.21 45.74,-1.21 2.03,0 27.53,1.21 39.67,1.21 4.45,0 6.48,-0.81 6.48,-3.24 0,-1.61 -1.62,-2.42 -3.24,-2.42 -2.83,0 -5.25,-0.41 -10.12,-1.22 -10.93,-2.03 -14.17,-8.91 -14.98,-23.08 -0.81,-12.95 -0.81,-24.28 -0.81,-87.43 l 0,-8.5 c 0,-2.03 1.22,-2.43 2.43,-2.43 l 171.64,0 c 1.22,0 2.44,0.4 2.44,2.43 l 0,8.5 c 0,63.15 0,74.48 -0.81,87.43 -0.81,13.77 -4.05,20.25 -17.41,23.08 -3.24,0.81 -10.12,1.22 -13.77,1.22 -1.62,0 -3.24,0.81 -3.24,2.42 0,2.43 2.03,3.24 6.49,3.24 18.21,0 43.71,-1.21 45.74,-1.21 2.02,0 27.52,1.21 39.67,1.21 4.45,0 6.48,-0.81 6.48,-3.24 0,-1.61 -1.62,-2.42 -3.24,-2.42 -2.83,0 -5.27,-0.41 -10.12,-1.22 -10.94,-2.03 -14.18,-8.91 -14.98,-23.08 -0.81,-12.95 -0.81,-24.28 -0.81,-87.43 l 0,-71.25" /><path
         id="path24"
         style="fill:#393536;fill-opacity:1;fill-rule:nonzero;stroke:none"
         d="m 4113.11,1915.1 c 0,63.15 0,74.48 -0.82,87.43 -0.81,13.77 -4.05,20.25 -17.41,23.08 -3.24,0.81 -10.11,1.22 -13.76,1.22 -1.62,0 -3.24,0.81 -3.24,2.42 0,2.43 2.02,3.24 6.48,3.24 9.31,0 20.24,0 29.15,-0.4 l 16.59,-0.81 c 2.84,0 83.4,0 92.71,0.4 7.69,0.41 14.16,1.22 17.4,2.03 2.03,0.4 3.65,2.02 5.67,2.02 1.21,0 1.62,-1.62 1.62,-3.64 0,-2.84 -2.02,-7.7 -3.24,-19.03 -0.4,-4.05 -1.21,-21.86 -2.02,-26.72 -0.4,-2.02 -1.21,-4.45 -2.84,-4.45 -2.43,0 -3.23,2.03 -3.23,5.26 0,2.84 -0.41,9.72 -2.44,14.58 -2.83,6.47 -6.87,11.33 -28.73,13.76 -6.88,0.81 -51.02,1.21 -55.47,1.21 -1.62,0 -2.42,-1.21 -2.42,-4.04 l 0,-111.73 c 0,-2.83 0.4,-4.05 2.42,-4.05 5.27,0 55.06,0 64.38,0.81 9.7,0.81 15.37,1.62 19.02,5.66 2.83,3.25 4.45,5.27 6.07,5.27 1.21,0 2.03,-0.81 2.03,-3.24 0,-2.43 -2.03,-9.31 -3.25,-22.67 -0.81,-8.1 -1.61,-23.07 -1.61,-25.9 0,-3.25 0,-7.7 -2.84,-7.7 -2.02,0 -2.83,1.62 -2.83,3.64 0,4.06 0,8.1 -1.62,13.36 -1.61,5.67 -5.27,12.55 -21.05,14.17 -10.94,1.21 -51.01,2.02 -57.89,2.02 -2.03,0 -2.83,-1.21 -2.83,-2.83 l 0,-35.62 c 0,-13.76 -0.41,-60.73 0,-69.22 1.21,-27.94 7.28,-33.2 46.95,-33.2 10.53,0 28.34,0 38.87,4.45 10.53,4.45 15.38,12.55 18.21,29.15 0.81,4.45 1.62,6.07 3.65,6.07 2.43,0 2.43,-3.24 2.43,-6.07 0,-3.24 -3.24,-30.76 -5.27,-39.27 -2.83,-10.53 -6.07,-10.53 -21.85,-10.53 -30.37,0 -52.64,0.81 -68.42,1.23 -15.78,0.81 -25.51,1.21 -31.58,1.21 -0.8,0 -7.69,0 -16.19,-0.4 -8.09,0 -17.41,-0.81 -23.48,-0.81 -4.45,0 -6.47,0.81 -6.47,3.23 0,1.22 0.81,2.43 3.23,2.43 3.65,0 8.5,0.81 12.15,1.62 8.1,1.62 10.11,10.53 11.73,22.27 2.04,17 2.04,48.98 2.04,87.84 l 0,71.25" /><path
         id="path26"
         style="fill:#393536;fill-opacity:1;fill-rule:nonzero;stroke:none"
         d="m 4384.33,1879.87 c 0,-2.02 0.81,-3.64 2.83,-4.85 6.07,-3.64 24.7,-6.48 42.51,-6.48 9.71,0 21.04,1.22 30.36,7.69 14.16,9.72 24.69,31.58 24.69,62.34 0,50.6 -26.72,80.97 -70.03,80.97 -12.15,0 -23.08,-1.21 -27.13,-2.43 -2.01,-0.81 -3.23,-2.43 -3.23,-4.86 l 0,-132.38 z m -32.4,35.23 c 0,63.15 0,74.48 -0.8,87.43 -0.81,13.77 -4.05,20.25 -17.4,23.08 -3.24,0.81 -10.13,1.22 -13.77,1.22 -1.62,0 -3.24,0.81 -3.24,2.42 0,2.43 2.03,3.24 6.48,3.24 18.22,0 43.71,-1.21 45.75,-1.21 4.45,0 35.21,1.21 47.76,1.21 25.51,0 52.63,-2.43 74.08,-17.81 10.12,-7.29 27.93,-27.12 27.93,-55.06 0,-29.95 -12.55,-59.91 -48.97,-93.51 33.19,-42.51 60.71,-78.53 84.2,-103.63 21.85,-23.08 39.26,-27.53 49.38,-29.15 7.7,-1.21 13.36,-1.21 15.79,-1.21 2.02,0 3.64,-1.21 3.64,-2.43 0,-2.42 -2.43,-3.23 -9.71,-3.23 l -28.74,0 c -22.68,0 -32.8,2.02 -43.32,7.68 -17.41,9.32 -31.58,29.15 -54.65,59.51 -17,22.27 -36.03,49.39 -44.12,59.91 -1.62,1.63 -2.84,2.44 -5.27,2.44 l -49.79,0.81 c -2.02,0 -2.83,-1.22 -2.83,-3.25 l 0,-9.71 c 0,-38.86 0,-70.84 2.02,-87.84 1.21,-11.74 3.64,-20.65 15.79,-22.27 5.66,-0.81 14.57,-1.62 18.21,-1.62 2.43,0 3.24,-1.21 3.24,-2.43 0,-2.02 -2.02,-3.23 -6.47,-3.23 -22.28,0 -47.77,1.21 -49.8,1.21 -0.41,0 -25.9,-1.21 -38.04,-1.21 -4.46,0 -6.49,0.81 -6.49,3.23 0,1.22 0.81,2.43 3.25,2.43 3.63,0 8.49,0.81 12.13,1.62 8.1,1.62 10.13,10.53 11.75,22.27 2.01,17 2.01,48.98 2.01,87.84 l 0,71.25" /><path
         id="path28"
         style="fill:#656263;fill-opacity:1;fill-rule:nonzero;stroke:none"
         d="m 2942.62,1584.91 c -0.64,11.94 -1.4,26.41 -1.4,36.95 l -0.25,0 c -3.05,-9.91 -6.48,-20.7 -10.79,-32.5 l -15.11,-41.52 -8.38,0 -13.97,40.75 c -4.06,12.19 -7.36,23.11 -9.77,33.27 l -0.25,0 c -0.26,-10.67 -0.89,-24.89 -1.66,-37.84 l -2.28,-36.69 -10.54,0 5.97,85.57 14.09,0 14.6,-41.39 c 3.56,-10.53 6.35,-19.93 8.63,-28.81 l 0.26,0 c 2.28,8.63 5.33,18.02 9.14,28.81 l 15.23,41.39 14.09,0 5.34,-85.57 -10.92,0 -2.03,37.58" /><path
         id="path30"
         style="fill:#656263;fill-opacity:1;fill-rule:nonzero;stroke:none"
         d="m 3065.04,1587.45 -33.13,0 0,-30.85 37.07,0 0,-9.27 -48.24,0 0,85.57 46.34,0 0,-9.27 -35.17,0 0,-27.04 33.13,0 0,-9.14" /><path
         id="path32"
         style="fill:#656263;fill-opacity:1;fill-rule:nonzero;stroke:none"
         d="m 3142.65,1555.97 c 2.79,-0.51 6.85,-0.51 11.17,-0.51 23.61,-0.13 36.43,13.2 36.43,36.31 0.13,20.44 -11.29,33.01 -34.65,33.01 -5.72,0 -10.03,-0.51 -12.95,-1.15 l 0,-67.66 z m -11.18,75.79 c 6.86,1.01 14.86,1.78 23.62,1.78 15.87,0 27.17,-3.56 34.66,-10.54 7.74,-6.98 12.18,-17.01 12.18,-30.85 0,-13.97 -4.44,-25.39 -12.31,-33.26 -8.13,-8 -21.33,-12.32 -37.96,-12.32 -8,0 -14.47,0.26 -20.19,1.02 l 0,84.17" /><path
         id="path34"
         style="fill:#656263;fill-opacity:1;fill-rule:nonzero;stroke:none"
         d="m 3264.31,1547.33 11.1719,0 0,85.5664 -11.1719,0 0,-85.5664 z" /><path
         id="path36"
         style="fill:#656263;fill-opacity:1;fill-rule:nonzero;stroke:none"
         d="m 3337.2,1553.81 47.48,69.44 0,0.38 -43.42,0 0,9.27 57.76,0 0,-6.73 -47.22,-69.19 0,-0.38 47.86,0 0,-9.27 -62.46,0 0,6.48" /><path
         id="path38"
         style="fill:#656263;fill-opacity:1;fill-rule:nonzero;stroke:none"
         d="m 3461.4,1547.33 11.1719,0 0,85.5664 -11.1719,0 0,-85.5664 z" /><path
         id="path40"
         style="fill:#656263;fill-opacity:1;fill-rule:nonzero;stroke:none"
         d="m 3540.13,1547.33 0,85.57 12.18,0 27.3,-43.29 c 6.22,-10.03 11.3,-18.92 15.23,-27.8 l 0.38,0.12 c -1.01,11.43 -1.26,21.84 -1.26,35.04 l 0,35.93 10.41,0 0,-85.57 -11.18,0 -27.16,43.42 c -5.97,9.52 -11.68,19.3 -15.87,28.57 l -0.38,-0.13 c 0.63,-10.79 0.76,-21.07 0.76,-35.29 l 0,-36.57 -10.41,0" /><path
         id="path42"
         style="fill:#656263;fill-opacity:1;fill-rule:nonzero;stroke:none"
         d="m 3682.99,1592.78 11.3,0 c 11.8,0 19.29,6.48 19.29,16.25 0,11.05 -7.99,15.87 -19.67,15.87 -5.34,0 -9.02,-0.51 -10.92,-1.01 l 0,-31.11 z m -11.05,38.85 c 5.59,1.14 13.71,1.91 21.2,1.91 11.81,0 19.56,-2.29 24.89,-7.11 4.19,-3.69 6.73,-9.53 6.73,-16.25 0,-11.18 -7.24,-18.67 -16.13,-21.71 l 0,-0.38 c 6.48,-2.29 10.41,-8.38 12.57,-17.27 2.79,-11.93 4.83,-20.19 6.48,-23.49 l -11.43,0 c -1.4,2.42 -3.3,9.78 -5.59,20.44 -2.53,11.81 -7.23,16.25 -17.26,16.63 l -10.41,0 0,-37.07 -11.05,0 0,84.3" /><path
         id="path44"
         style="fill:#656263;fill-opacity:1;fill-rule:nonzero;stroke:none"
         d="m 3832.7,1587.45 -33.14,0 0,-30.85 37.07,0 0,-9.27 -48.24,0 0,85.57 46.34,0 0,-9.27 -35.17,0 0,-27.04 33.14,0 0,-9.14" /><path
         id="path46"
         style="fill:#656263;fill-opacity:1;fill-rule:nonzero;stroke:none"
         d="m 3958.93,1550 c -3.94,-2.03 -12.19,-4.06 -22.6,-4.06 -24.12,0 -42.15,15.23 -42.15,43.42 0,26.91 18.15,44.94 44.69,44.94 10.53,0 17.39,-2.29 20.31,-3.81 l -2.79,-9.02 c -4.07,2.04 -10.03,3.56 -17.14,3.56 -20.06,0 -33.39,-12.82 -33.39,-35.29 0,-21.08 12.06,-34.41 32.75,-34.41 6.86,0 13.71,1.4 18.16,3.56 l 2.16,-8.89" /><path
         id="path48"
         style="fill:#656263;fill-opacity:1;fill-rule:nonzero;stroke:none"
         d="m 4032.21,1632.9 0,-35.8 41.38,0 0,35.8 11.18,0 0,-85.57 -11.18,0 0,40.12 -41.38,0 0,-40.12 -11.17,0 0,85.57 11.17,0" /><path
         id="path50"
         style="fill:#656263;fill-opacity:1;fill-rule:nonzero;stroke:none"
         d="m 4168.47,1623.51 -26.03,0 0,9.39 63.35,0 0,-9.39 -26.15,0 0,-76.18 -11.17,0 0,76.18" /><g
         id="g52"><g
           clip-path="url(#clipPath56)"
           id="g54"><path
             id="path66"
             style="fill:url(#linearGradient60);fill-opacity:1;fill-rule:nonzero;stroke:none"
             d="m 2298.04,1656.78 c 0,-46.07 -32.45,-102.28 -72.36,-125.32 l -234,-135.14 c -19.14,-11.07 -44.84,-17.14 -72.37,-17.14 -27.52,0 -53.22,6.07 -72.36,17.14 l -234,135.14 c -39.9,23.04 -72.36,79.25 -72.36,125.32 l 0,270.18 c 0,45.3 33.14,102.7 72.36,125.35 l 233.99,135.1 c 19.15,11.04 44.86,17.13 72.37,17.13 27.52,0 53.22,-6.09 72.37,-17.13 l 234,-135.1 c 39.23,-22.65 72.36,-80.05 72.36,-125.35 l 0,-270.18 z m -69.07,401.24 -233.99,135.09 c -20.83,12.02 -48.25,18.01 -75.67,18.01 -27.42,0 -54.84,-5.99 -75.65,-18.01 l -234,-135.09 C 1568.06,2034 1534,1975 1534,1926.96 l 0,-270.18 c 0,-48.1 34.06,-107.01 75.66,-131.04 l 234,-135.12 c 20.81,-12.03 48.23,-18.03 75.65,-18.03 27.42,0 54.84,6 75.67,18.03 l 233.99,135.12 c 41.6,24.03 75.66,82.94 75.66,131.04 l 0,270.18 c 0,48.04 -34.06,107.04 -75.66,131.06 z m 99.76,-418.94 c 0,-45.32 -33.15,-102.73 -72.39,-125.39 L 1991.7,1360.91 c -18.54,-10.7 -44.93,-16.86 -72.39,-16.86 -27.46,0 -53.85,6.16 -72.39,16.86 l -264.63,152.78 c -39.24,22.66 -72.38,80.07 -72.38,125.39 l 0,305.57 c 0,45.31 33.14,102.72 72.38,125.38 l 264.63,152.78 c 18.54,10.71 44.93,16.85 72.39,16.85 27.46,0 53.85,-6.14 72.39,-16.85 l 264.64,-152.78 c 39.24,-22.66 72.39,-80.07 72.39,-125.38 l 0,-305.57 z m -59.21,453.77 -264.64,152.77 c -23.54,13.59 -54.55,20.39 -85.57,20.39 -31.01,0 -62.03,-6.8 -85.56,-20.39 l -264.63,-152.77 c -47.05,-27.17 -85.56,-93.87 -85.56,-148.2 l 0,-305.57 c 0,-54.34 38.51,-121.03 85.56,-148.2 l 264.63,-152.79 c 23.53,-13.59 54.55,-20.38 85.56,-20.38 31.02,0 62.03,6.79 85.57,20.38 l 264.64,152.79 c 47.05,27.17 85.55,93.86 85.55,148.2 l 0,305.57 c 0,54.33 -38.5,121.03 -85.55,148.2 z m -183.79,-410.35 0,182.62 65.05,-178.72 20.18,7.34 -85.23,234.13 0,5.6 -21.47,0 0,-5.6 -85.21,-234.13 20.18,-7.34 65.03,178.67 0,-182.57 21.47,0 z m -123.46,-40.3 225.47,0 0,30.9 -225.47,0 0,-30.9 z m -187.91,332.85 129.53,0 0,-19.58 30.85,0 0,19.58 129.52,0 0,-19.58 21.47,0 0,19.58 0.05,0 0,30.87 -332.89,0 0,-50.45 21.47,0 0,19.58 z m -21.47,-109.98 0,-182.57 21.47,0 0,182.6 65.04,-178.7 20.18,7.34 -85.22,234.14 0,5.59 -21.47,0 0,-5.63 -85.21,-234.1 20.19,-7.34 65.02,178.67 z m 123.48,-191.97 -225.48,0 0,-30.9 225.48,0 0,30.9 z m 58.37,260.35 -30.85,0 0,-324.8 -53.02,0 0,-30.85 136.9,0 0,30.85 -53.03,0 0,324.8" /></g></g></g></g></svg>