<svg id="Layer_1" data-name="Layer 1" xmlns="http://www.w3.org/2000/svg" xmlns:xlink="http://www.w3.org/1999/xlink" viewBox="0 0 313.92 94.83"><defs><style>.cls-1{fill:#1a1a1a;}.cls-2{fill:#4d4d4d;}.cls-3{fill:url(#linear-gradient);}</style><linearGradient id="linear-gradient" x1="191.93" y1="124.4" x2="191.93" y2="219.23" gradientUnits="userSpaceOnUse"><stop offset="0" stop-color="#99d5eb"/><stop offset="1" stop-color="#1995c3"/></linearGradient></defs><title>Logo Walther Kanzlei</title><path class="cls-1" d="M281.44,172.77h.17c1.09-3.73,4.81-15.47,6.23-20.65a9.08,9.08,0,0,0,.44-2.59c0-.73-.44-1.21-2.3-1.21-.21,0-.37-.12-.37-.29s.21-.28.69-.28c2.07,0,3.77.12,4.13.12s2-.12,3.28-.12c.36,0,.57.08.57.24s-.13.33-.37.33a5.3,5.3,0,0,0-1.37.2c-1.22.45-1.87,2.15-2.64,4.37-1.78,5.14-5.87,18-7.44,22.55-1.06,3-1.26,3.48-1.7,3.48s-.65-.52-1.22-2.1l-7.93-22.51h-.08c-1.46,3.88-7,18.7-8.47,22.47-.64,1.7-.85,2.14-1.33,2.14s-.61-.44-1.42-3.2l-7.2-24c-.65-2.15-1.18-2.75-2.23-3.16a6.73,6.73,0,0,0-1.82-.24c-.2,0-.37,0-.37-.29s.25-.28.65-.28c2.11,0,4.33.12,4.78.12s2.14-.12,4.17-.12c.56,0,.73.12.73.28s-.21.29-.41.29a4,4,0,0,0-1.58.24,1.06,1.06,0,0,0-.52,1,30.37,30.37,0,0,0,.77,3.73c.6,2.59,4.81,17.44,5.42,19.59h.08l8.58-23.08c.61-1.65.77-1.86,1-1.86s.52.53,1,1.91Z" transform="translate(-148.36 -124.4)"/><path class="cls-1" d="M303.67,148.76c.48-1.33.65-1.58.89-1.58s.4.21.89,1.46c.61,1.54,7,18.26,9.43,24.41,1.46,3.6,2.63,4.25,3.48,4.49a5.08,5.08,0,0,0,1.62.25c.24,0,.41,0,.41.24s-.37.32-.81.32c-.61,0-3.56,0-6.36-.08-.77,0-1.21,0-1.21-.28s.12-.24.28-.28.49-.45.24-1.1l-3.76-10a.35.35,0,0,0-.37-.25h-8.7c-.2,0-.32.12-.4.33l-2.43,7.16a8.43,8.43,0,0,0-.57,2.71c0,.81.85,1.18,1.54,1.18h.4c.29,0,.41.08.41.24s-.24.32-.61.32c-1,0-2.71-.12-3.16-.12s-2.67.12-4.57.12c-.53,0-.77-.08-.77-.32s.16-.24.36-.24.85,0,1.18-.08c1.86-.25,2.67-1.78,3.4-3.81Zm4.21,16.2c.2,0,.2-.13.16-.29l-3.85-10.93q-.3-.92-.6,0L300,164.67c-.08.2,0,.29.13.29Z" transform="translate(-148.36 -124.4)"/><path class="cls-1" d="M328.77,166.7c0,6,.16,8.54.89,9.27s1.7.93,4.86.93c2.14,0,3.92,0,4.89-1.22a5.56,5.56,0,0,0,1.06-2.43c0-.32.12-.52.36-.52s.24.16.24.61a26.08,26.08,0,0,1-.6,4c-.29.93-.41,1.1-2.55,1.1-2.92,0-5-.08-6.72-.13s-3-.12-4.13-.12c-.16,0-.85,0-1.66,0s-1.7.08-2.31.08c-.45,0-.65-.08-.65-.32s.08-.24.33-.24a6.28,6.28,0,0,0,1.21-.16c.81-.17,1-1.06,1.17-2.23.21-1.7.21-4.9.21-8.78v-7.13c0-6.31,0-7.45-.08-8.74s-.41-2-1.75-2.31a7.59,7.59,0,0,0-1.37-.12c-.16,0-.33-.08-.33-.25s.21-.32.65-.32c1.82,0,4.38.12,4.58.12s3.15-.12,4.37-.12c.44,0,.65.08.65.32s-.17.25-.33.25a9.52,9.52,0,0,0-1.33.12c-1.18.2-1.5.89-1.58,2.31s-.08,2.43-.08,8.74Z" transform="translate(-148.36 -124.4)"/><path class="cls-1" d="M354.72,166.62c0,3.88,0,7.08.2,8.78.12,1.17.36,2.06,1.58,2.23a17.78,17.78,0,0,0,1.82.16c.24,0,.32.12.32.24s-.2.32-.64.32c-2.23,0-4.78-.12-5-.12s-2.76.12-4,.12c-.45,0-.65-.08-.65-.32s.08-.24.32-.24a6.27,6.27,0,0,0,1.22-.16c.81-.17,1-1.06,1.17-2.23.21-1.7.21-4.9.21-8.78V149.49l-6,.08c-2.51,0-3.48.33-4.12,1.3a7,7,0,0,0-.69,1.25c-.12.33-.25.41-.41.41s-.2-.12-.2-.37c0-.4.81-3.88.89-4.21s.24-.77.41-.77a7.24,7.24,0,0,0,1.78.49c1.17.12,2.71.2,3.19.2h15.19a16.38,16.38,0,0,0,2.87-.2c.61-.08,1-.2,1.13-.2s.21.24.21.48c0,1.22-.13,4-.13,4.46s-.12.52-.28.52-.28-.12-.32-.69l0-.44c-.13-1.22-1.1-2.15-5-2.23l-5.1-.08Z" transform="translate(-148.36 -124.4)"/><path class="cls-1" d="M397.71,166.62c0,3.88,0,7.08.2,8.78.12,1.17.36,2.06,1.58,2.23a18,18,0,0,0,1.82.16c.24,0,.32.12.32.24s-.2.32-.64.32c-2.23,0-4.78-.12-5-.12s-2.76.12-4,.12c-.44,0-.65-.08-.65-.32s.08-.24.33-.24a6.28,6.28,0,0,0,1.21-.16c.81-.17,1-1.06,1.18-2.23.2-1.7.2-4.9.2-8.78v-4.26a.23.23,0,0,0-.25-.24H376.9a.21.21,0,0,0-.24.24v4.26c0,3.88,0,7.08.2,8.78.12,1.17.36,2.06,1.58,2.23a18,18,0,0,0,1.82.16c.24,0,.32.12.32.24s-.2.32-.64.32c-2.23,0-4.78-.12-5-.12s-2.75.12-4,.12c-.45,0-.65-.08-.65-.32s.08-.24.33-.24a6.28,6.28,0,0,0,1.21-.16c.81-.17,1-1.06,1.17-2.23.21-1.7.21-4.9.21-8.78v-7.13c0-6.31,0-7.45-.08-8.74s-.41-2-1.74-2.31a7.79,7.79,0,0,0-1.38-.12c-.16,0-.33-.08-.33-.25s.21-.32.65-.32c1.83,0,4.37.12,4.58.12s2.75-.12,4-.12c.45,0,.65.08.65.32s-.16.25-.32.25a5.93,5.93,0,0,0-1,.12c-1.1.2-1.42.89-1.5,2.31s-.08,2.43-.08,8.74v.85a.21.21,0,0,0,.24.24h17.16c.13,0,.25,0,.25-.24v-.85c0-6.31,0-7.45-.08-8.74s-.41-2-1.74-2.31a7.79,7.79,0,0,0-1.38-.12c-.16,0-.32-.08-.32-.25s.2-.32.64-.32c1.82,0,4.37.12,4.58.12s2.75-.12,4-.12c.45,0,.65.08.65.32s-.16.25-.32.25a6,6,0,0,0-1,.12c-1.1.2-1.42.89-1.5,2.31s-.08,2.43-.08,8.74Z" transform="translate(-148.36 -124.4)"/><path class="cls-1" d="M411.31,159.49c0-6.31,0-7.45-.08-8.74s-.41-2-1.74-2.31a7.7,7.7,0,0,0-1.38-.12c-.16,0-.32-.08-.32-.25s.2-.32.65-.32c.93,0,2,0,2.91,0l1.66.08c.28,0,8.34,0,9.27,0a10.84,10.84,0,0,0,1.74-.2c.2,0,.37-.2.57-.2s.16.16.16.36-.2.77-.32,1.9c0,.41-.13,2.19-.21,2.68,0,.2-.12.44-.28.44s-.32-.2-.32-.53a4.15,4.15,0,0,0-.25-1.45c-.28-.65-.68-1.14-2.87-1.38-.69-.08-5.1-.12-5.55-.12-.16,0-.24.12-.24.4v11.18c0,.28,0,.4.24.4.53,0,5.51,0,6.44-.08s1.54-.16,1.9-.57.45-.52.61-.52.2.08.2.32-.2.93-.32,2.27c-.08.81-.16,2.31-.16,2.59s0,.77-.29.77-.28-.16-.28-.37a4.14,4.14,0,0,0-.16-1.33c-.16-.57-.53-1.26-2.11-1.42-1.09-.12-5.1-.2-5.79-.2a.25.25,0,0,0-.28.28v3.57c0,1.37,0,6.07,0,6.92.12,2.79.73,3.32,4.7,3.32a11.46,11.46,0,0,0,3.88-.45c1.06-.44,1.54-1.25,1.82-2.91.09-.45.17-.61.37-.61s.24.32.24.61-.32,3.07-.52,3.92c-.29,1.06-.61,1.06-2.19,1.06-3,0-5.26-.08-6.84-.13s-2.55-.12-3.16-.12c-.08,0-.77,0-1.62,0s-1.74.08-2.35.08c-.44,0-.64-.08-.64-.32s.08-.24.32-.24a6.28,6.28,0,0,0,1.21-.16c.81-.17,1-1.06,1.18-2.23.2-1.7.2-4.9.2-8.78Z" transform="translate(-148.36 -124.4)"/><path class="cls-1" d="M435.19,159.49c0-6.31,0-7.45-.08-8.74s-.4-2-1.74-2.31a7.59,7.59,0,0,0-1.37-.12c-.17,0-.33-.08-.33-.25s.21-.32.65-.32c1.82,0,4.37.12,4.57.12.45,0,3.53-.12,4.78-.12,2.55,0,5.26.24,7.41,1.78a7.09,7.09,0,0,1,2.79,5.51c0,3-1.25,6-4.9,9.35,3.32,4.25,6.08,7.85,8.42,10.36a8.44,8.44,0,0,0,4.94,2.92,9.86,9.86,0,0,0,1.58.12c.2,0,.37.12.37.24s-.25.32-1,.32h-2.87c-2.27,0-3.28-.2-4.33-.76-1.74-.94-3.16-2.92-5.47-6-1.7-2.22-3.6-4.93-4.41-6a.64.64,0,0,0-.52-.24l-5-.08c-.21,0-.29.12-.29.32v1c0,3.88,0,7.08.2,8.78.13,1.17.37,2.06,1.58,2.23a18,18,0,0,0,1.83.16c.24,0,.32.12.32.24s-.2.32-.65.32c-2.23,0-4.78-.12-5-.12,0,0-2.59.12-3.8.12-.45,0-.65-.08-.65-.32s.08-.24.32-.24a6.38,6.38,0,0,0,1.22-.16c.81-.17,1-1.06,1.17-2.23.2-1.7.2-4.9.2-8.78Zm3.24,3.52a.53.53,0,0,0,.29.49,11.21,11.21,0,0,0,4.25.65,5.28,5.28,0,0,0,3-.77c1.42-1,2.47-3.16,2.47-6.24,0-5.06-2.67-8.09-7-8.09a12.26,12.26,0,0,0-2.71.24.48.48,0,0,0-.33.48Z" transform="translate(-148.36 -124.4)"/><path class="cls-2" d="M294.26,192.51c-.06-1.19-.14-2.64-.14-3.7h0c-.31,1-.65,2.07-1.08,3.25l-1.51,4.16h-.84l-1.4-4.08c-.4-1.22-.73-2.31-1-3.33h0c0,1.07-.09,2.49-.17,3.79l-.22,3.67h-1.06l.6-8.56h1.41l1.46,4.14c.35,1.05.63,2,.86,2.88h0c.23-.86.53-1.8.91-2.88l1.52-4.14H295l.54,8.56h-1.1Z" transform="translate(-148.36 -124.4)"/><path class="cls-2" d="M306.5,192.25h-3.31v3.09h3.71v.93h-4.83v-8.56h4.64v.93h-3.52v2.7h3.31Z" transform="translate(-148.36 -124.4)"/><path class="cls-2" d="M313.15,187.82a16.31,16.31,0,0,1,2.36-.17,4.86,4.86,0,0,1,3.46,1,3.92,3.92,0,0,1,1.22,3.09,4.56,4.56,0,0,1-1.23,3.32,5.31,5.31,0,0,1-3.79,1.23,14.85,14.85,0,0,1-2-.1Zm1.11,7.58a7.34,7.34,0,0,0,1.12,0,3.29,3.29,0,0,0,3.65-3.63c0-2-1.13-3.3-3.47-3.3a5.89,5.89,0,0,0-1.3.12Z" transform="translate(-148.36 -124.4)"/><path class="cls-2" d="M327.55,187.71v8.56h-1.12v-8.56Z" transform="translate(-148.36 -124.4)"/><path class="cls-2" d="M333.72,195.62l4.75-7v0h-4.34v-.93h5.77v.67l-4.72,6.92v0H340v.93h-6.25Z" transform="translate(-148.36 -124.4)"/><path class="cls-2" d="M347.26,187.71v8.56h-1.12v-8.56Z" transform="translate(-148.36 -124.4)"/><path class="cls-2" d="M354,196.27v-8.56h1.22L358,192a22.43,22.43,0,0,1,1.52,2.78h0c-.1-1.15-.12-2.19-.12-3.51v-3.59h1v8.56h-1.12l-2.72-4.35a24,24,0,0,1-1.58-2.85h0c.06,1.08.07,2.11.07,3.53v3.66Z" transform="translate(-148.36 -124.4)"/><path class="cls-2" d="M367.19,187.84a11.12,11.12,0,0,1,2.12-.19,3.53,3.53,0,0,1,2.49.71,2.13,2.13,0,0,1,.68,1.62,2.25,2.25,0,0,1-1.62,2.17v0a2.19,2.19,0,0,1,1.26,1.73,15,15,0,0,0,.65,2.35h-1.14a9.77,9.77,0,0,1-.56-2.05c-.26-1.18-.73-1.62-1.73-1.66h-1v3.71h-1.11Zm1.11,3.88h1.13c1.18,0,1.93-.65,1.93-1.62s-.8-1.59-2-1.59a4.7,4.7,0,0,0-1.09.1Z" transform="translate(-148.36 -124.4)"/><path class="cls-2" d="M383.27,192.25H380v3.09h3.7v.93h-4.82v-8.56h4.63v.93H380v2.7h3.31Z" transform="translate(-148.36 -124.4)"/><path class="cls-2" d="M395.89,196a5.47,5.47,0,0,1-2.26.41,4,4,0,0,1-4.21-4.35,4.25,4.25,0,0,1,4.47-4.49,4.67,4.67,0,0,1,2,.38l-.28.9a4,4,0,0,0-1.72-.35c-2,0-3.33,1.28-3.33,3.53a3.1,3.1,0,0,0,3.27,3.44,4.4,4.4,0,0,0,1.82-.36Z" transform="translate(-148.36 -124.4)"/><path class="cls-2" d="M403.22,187.71v3.58h4.14v-3.58h1.12v8.56h-1.12v-4h-4.14v4H402.1v-8.56Z" transform="translate(-148.36 -124.4)"/><path class="cls-2" d="M416.85,188.65h-2.61v-.94h6.34v.94H418v7.62h-1.11Z" transform="translate(-148.36 -124.4)"/><path class="cls-3" d="M193.47,157.66h-3.08v32.47h-5.3v3.09h13.69v-3.09h-5.31Zm-5.83,26H165.09v3.09h22.55Zm-12.35-19.2v18.26h2.15V164.49l6.5,17.87,2-.73-8.52-23.42v-.56h-2.15v.57l-8.52,23.41,2,.73Zm2.15-11h12.95v2h3.08v-2h13v2h2.14v-2h0v-3.08H175.29v5h2.15Zm18.79,33.29h22.54v-3.09H196.23Zm12.34-4V164.49l6.51,17.87,2-.73-8.53-23.42v-.56h-2.14v.56l-8.52,23.42,2,.73,6.51-17.87v18.26Zm18.38-41-26.46-15.28a19,19,0,0,0-17.11,0l-26.47,15.28c-4.7,2.71-8.55,9.38-8.55,14.82v30.55c0,5.44,3.85,12.11,8.55,14.82l26.47,15.28a19,19,0,0,0,17.11,0L227,201.91c4.71-2.71,8.56-9.38,8.56-14.82V156.54C235.51,151.1,231.66,144.43,227,141.72Zm5.92,45.37c0,4.53-3.31,10.28-7.24,12.54l-26.46,15.28a16.44,16.44,0,0,1-14.48,0l-26.46-15.28c-3.92-2.26-7.24-8-7.24-12.54V156.54c0-4.54,3.32-10.28,7.24-12.54l26.46-15.28a16.35,16.35,0,0,1,14.48,0L225.63,144c3.93,2.26,7.24,8,7.24,12.54Zm-10-41.89-23.4-13.51a16.8,16.8,0,0,0-15.13,0L161,145.2a16.79,16.79,0,0,0-7.57,13.1v27A16.81,16.81,0,0,0,161,198.43l23.4,13.51a16.8,16.8,0,0,0,15.13,0l23.4-13.51a16.8,16.8,0,0,0,7.56-13.11v-27A16.78,16.78,0,0,0,222.9,145.2Zm6.9,40.12a16,16,0,0,1-7.23,12.53l-23.4,13.52a16.18,16.18,0,0,1-14.48,0L161.3,197.85a16,16,0,0,1-7.24-12.53v-27c0-4.53,3.31-10.27,7.24-12.53l23.39-13.51a16.18,16.18,0,0,1,14.48,0l23.4,13.51c3.92,2.26,7.23,8,7.23,12.53Z" transform="translate(-148.36 -124.4)"/></svg>